%TF.GenerationSoftware,KiCad,Pcbnew,9.0.2*%
%TF.CreationDate,2025-07-11T21:06:48+12:00*%
%TF.ProjectId,T61,5436312e-6b69-4636-9164-5f7063625858,rev?*%
%TF.SameCoordinates,Original*%
%TF.FileFunction,Copper,L2,Bot*%
%TF.FilePolarity,Positive*%
%FSLAX46Y46*%
G04 Gerber Fmt 4.6, Leading zero omitted, Abs format (unit mm)*
G04 Created by KiCad (PCBNEW 9.0.2) date 2025-07-11 21:06:48*
%MOMM*%
%LPD*%
G01*
G04 APERTURE LIST*
%TA.AperFunction,ComponentPad*%
%ADD10C,1.879600*%
%TD*%
%TA.AperFunction,ComponentPad*%
%ADD11C,1.447800*%
%TD*%
%TA.AperFunction,ViaPad*%
%ADD12C,0.604000*%
%TD*%
%TA.AperFunction,Conductor*%
%ADD13C,0.508000*%
%TD*%
%TA.AperFunction,Conductor*%
%ADD14C,0.152400*%
%TD*%
%TA.AperFunction,Conductor*%
%ADD15C,0.254000*%
%TD*%
G04 APERTURE END LIST*
D10*
%TO.P,J9,1*%
%TO.N,TP_CLK*%
X159186100Y-93903600D03*
%TD*%
%TO.P,J3,1*%
%TO.N,RESET+*%
X169686100Y-94753600D03*
%TD*%
%TO.P,J13,1*%
%TO.N,GND*%
X134586100Y-83903600D03*
%TD*%
%TO.P,J11,1*%
%TO.N,D+*%
X137086100Y-83903600D03*
%TD*%
%TO.P,J10,1*%
%TO.N,TP_DATA*%
X156686100Y-93903600D03*
%TD*%
%TO.P,J5,1*%
%TO.N,GND*%
X149086100Y-125453600D03*
%TO.P,J5,2*%
%TO.N,PAD_DATA*%
X151626100Y-125453600D03*
%TO.P,J5,3*%
%TO.N,PAD_CLOCK*%
X154166100Y-125453600D03*
%TO.P,J5,4*%
%TO.N,5V*%
X156706100Y-125453600D03*
%TO.P,J5,5*%
%TO.N,RESET-*%
X159246100Y-125453600D03*
%TD*%
%TO.P,J2,1*%
%TO.N,GND*%
X154136100Y-95823600D03*
%TO.P,J2,2*%
%TO.N,ON*%
X154136100Y-98363600D03*
%TD*%
%TO.P,J8,1*%
%TO.N,GND*%
X169686100Y-89103600D03*
%TD*%
%TO.P,J7,1*%
%TO.N,5V*%
X169686100Y-99903600D03*
%TD*%
D11*
%TO.P,U1,0*%
%TO.N,0*%
X130726100Y-90783600D03*
%TO.P,U1,1*%
%TO.N,1*%
X130726100Y-93323600D03*
%TO.P,U1,2*%
%TO.N,2*%
X130726100Y-95863600D03*
%TO.P,U1,3*%
%TO.N,3*%
X130726100Y-98403600D03*
%TO.P,U1,3V*%
%TO.N,3V*%
X145966100Y-93323600D03*
%TO.P,U1,3V1*%
X135806100Y-121263600D03*
%TO.P,U1,4*%
%TO.N,4*%
X130726100Y-100943600D03*
%TO.P,U1,5*%
%TO.N,5*%
X130726100Y-103483600D03*
%TO.P,U1,5V*%
%TO.N,5V*%
X145966100Y-88243600D03*
%TO.P,U1,6*%
%TO.N,6*%
X130726100Y-106023600D03*
%TO.P,U1,7*%
%TO.N,7*%
X130726100Y-108563600D03*
%TO.P,U1,8*%
%TO.N,8*%
X130726100Y-111103600D03*
%TO.P,U1,9*%
%TO.N,9*%
X130726100Y-113643600D03*
%TO.P,U1,10*%
%TO.N,10*%
X130726100Y-116183600D03*
%TO.P,U1,11*%
%TO.N,11*%
X130726100Y-118723600D03*
%TO.P,U1,12*%
%TO.N,12*%
X130726100Y-121263600D03*
%TO.P,U1,13*%
%TO.N,13*%
X145966100Y-121263600D03*
%TO.P,U1,14*%
%TO.N,14*%
X145966100Y-118723600D03*
%TO.P,U1,15*%
%TO.N,15*%
X145966100Y-116183600D03*
%TO.P,U1,16*%
%TO.N,16*%
X145966100Y-113643600D03*
%TO.P,U1,17*%
%TO.N,17*%
X145966100Y-111103600D03*
%TO.P,U1,18*%
%TO.N,18*%
X145966100Y-108563600D03*
%TO.P,U1,19*%
%TO.N,19*%
X145966100Y-106023600D03*
%TO.P,U1,20*%
%TO.N,20*%
X145966100Y-103483600D03*
%TO.P,U1,21*%
%TO.N,21*%
X145966100Y-100943600D03*
%TO.P,U1,22*%
%TO.N,22*%
X145966100Y-98403600D03*
%TO.P,U1,23*%
%TO.N,23*%
X145966100Y-95863600D03*
%TO.P,U1,24*%
%TO.N,24*%
X143426100Y-116183600D03*
%TO.P,U1,25*%
%TO.N,25*%
X143426100Y-113643600D03*
%TO.P,U1,26*%
%TO.N,26*%
X140886100Y-116183600D03*
%TO.P,U1,27*%
%TO.N,27*%
X140886100Y-113643600D03*
%TO.P,U1,28*%
%TO.N,28*%
X138346100Y-116183600D03*
%TO.P,U1,29*%
%TO.N,29*%
X138346100Y-113643600D03*
%TO.P,U1,30*%
%TO.N,30*%
X135806100Y-116183600D03*
%TO.P,U1,31*%
%TO.N,31*%
X135806100Y-113643600D03*
%TO.P,U1,32*%
%TO.N,32*%
X133266100Y-116183600D03*
%TO.P,U1,33*%
%TO.N,33*%
X133266100Y-113643600D03*
%TO.P,U1,D+*%
%TO.N,D+*%
X137076100Y-88243600D03*
%TO.P,U1,D-*%
%TO.N,D-*%
X139616100Y-88243600D03*
%TO.P,U1,GND1*%
%TO.N,GND*%
X130726100Y-88243600D03*
%TO.P,U1,GND2*%
X145966100Y-90783600D03*
%TO.P,U1,GND3*%
X138346100Y-121263600D03*
%TD*%
D10*
%TO.P,J1,1*%
%TO.N,GND*%
X127536100Y-111633600D03*
%TO.P,J1,2*%
%TO.N,CAPS_LOCK*%
X127536100Y-109093600D03*
%TO.P,J1,3*%
%TO.N,NUM_LOCK*%
X127536100Y-106553600D03*
%TO.P,J1,4*%
%TO.N,3V*%
X127536100Y-104013600D03*
%TD*%
%TO.P,J12,1*%
%TO.N,D-*%
X139586100Y-83903600D03*
%TD*%
%TO.P,J6,1*%
%TO.N,5V*%
X142086100Y-83903600D03*
%TD*%
D12*
%TO.N,5V*%
X165486100Y-123003600D03*
X165086100Y-91603600D03*
X158686100Y-89573600D03*
X145386100Y-124103600D03*
%TO.N,3V*%
X135586100Y-124203600D03*
X129486100Y-115003600D03*
X138586100Y-124703600D03*
X131386100Y-124203600D03*
X155356100Y-87173600D03*
%TO.N,GND*%
X155686100Y-127203600D03*
X136586100Y-109903600D03*
X145186100Y-84203600D03*
X141186100Y-127403600D03*
X157486100Y-95903600D03*
X143786100Y-98903600D03*
X126886100Y-93603600D03*
X155086100Y-82803600D03*
X157586100Y-109903600D03*
X162786100Y-89603600D03*
X133486100Y-121403600D03*
X166386100Y-117703600D03*
X136086100Y-96703600D03*
X135986100Y-91403600D03*
X133886100Y-118003600D03*
X126886100Y-121903600D03*
X169786100Y-109403600D03*
X164486100Y-112003600D03*
X159786100Y-85303600D03*
X142086100Y-102203600D03*
X162986100Y-83703600D03*
X136186100Y-107303600D03*
X162086100Y-122103600D03*
X167786100Y-89603600D03*
X142586100Y-108703600D03*
X142286100Y-104703600D03*
X169786100Y-118203600D03*
X160286100Y-123803600D03*
X131086100Y-82703600D03*
X141186100Y-91303600D03*
X152886100Y-84303600D03*
%TD*%
D13*
%TO.N,5V*%
X145966100Y-88243600D02*
X158686100Y-88243600D01*
X167886100Y-100003600D02*
X167886100Y-99003600D01*
X167986100Y-99903600D02*
X167886100Y-100003600D01*
X158686100Y-88243600D02*
X164026100Y-88243600D01*
D14*
X156706100Y-124223600D02*
X156706100Y-125453600D01*
X156186100Y-123703600D02*
X156706100Y-124223600D01*
D13*
X165086100Y-89303600D02*
X164026100Y-88243600D01*
X165086100Y-96203600D02*
X165086100Y-91603600D01*
X167886100Y-100003600D02*
X167886100Y-120603600D01*
X167886100Y-120603600D02*
X165486100Y-123003600D01*
D14*
X145786100Y-123703600D02*
X156186100Y-123703600D01*
D13*
X169686100Y-99903600D02*
X167986100Y-99903600D01*
D14*
X158686100Y-89573600D02*
X158686100Y-88243600D01*
X145386100Y-124103600D02*
X145786100Y-123703600D01*
D13*
X167886100Y-99003600D02*
X165086100Y-96203600D01*
X165086100Y-91603600D02*
X165086100Y-89303600D01*
D15*
%TO.N,3V*%
X129486100Y-115003600D02*
X131286100Y-115003600D01*
D14*
X154586100Y-85603600D02*
X144686100Y-85603600D01*
X131386100Y-124203600D02*
X135586100Y-124203600D01*
X143986100Y-91343600D02*
X145966100Y-93323600D01*
X143986100Y-86303600D02*
X143986100Y-91343600D01*
X137786100Y-124203600D02*
X135586100Y-124203600D01*
X135586100Y-124203600D02*
X135586100Y-121483600D01*
D13*
X145966100Y-93323600D02*
X137186100Y-102103600D01*
X129446100Y-102103600D02*
X127536100Y-104013600D01*
D14*
X138586100Y-124703600D02*
X138286100Y-124703600D01*
D15*
X131286100Y-115003600D02*
X132086100Y-114203600D01*
X132086100Y-114203600D02*
X132086100Y-102103600D01*
D14*
X155356100Y-86373600D02*
X154586100Y-85603600D01*
X138286100Y-124703600D02*
X137786100Y-124203600D01*
X155356100Y-87173600D02*
X155356100Y-86373600D01*
X144686100Y-85603600D02*
X143986100Y-86303600D01*
X135586100Y-121483600D02*
X135806100Y-121263600D01*
D13*
X132086100Y-102103600D02*
X129446100Y-102103600D01*
X137186100Y-102103600D02*
X132086100Y-102103600D01*
%TD*%
%TA.AperFunction,Conductor*%
%TO.N,GND*%
G36*
X171772294Y-81547406D02*
G01*
X171790600Y-81591600D01*
X171790600Y-128415600D01*
X171772294Y-128459794D01*
X171728100Y-128478100D01*
X125274100Y-128478100D01*
X125229906Y-128459794D01*
X125211600Y-128415600D01*
X125211600Y-125385506D01*
X126685600Y-125385506D01*
X126685600Y-125621693D01*
X126722548Y-125854972D01*
X126795531Y-126079590D01*
X126795535Y-126079598D01*
X126902758Y-126290035D01*
X127041582Y-126481109D01*
X127041589Y-126481117D01*
X127208582Y-126648110D01*
X127208590Y-126648117D01*
X127399667Y-126786943D01*
X127610108Y-126894168D01*
X127834732Y-126967153D01*
X128068008Y-127004100D01*
X128068010Y-127004100D01*
X128304190Y-127004100D01*
X128304192Y-127004100D01*
X128537468Y-126967153D01*
X128762092Y-126894168D01*
X128972533Y-126786943D01*
X129163610Y-126648117D01*
X129330617Y-126481110D01*
X129469443Y-126290033D01*
X129576668Y-126079592D01*
X129649653Y-125854968D01*
X129686600Y-125621692D01*
X129686600Y-125385508D01*
X129673310Y-125301599D01*
X147850869Y-125301599D01*
X147850870Y-125301600D01*
X148600908Y-125301600D01*
X148578100Y-125386720D01*
X148578100Y-125520480D01*
X148600908Y-125605600D01*
X147850870Y-125605600D01*
X147872926Y-125744856D01*
X147872927Y-125744859D01*
X147933423Y-125931047D01*
X147933425Y-125931054D01*
X148022310Y-126105497D01*
X148137382Y-126263880D01*
X148137389Y-126263888D01*
X148275811Y-126402310D01*
X148275819Y-126402317D01*
X148434202Y-126517389D01*
X148608645Y-126606274D01*
X148608652Y-126606276D01*
X148794835Y-126666770D01*
X148794848Y-126666773D01*
X148934099Y-126688829D01*
X148934100Y-126688829D01*
X148934100Y-125938792D01*
X149019220Y-125961600D01*
X149152980Y-125961600D01*
X149238100Y-125938792D01*
X149238100Y-126688829D01*
X149377351Y-126666773D01*
X149377364Y-126666770D01*
X149563547Y-126606276D01*
X149563554Y-126606274D01*
X149737997Y-126517389D01*
X149896380Y-126402317D01*
X149896388Y-126402310D01*
X150034810Y-126263888D01*
X150034817Y-126263880D01*
X150149889Y-126105497D01*
X150238774Y-125931054D01*
X150238776Y-125931047D01*
X150299272Y-125744859D01*
X150299273Y-125744856D01*
X150321330Y-125605600D01*
X149571292Y-125605600D01*
X149594100Y-125520480D01*
X149594100Y-125386720D01*
X149588978Y-125367605D01*
X150533400Y-125367605D01*
X150533400Y-125539594D01*
X150533401Y-125539610D01*
X150560305Y-125709472D01*
X150560305Y-125709473D01*
X150613454Y-125873049D01*
X150613458Y-125873057D01*
X150691540Y-126026302D01*
X150792634Y-126165445D01*
X150792641Y-126165453D01*
X150914246Y-126287058D01*
X150914254Y-126287065D01*
X151053400Y-126388161D01*
X151206649Y-126466245D01*
X151370225Y-126519394D01*
X151441823Y-126530734D01*
X151540089Y-126546298D01*
X151540095Y-126546298D01*
X151540103Y-126546300D01*
X151540105Y-126546300D01*
X151712095Y-126546300D01*
X151712097Y-126546300D01*
X151881975Y-126519394D01*
X152045551Y-126466245D01*
X152198800Y-126388161D01*
X152337946Y-126287065D01*
X152459565Y-126165446D01*
X152560661Y-126026300D01*
X152638745Y-125873051D01*
X152691894Y-125709475D01*
X152718800Y-125539597D01*
X152718800Y-125367605D01*
X153073400Y-125367605D01*
X153073400Y-125539594D01*
X153073401Y-125539610D01*
X153100305Y-125709472D01*
X153100305Y-125709473D01*
X153153454Y-125873049D01*
X153153458Y-125873057D01*
X153231540Y-126026302D01*
X153332634Y-126165445D01*
X153332641Y-126165453D01*
X153454246Y-126287058D01*
X153454254Y-126287065D01*
X153593400Y-126388161D01*
X153746649Y-126466245D01*
X153910225Y-126519394D01*
X153981823Y-126530734D01*
X154080089Y-126546298D01*
X154080095Y-126546298D01*
X154080103Y-126546300D01*
X154080105Y-126546300D01*
X154252095Y-126546300D01*
X154252097Y-126546300D01*
X154421975Y-126519394D01*
X154585551Y-126466245D01*
X154738800Y-126388161D01*
X154877946Y-126287065D01*
X154999565Y-126165446D01*
X155100661Y-126026300D01*
X155178745Y-125873051D01*
X155231894Y-125709475D01*
X155258800Y-125539597D01*
X155258800Y-125367603D01*
X155252853Y-125330058D01*
X155231894Y-125197727D01*
X155231894Y-125197726D01*
X155220398Y-125162343D01*
X155178745Y-125034149D01*
X155100661Y-124880900D01*
X155015356Y-124763489D01*
X154999565Y-124741754D01*
X154999558Y-124741746D01*
X154877953Y-124620141D01*
X154877945Y-124620134D01*
X154738802Y-124519040D01*
X154585557Y-124440958D01*
X154585549Y-124440954D01*
X154421973Y-124387805D01*
X154252110Y-124360901D01*
X154252098Y-124360900D01*
X154252097Y-124360900D01*
X154080103Y-124360900D01*
X154080101Y-124360900D01*
X154080089Y-124360901D01*
X153910227Y-124387805D01*
X153910226Y-124387805D01*
X153746650Y-124440954D01*
X153746642Y-124440958D01*
X153593397Y-124519040D01*
X153454254Y-124620134D01*
X153454246Y-124620141D01*
X153332641Y-124741746D01*
X153332634Y-124741754D01*
X153231540Y-124880897D01*
X153153458Y-125034142D01*
X153153454Y-125034150D01*
X153100305Y-125197726D01*
X153100305Y-125197727D01*
X153073401Y-125367589D01*
X153073400Y-125367605D01*
X152718800Y-125367605D01*
X152718800Y-125367603D01*
X152712853Y-125330058D01*
X152691894Y-125197727D01*
X152691894Y-125197726D01*
X152680398Y-125162343D01*
X152638745Y-125034149D01*
X152560661Y-124880900D01*
X152475356Y-124763489D01*
X152459565Y-124741754D01*
X152459558Y-124741746D01*
X152337953Y-124620141D01*
X152337945Y-124620134D01*
X152198802Y-124519040D01*
X152045557Y-124440958D01*
X152045549Y-124440954D01*
X151881973Y-124387805D01*
X151712110Y-124360901D01*
X151712098Y-124360900D01*
X151712097Y-124360900D01*
X151540103Y-124360900D01*
X151540101Y-124360900D01*
X151540089Y-124360901D01*
X151370227Y-124387805D01*
X151370226Y-124387805D01*
X151206650Y-124440954D01*
X151206642Y-124440958D01*
X151053397Y-124519040D01*
X150914254Y-124620134D01*
X150914246Y-124620141D01*
X150792641Y-124741746D01*
X150792634Y-124741754D01*
X150691540Y-124880897D01*
X150613458Y-125034142D01*
X150613454Y-125034150D01*
X150560305Y-125197726D01*
X150560305Y-125197727D01*
X150533401Y-125367589D01*
X150533400Y-125367605D01*
X149588978Y-125367605D01*
X149571292Y-125301600D01*
X150321330Y-125301600D01*
X150321330Y-125301599D01*
X150299273Y-125162343D01*
X150299272Y-125162340D01*
X150238776Y-124976152D01*
X150238774Y-124976145D01*
X150149889Y-124801702D01*
X150034817Y-124643319D01*
X150034810Y-124643311D01*
X149896388Y-124504889D01*
X149896380Y-124504882D01*
X149737997Y-124389810D01*
X149563554Y-124300925D01*
X149563547Y-124300923D01*
X149377359Y-124240427D01*
X149377356Y-124240426D01*
X149238100Y-124218369D01*
X149238100Y-124968407D01*
X149152980Y-124945600D01*
X149019220Y-124945600D01*
X148934100Y-124968407D01*
X148934100Y-124218369D01*
X148934099Y-124218369D01*
X148794843Y-124240426D01*
X148794840Y-124240427D01*
X148608652Y-124300923D01*
X148608645Y-124300925D01*
X148434202Y-124389810D01*
X148275819Y-124504882D01*
X148275811Y-124504889D01*
X148137389Y-124643311D01*
X148137382Y-124643319D01*
X148022310Y-124801702D01*
X147933425Y-124976145D01*
X147933423Y-124976152D01*
X147872927Y-125162340D01*
X147872926Y-125162343D01*
X147850869Y-125301599D01*
X129673310Y-125301599D01*
X129649653Y-125152232D01*
X129576668Y-124927608D01*
X129469443Y-124717167D01*
X129404294Y-124627498D01*
X129330617Y-124526090D01*
X129330610Y-124526082D01*
X129163617Y-124359089D01*
X129163609Y-124359082D01*
X129011681Y-124248700D01*
X128972533Y-124220257D01*
X128822293Y-124143706D01*
X130931200Y-124143706D01*
X130931200Y-124263493D01*
X130962201Y-124379185D01*
X130962203Y-124379190D01*
X131022087Y-124482911D01*
X131022094Y-124482920D01*
X131106779Y-124567605D01*
X131106788Y-124567612D01*
X131210509Y-124627496D01*
X131210511Y-124627497D01*
X131210515Y-124627499D01*
X131289531Y-124648671D01*
X131326206Y-124658499D01*
X131326208Y-124658499D01*
X131326211Y-124658500D01*
X131326213Y-124658500D01*
X131445987Y-124658500D01*
X131445989Y-124658500D01*
X131561685Y-124627499D01*
X131665415Y-124567610D01*
X131750110Y-124482915D01*
X131754771Y-124474841D01*
X131761060Y-124463950D01*
X131799010Y-124434830D01*
X131815186Y-124432700D01*
X135157014Y-124432700D01*
X135201208Y-124451006D01*
X135211140Y-124463950D01*
X135222087Y-124482911D01*
X135222094Y-124482920D01*
X135306779Y-124567605D01*
X135306788Y-124567612D01*
X135410509Y-124627496D01*
X135410511Y-124627497D01*
X135410515Y-124627499D01*
X135489531Y-124648671D01*
X135526206Y-124658499D01*
X135526208Y-124658499D01*
X135526211Y-124658500D01*
X135526213Y-124658500D01*
X135645987Y-124658500D01*
X135645989Y-124658500D01*
X135761685Y-124627499D01*
X135865415Y-124567610D01*
X135950110Y-124482915D01*
X135954771Y-124474841D01*
X135961060Y-124463950D01*
X135999010Y-124434830D01*
X136015186Y-124432700D01*
X137665315Y-124432700D01*
X137709509Y-124451006D01*
X138156326Y-124897822D01*
X138158584Y-124898757D01*
X138161332Y-124901167D01*
X138161446Y-124901243D01*
X138161436Y-124901257D01*
X138188796Y-124925250D01*
X138222089Y-124982914D01*
X138222094Y-124982920D01*
X138306779Y-125067605D01*
X138306788Y-125067612D01*
X138410509Y-125127496D01*
X138410511Y-125127497D01*
X138410515Y-125127499D01*
X138489531Y-125148671D01*
X138526206Y-125158499D01*
X138526208Y-125158499D01*
X138526211Y-125158500D01*
X138526213Y-125158500D01*
X138645987Y-125158500D01*
X138645989Y-125158500D01*
X138761685Y-125127499D01*
X138865415Y-125067610D01*
X138950110Y-124982915D01*
X139009999Y-124879185D01*
X139041000Y-124763489D01*
X139041000Y-124643711D01*
X139034682Y-124620134D01*
X139020609Y-124567612D01*
X139009999Y-124528015D01*
X139009701Y-124527499D01*
X138950112Y-124424288D01*
X138950105Y-124424279D01*
X138865420Y-124339594D01*
X138865411Y-124339587D01*
X138761690Y-124279703D01*
X138761685Y-124279701D01*
X138645993Y-124248700D01*
X138645989Y-124248700D01*
X138526211Y-124248700D01*
X138526206Y-124248700D01*
X138410514Y-124279701D01*
X138309836Y-124337828D01*
X138262410Y-124344071D01*
X138234392Y-124327895D01*
X137950203Y-124043706D01*
X144931200Y-124043706D01*
X144931200Y-124163493D01*
X144962201Y-124279185D01*
X144962203Y-124279190D01*
X145022087Y-124382911D01*
X145022094Y-124382920D01*
X145106779Y-124467605D01*
X145106788Y-124467612D01*
X145210509Y-124527496D01*
X145210511Y-124527497D01*
X145210515Y-124527499D01*
X145289531Y-124548671D01*
X145326206Y-124558499D01*
X145326208Y-124558499D01*
X145326211Y-124558500D01*
X145326213Y-124558500D01*
X145445987Y-124558500D01*
X145445989Y-124558500D01*
X145561685Y-124527499D01*
X145665415Y-124467610D01*
X145750110Y-124382915D01*
X145809999Y-124279185D01*
X145841000Y-124163489D01*
X145841000Y-124043711D01*
X145835332Y-124022558D01*
X145836434Y-124014181D01*
X145833202Y-124006375D01*
X145839445Y-123991306D01*
X145841574Y-123975133D01*
X145851512Y-123962183D01*
X145862695Y-123951002D01*
X145906885Y-123932700D01*
X156065315Y-123932700D01*
X156109509Y-123951006D01*
X156450627Y-124292124D01*
X156468933Y-124336318D01*
X156450627Y-124380512D01*
X156425747Y-124395759D01*
X156286650Y-124440954D01*
X156286642Y-124440958D01*
X156133397Y-124519040D01*
X155994254Y-124620134D01*
X155994246Y-124620141D01*
X155872641Y-124741746D01*
X155872634Y-124741754D01*
X155771540Y-124880897D01*
X155693458Y-125034142D01*
X155693454Y-125034150D01*
X155640305Y-125197726D01*
X155640305Y-125197727D01*
X155613401Y-125367589D01*
X155613400Y-125367605D01*
X155613400Y-125539594D01*
X155613401Y-125539610D01*
X155640305Y-125709472D01*
X155640305Y-125709473D01*
X155693454Y-125873049D01*
X155693458Y-125873057D01*
X155771540Y-126026302D01*
X155872634Y-126165445D01*
X155872641Y-126165453D01*
X155994246Y-126287058D01*
X155994254Y-126287065D01*
X156133400Y-126388161D01*
X156286649Y-126466245D01*
X156450225Y-126519394D01*
X156521823Y-126530734D01*
X156620089Y-126546298D01*
X156620095Y-126546298D01*
X156620103Y-126546300D01*
X156620105Y-126546300D01*
X156792095Y-126546300D01*
X156792097Y-126546300D01*
X156961975Y-126519394D01*
X157125551Y-126466245D01*
X157278800Y-126388161D01*
X157417946Y-126287065D01*
X157539565Y-126165446D01*
X157640661Y-126026300D01*
X157718745Y-125873051D01*
X157771894Y-125709475D01*
X157798800Y-125539597D01*
X157798800Y-125367605D01*
X158153400Y-125367605D01*
X158153400Y-125539594D01*
X158153401Y-125539610D01*
X158180305Y-125709472D01*
X158180305Y-125709473D01*
X158233454Y-125873049D01*
X158233458Y-125873057D01*
X158311540Y-126026302D01*
X158412634Y-126165445D01*
X158412641Y-126165453D01*
X158534246Y-126287058D01*
X158534254Y-126287065D01*
X158673400Y-126388161D01*
X158826649Y-126466245D01*
X158990225Y-126519394D01*
X159061823Y-126530734D01*
X159160089Y-126546298D01*
X159160095Y-126546298D01*
X159160103Y-126546300D01*
X159160105Y-126546300D01*
X159332095Y-126546300D01*
X159332097Y-126546300D01*
X159501975Y-126519394D01*
X159665551Y-126466245D01*
X159818800Y-126388161D01*
X159957946Y-126287065D01*
X160079565Y-126165446D01*
X160180661Y-126026300D01*
X160258745Y-125873051D01*
X160311894Y-125709475D01*
X160338800Y-125539597D01*
X160338800Y-125385506D01*
X167685600Y-125385506D01*
X167685600Y-125621693D01*
X167722548Y-125854972D01*
X167795531Y-126079590D01*
X167795535Y-126079598D01*
X167902758Y-126290035D01*
X168041582Y-126481109D01*
X168041589Y-126481117D01*
X168208582Y-126648110D01*
X168208590Y-126648117D01*
X168399667Y-126786943D01*
X168610108Y-126894168D01*
X168834732Y-126967153D01*
X169068008Y-127004100D01*
X169068010Y-127004100D01*
X169304190Y-127004100D01*
X169304192Y-127004100D01*
X169537468Y-126967153D01*
X169762092Y-126894168D01*
X169972533Y-126786943D01*
X170163610Y-126648117D01*
X170330617Y-126481110D01*
X170469443Y-126290033D01*
X170576668Y-126079592D01*
X170649653Y-125854968D01*
X170686600Y-125621692D01*
X170686600Y-125385508D01*
X170649653Y-125152232D01*
X170576668Y-124927608D01*
X170469443Y-124717167D01*
X170404294Y-124627498D01*
X170330617Y-124526090D01*
X170330610Y-124526082D01*
X170163617Y-124359089D01*
X170163609Y-124359082D01*
X169972535Y-124220258D01*
X169762098Y-124113035D01*
X169762090Y-124113031D01*
X169537472Y-124040048D01*
X169537470Y-124040047D01*
X169537468Y-124040047D01*
X169324870Y-124006375D01*
X169304193Y-124003100D01*
X169304192Y-124003100D01*
X169068008Y-124003100D01*
X169068006Y-124003100D01*
X168927213Y-124025399D01*
X168834732Y-124040047D01*
X168834730Y-124040047D01*
X168834727Y-124040048D01*
X168610109Y-124113031D01*
X168610101Y-124113035D01*
X168399664Y-124220258D01*
X168208590Y-124359082D01*
X168208582Y-124359089D01*
X168041589Y-124526082D01*
X168041582Y-124526090D01*
X167902758Y-124717164D01*
X167795535Y-124927601D01*
X167795531Y-124927609D01*
X167722548Y-125152227D01*
X167722547Y-125152230D01*
X167722547Y-125152232D01*
X167721554Y-125158500D01*
X167685600Y-125385506D01*
X160338800Y-125385506D01*
X160338800Y-125367603D01*
X160332853Y-125330058D01*
X160311894Y-125197727D01*
X160311894Y-125197726D01*
X160300398Y-125162343D01*
X160258745Y-125034149D01*
X160180661Y-124880900D01*
X160095356Y-124763489D01*
X160079565Y-124741754D01*
X160079558Y-124741746D01*
X159957953Y-124620141D01*
X159957945Y-124620134D01*
X159818802Y-124519040D01*
X159665557Y-124440958D01*
X159665549Y-124440954D01*
X159501973Y-124387805D01*
X159332110Y-124360901D01*
X159332098Y-124360900D01*
X159332097Y-124360900D01*
X159160103Y-124360900D01*
X159160101Y-124360900D01*
X159160089Y-124360901D01*
X158990227Y-124387805D01*
X158990226Y-124387805D01*
X158826650Y-124440954D01*
X158826642Y-124440958D01*
X158673397Y-124519040D01*
X158534254Y-124620134D01*
X158534246Y-124620141D01*
X158412641Y-124741746D01*
X158412634Y-124741754D01*
X158311540Y-124880897D01*
X158233458Y-125034142D01*
X158233454Y-125034150D01*
X158180305Y-125197726D01*
X158180305Y-125197727D01*
X158153401Y-125367589D01*
X158153400Y-125367605D01*
X157798800Y-125367605D01*
X157798800Y-125367603D01*
X157792853Y-125330058D01*
X157771894Y-125197727D01*
X157771894Y-125197726D01*
X157760398Y-125162343D01*
X157718745Y-125034149D01*
X157640661Y-124880900D01*
X157555356Y-124763489D01*
X157539565Y-124741754D01*
X157539558Y-124741746D01*
X157417953Y-124620141D01*
X157417945Y-124620134D01*
X157278802Y-124519040D01*
X157125557Y-124440958D01*
X157125549Y-124440954D01*
X156978386Y-124393138D01*
X156942012Y-124362071D01*
X156935200Y-124333697D01*
X156935200Y-124178029D01*
X156929176Y-124163487D01*
X156920985Y-124143711D01*
X156900322Y-124093825D01*
X156315875Y-123509378D01*
X156256333Y-123484715D01*
X156256332Y-123484714D01*
X156231672Y-123474500D01*
X156231671Y-123474500D01*
X145740529Y-123474500D01*
X145740527Y-123474500D01*
X145656338Y-123509373D01*
X145656325Y-123509379D01*
X145527511Y-123638192D01*
X145483317Y-123656497D01*
X145467141Y-123654367D01*
X145445995Y-123648701D01*
X145445990Y-123648700D01*
X145445989Y-123648700D01*
X145326211Y-123648700D01*
X145326206Y-123648700D01*
X145210514Y-123679701D01*
X145210509Y-123679703D01*
X145106788Y-123739587D01*
X145106779Y-123739594D01*
X145022094Y-123824279D01*
X145022087Y-123824288D01*
X144962203Y-123928009D01*
X144962201Y-123928014D01*
X144931200Y-124043706D01*
X137950203Y-124043706D01*
X137915875Y-124009378D01*
X137908625Y-124006375D01*
X137856333Y-123984715D01*
X137856332Y-123984714D01*
X137831672Y-123974500D01*
X137831671Y-123974500D01*
X136015186Y-123974500D01*
X135970992Y-123956194D01*
X135961060Y-123943250D01*
X135950112Y-123924288D01*
X135950105Y-123924279D01*
X135865420Y-123839594D01*
X135865411Y-123839587D01*
X135846450Y-123828640D01*
X135817330Y-123790690D01*
X135815200Y-123774514D01*
X135815200Y-122202900D01*
X135833506Y-122158706D01*
X135877700Y-122140400D01*
X135892457Y-122140400D01*
X136061853Y-122106705D01*
X136221420Y-122040610D01*
X136365027Y-121944655D01*
X136487155Y-121822527D01*
X136583110Y-121678920D01*
X136649205Y-121519353D01*
X136682900Y-121349957D01*
X136682900Y-121177243D01*
X136669843Y-121111599D01*
X137328296Y-121111599D01*
X137328297Y-121111600D01*
X137887204Y-121111600D01*
X137863500Y-121200065D01*
X137863500Y-121327135D01*
X137887204Y-121415600D01*
X137328297Y-121415600D01*
X137357701Y-121563427D01*
X137357703Y-121563435D01*
X137435186Y-121750493D01*
X137435187Y-121750495D01*
X137547677Y-121918847D01*
X137690852Y-122062022D01*
X137859204Y-122174512D01*
X137859206Y-122174513D01*
X138046264Y-122251996D01*
X138046272Y-122251998D01*
X138194099Y-122281403D01*
X138194100Y-122281402D01*
X138194100Y-121722495D01*
X138282565Y-121746200D01*
X138409635Y-121746200D01*
X138498100Y-121722495D01*
X138498100Y-122281403D01*
X138645927Y-122251998D01*
X138645935Y-122251996D01*
X138832993Y-122174513D01*
X138832995Y-122174512D01*
X139001347Y-122062022D01*
X139144522Y-121918847D01*
X139257012Y-121750495D01*
X139257013Y-121750493D01*
X139334496Y-121563435D01*
X139334498Y-121563427D01*
X139363903Y-121415600D01*
X138804996Y-121415600D01*
X138828700Y-121327135D01*
X138828700Y-121200065D01*
X138822585Y-121177242D01*
X145089300Y-121177242D01*
X145089300Y-121349957D01*
X145122994Y-121519351D01*
X145189090Y-121678920D01*
X145189091Y-121678922D01*
X145285044Y-121822526D01*
X145285045Y-121822527D01*
X145407173Y-121944655D01*
X145550780Y-122040610D01*
X145710347Y-122106705D01*
X145879743Y-122140400D01*
X146052457Y-122140400D01*
X146221853Y-122106705D01*
X146381420Y-122040610D01*
X146525027Y-121944655D01*
X146647155Y-121822527D01*
X146743110Y-121678920D01*
X146809205Y-121519353D01*
X146842900Y-121349957D01*
X146842900Y-121177243D01*
X146809205Y-121007847D01*
X146743110Y-120848280D01*
X146647155Y-120704673D01*
X146525027Y-120582545D01*
X146476365Y-120550030D01*
X146381422Y-120486591D01*
X146381420Y-120486590D01*
X146221851Y-120420494D01*
X146052457Y-120386800D01*
X145879743Y-120386800D01*
X145710348Y-120420494D01*
X145550779Y-120486590D01*
X145550777Y-120486591D01*
X145407173Y-120582544D01*
X145285044Y-120704673D01*
X145189091Y-120848277D01*
X145189090Y-120848279D01*
X145122994Y-121007848D01*
X145089300Y-121177242D01*
X138822585Y-121177242D01*
X138804996Y-121111600D01*
X139363903Y-121111600D01*
X139363903Y-121111599D01*
X139334498Y-120963772D01*
X139334496Y-120963764D01*
X139257013Y-120776706D01*
X139257012Y-120776704D01*
X139144522Y-120608352D01*
X139001347Y-120465177D01*
X138832995Y-120352687D01*
X138832993Y-120352686D01*
X138645925Y-120275200D01*
X138498100Y-120245796D01*
X138498100Y-120804704D01*
X138409635Y-120781000D01*
X138282565Y-120781000D01*
X138194100Y-120804704D01*
X138194100Y-120245796D01*
X138194099Y-120245796D01*
X138046274Y-120275200D01*
X138046273Y-120275200D01*
X137859206Y-120352686D01*
X137859204Y-120352687D01*
X137690852Y-120465177D01*
X137547677Y-120608352D01*
X137435187Y-120776704D01*
X137435186Y-120776706D01*
X137357703Y-120963764D01*
X137357701Y-120963772D01*
X137328296Y-121111599D01*
X136669843Y-121111599D01*
X136649205Y-121007847D01*
X136583110Y-120848280D01*
X136487155Y-120704673D01*
X136365027Y-120582545D01*
X136316365Y-120550030D01*
X136221422Y-120486591D01*
X136221420Y-120486590D01*
X136061851Y-120420494D01*
X135892457Y-120386800D01*
X135719743Y-120386800D01*
X135550348Y-120420494D01*
X135390779Y-120486590D01*
X135390777Y-120486591D01*
X135247173Y-120582544D01*
X135125044Y-120704673D01*
X135029091Y-120848277D01*
X135029090Y-120848279D01*
X134962994Y-121007848D01*
X134929300Y-121177242D01*
X134929300Y-121349957D01*
X134962994Y-121519351D01*
X135029090Y-121678920D01*
X135029091Y-121678922D01*
X135125044Y-121822526D01*
X135247173Y-121944655D01*
X135329223Y-121999478D01*
X135355799Y-122039251D01*
X135357000Y-122051445D01*
X135357000Y-123774514D01*
X135338694Y-123818708D01*
X135325750Y-123828640D01*
X135306788Y-123839587D01*
X135306779Y-123839594D01*
X135222094Y-123924279D01*
X135222087Y-123924288D01*
X135211140Y-123943250D01*
X135173190Y-123972370D01*
X135157014Y-123974500D01*
X131815186Y-123974500D01*
X131770992Y-123956194D01*
X131761060Y-123943250D01*
X131750112Y-123924288D01*
X131750105Y-123924279D01*
X131665420Y-123839594D01*
X131665411Y-123839587D01*
X131561690Y-123779703D01*
X131561685Y-123779701D01*
X131445993Y-123748700D01*
X131445989Y-123748700D01*
X131326211Y-123748700D01*
X131326206Y-123748700D01*
X131210514Y-123779701D01*
X131210509Y-123779703D01*
X131106788Y-123839587D01*
X131106779Y-123839594D01*
X131022094Y-123924279D01*
X131022087Y-123924288D01*
X130962203Y-124028009D01*
X130962201Y-124028014D01*
X130931200Y-124143706D01*
X128822293Y-124143706D01*
X128762092Y-124113032D01*
X128762090Y-124113031D01*
X128537472Y-124040048D01*
X128537470Y-124040047D01*
X128537468Y-124040047D01*
X128324870Y-124006375D01*
X128304193Y-124003100D01*
X128304192Y-124003100D01*
X128068008Y-124003100D01*
X128068006Y-124003100D01*
X127927213Y-124025399D01*
X127834732Y-124040047D01*
X127834730Y-124040047D01*
X127834727Y-124040048D01*
X127610109Y-124113031D01*
X127610101Y-124113035D01*
X127399664Y-124220258D01*
X127208590Y-124359082D01*
X127208582Y-124359089D01*
X127041589Y-124526082D01*
X127041582Y-124526090D01*
X126902758Y-124717164D01*
X126795535Y-124927601D01*
X126795531Y-124927609D01*
X126722548Y-125152227D01*
X126722547Y-125152230D01*
X126722547Y-125152232D01*
X126721554Y-125158500D01*
X126685600Y-125385506D01*
X125211600Y-125385506D01*
X125211600Y-121177242D01*
X129849300Y-121177242D01*
X129849300Y-121349957D01*
X129882994Y-121519351D01*
X129949090Y-121678920D01*
X129949091Y-121678922D01*
X130045044Y-121822526D01*
X130045045Y-121822527D01*
X130167173Y-121944655D01*
X130310780Y-122040610D01*
X130470347Y-122106705D01*
X130639743Y-122140400D01*
X130812457Y-122140400D01*
X130981853Y-122106705D01*
X131141420Y-122040610D01*
X131285027Y-121944655D01*
X131407155Y-121822527D01*
X131503110Y-121678920D01*
X131569205Y-121519353D01*
X131602900Y-121349957D01*
X131602900Y-121177243D01*
X131569205Y-121007847D01*
X131503110Y-120848280D01*
X131407155Y-120704673D01*
X131285027Y-120582545D01*
X131236365Y-120550030D01*
X131141422Y-120486591D01*
X131141420Y-120486590D01*
X130981851Y-120420494D01*
X130812457Y-120386800D01*
X130639743Y-120386800D01*
X130470348Y-120420494D01*
X130310779Y-120486590D01*
X130310777Y-120486591D01*
X130167173Y-120582544D01*
X130045044Y-120704673D01*
X129949091Y-120848277D01*
X129949090Y-120848279D01*
X129882994Y-121007848D01*
X129849300Y-121177242D01*
X125211600Y-121177242D01*
X125211600Y-118637242D01*
X129849300Y-118637242D01*
X129849300Y-118809957D01*
X129882994Y-118979351D01*
X129882995Y-118979353D01*
X129949090Y-119138920D01*
X130045045Y-119282527D01*
X130167173Y-119404655D01*
X130310780Y-119500610D01*
X130470347Y-119566705D01*
X130639743Y-119600400D01*
X130812457Y-119600400D01*
X130981853Y-119566705D01*
X131141420Y-119500610D01*
X131285027Y-119404655D01*
X131407155Y-119282527D01*
X131503110Y-119138920D01*
X131569205Y-118979353D01*
X131602900Y-118809957D01*
X131602900Y-118637243D01*
X131602900Y-118637242D01*
X145089300Y-118637242D01*
X145089300Y-118809957D01*
X145122994Y-118979351D01*
X145122995Y-118979353D01*
X145189090Y-119138920D01*
X145285045Y-119282527D01*
X145407173Y-119404655D01*
X145550780Y-119500610D01*
X145710347Y-119566705D01*
X145879743Y-119600400D01*
X146052457Y-119600400D01*
X146221853Y-119566705D01*
X146381420Y-119500610D01*
X146525027Y-119404655D01*
X146647155Y-119282527D01*
X146743110Y-119138920D01*
X146809205Y-118979353D01*
X146842900Y-118809957D01*
X146842900Y-118637243D01*
X146809205Y-118467847D01*
X146743110Y-118308280D01*
X146647155Y-118164673D01*
X146525027Y-118042545D01*
X146525026Y-118042544D01*
X146381422Y-117946591D01*
X146381420Y-117946590D01*
X146221851Y-117880494D01*
X146052457Y-117846800D01*
X145879743Y-117846800D01*
X145710348Y-117880494D01*
X145550779Y-117946590D01*
X145550777Y-117946591D01*
X145407173Y-118042544D01*
X145285044Y-118164673D01*
X145189091Y-118308277D01*
X145189090Y-118308279D01*
X145122994Y-118467848D01*
X145089300Y-118637242D01*
X131602900Y-118637242D01*
X131569205Y-118467847D01*
X131503110Y-118308280D01*
X131407155Y-118164673D01*
X131285027Y-118042545D01*
X131285026Y-118042544D01*
X131141422Y-117946591D01*
X131141420Y-117946590D01*
X130981851Y-117880494D01*
X130812457Y-117846800D01*
X130639743Y-117846800D01*
X130470348Y-117880494D01*
X130310779Y-117946590D01*
X130310777Y-117946591D01*
X130167173Y-118042544D01*
X130045044Y-118164673D01*
X129949091Y-118308277D01*
X129949090Y-118308279D01*
X129882994Y-118467848D01*
X129849300Y-118637242D01*
X125211600Y-118637242D01*
X125211600Y-113557242D01*
X129849300Y-113557242D01*
X129849300Y-113729957D01*
X129882994Y-113899351D01*
X129949090Y-114058920D01*
X129949091Y-114058922D01*
X130045044Y-114202526D01*
X130045045Y-114202527D01*
X130167173Y-114324655D01*
X130310780Y-114420610D01*
X130470347Y-114486705D01*
X130639743Y-114520400D01*
X130812457Y-114520400D01*
X130981853Y-114486705D01*
X131141420Y-114420610D01*
X131285027Y-114324655D01*
X131407155Y-114202527D01*
X131503110Y-114058920D01*
X131569205Y-113899353D01*
X131602900Y-113729957D01*
X131602900Y-113557243D01*
X131569205Y-113387847D01*
X131503110Y-113228280D01*
X131407155Y-113084673D01*
X131285027Y-112962545D01*
X131144771Y-112868829D01*
X131141422Y-112866591D01*
X131141420Y-112866590D01*
X130981851Y-112800494D01*
X130812457Y-112766800D01*
X130639743Y-112766800D01*
X130470348Y-112800494D01*
X130310779Y-112866590D01*
X130310777Y-112866591D01*
X130167173Y-112962544D01*
X130045044Y-113084673D01*
X129949091Y-113228277D01*
X129949090Y-113228279D01*
X129882994Y-113387848D01*
X129849300Y-113557242D01*
X125211600Y-113557242D01*
X125211600Y-111481599D01*
X126300869Y-111481599D01*
X126300870Y-111481600D01*
X127050908Y-111481600D01*
X127028100Y-111566720D01*
X127028100Y-111700480D01*
X127050908Y-111785600D01*
X126300870Y-111785600D01*
X126322926Y-111924856D01*
X126322927Y-111924859D01*
X126383423Y-112111047D01*
X126383425Y-112111054D01*
X126472310Y-112285497D01*
X126587382Y-112443880D01*
X126587389Y-112443888D01*
X126725811Y-112582310D01*
X126725819Y-112582317D01*
X126884202Y-112697389D01*
X127058645Y-112786274D01*
X127058652Y-112786276D01*
X127244835Y-112846770D01*
X127244848Y-112846773D01*
X127384099Y-112868829D01*
X127384100Y-112868829D01*
X127384100Y-112118792D01*
X127469220Y-112141600D01*
X127602980Y-112141600D01*
X127688100Y-112118792D01*
X127688100Y-112868829D01*
X127827351Y-112846773D01*
X127827364Y-112846770D01*
X128013547Y-112786276D01*
X128013554Y-112786274D01*
X128187997Y-112697389D01*
X128346380Y-112582317D01*
X128346388Y-112582310D01*
X128484810Y-112443888D01*
X128484817Y-112443880D01*
X128599889Y-112285497D01*
X128688774Y-112111054D01*
X128688776Y-112111047D01*
X128749272Y-111924859D01*
X128749273Y-111924856D01*
X128771330Y-111785600D01*
X128021292Y-111785600D01*
X128044100Y-111700480D01*
X128044100Y-111566720D01*
X128021292Y-111481600D01*
X128771330Y-111481600D01*
X128771330Y-111481599D01*
X128749273Y-111342343D01*
X128749272Y-111342340D01*
X128688776Y-111156152D01*
X128688771Y-111156140D01*
X128630894Y-111042550D01*
X128630893Y-111042548D01*
X128617999Y-111017242D01*
X129849300Y-111017242D01*
X129849300Y-111189957D01*
X129882994Y-111359351D01*
X129949090Y-111518920D01*
X130045045Y-111662527D01*
X130167173Y-111784655D01*
X130310780Y-111880610D01*
X130470347Y-111946705D01*
X130639743Y-111980400D01*
X130812457Y-111980400D01*
X130981853Y-111946705D01*
X131141420Y-111880610D01*
X131285027Y-111784655D01*
X131407155Y-111662527D01*
X131503110Y-111518920D01*
X131569205Y-111359353D01*
X131602900Y-111189957D01*
X131602900Y-111017243D01*
X131569205Y-110847847D01*
X131503110Y-110688280D01*
X131407155Y-110544673D01*
X131285027Y-110422545D01*
X131285026Y-110422544D01*
X131141422Y-110326591D01*
X131141420Y-110326590D01*
X130981851Y-110260494D01*
X130812457Y-110226800D01*
X130639743Y-110226800D01*
X130470348Y-110260494D01*
X130310779Y-110326590D01*
X130310777Y-110326591D01*
X130167173Y-110422544D01*
X130045044Y-110544673D01*
X129949091Y-110688277D01*
X129949090Y-110688279D01*
X129882994Y-110847848D01*
X129849300Y-111017242D01*
X128617999Y-111017242D01*
X128599890Y-110981702D01*
X128484817Y-110823319D01*
X128484810Y-110823311D01*
X128346388Y-110684889D01*
X128346380Y-110684882D01*
X128187997Y-110569810D01*
X128013554Y-110480925D01*
X128013547Y-110480923D01*
X127827359Y-110420427D01*
X127827356Y-110420426D01*
X127688100Y-110398369D01*
X127688100Y-111148407D01*
X127602980Y-111125600D01*
X127469220Y-111125600D01*
X127384100Y-111148407D01*
X127384100Y-110398369D01*
X127384099Y-110398369D01*
X127244843Y-110420426D01*
X127244840Y-110420427D01*
X127058652Y-110480923D01*
X127058645Y-110480925D01*
X126884202Y-110569810D01*
X126725819Y-110684882D01*
X126725811Y-110684889D01*
X126587389Y-110823311D01*
X126587382Y-110823319D01*
X126472310Y-110981702D01*
X126383425Y-111156145D01*
X126383423Y-111156152D01*
X126322927Y-111342340D01*
X126322926Y-111342343D01*
X126300869Y-111481599D01*
X125211600Y-111481599D01*
X125211600Y-109007605D01*
X126443400Y-109007605D01*
X126443400Y-109179594D01*
X126443401Y-109179610D01*
X126470305Y-109349472D01*
X126470305Y-109349473D01*
X126523454Y-109513049D01*
X126523458Y-109513057D01*
X126601540Y-109666302D01*
X126702634Y-109805445D01*
X126702641Y-109805453D01*
X126824246Y-109927058D01*
X126824254Y-109927065D01*
X126963400Y-110028161D01*
X127116649Y-110106245D01*
X127280225Y-110159394D01*
X127351823Y-110170734D01*
X127450089Y-110186298D01*
X127450095Y-110186298D01*
X127450103Y-110186300D01*
X127450105Y-110186300D01*
X127622095Y-110186300D01*
X127622097Y-110186300D01*
X127791975Y-110159394D01*
X127955551Y-110106245D01*
X128108800Y-110028161D01*
X128247946Y-109927065D01*
X128369565Y-109805446D01*
X128470661Y-109666300D01*
X128548745Y-109513051D01*
X128601894Y-109349475D01*
X128628800Y-109179597D01*
X128628800Y-109007603D01*
X128624257Y-108978922D01*
X128601894Y-108837727D01*
X128601894Y-108837726D01*
X128595925Y-108819353D01*
X128548745Y-108674149D01*
X128470661Y-108520900D01*
X128438941Y-108477242D01*
X129849300Y-108477242D01*
X129849300Y-108649957D01*
X129882994Y-108819351D01*
X129949090Y-108978920D01*
X129949091Y-108978922D01*
X130045044Y-109122526D01*
X130045045Y-109122527D01*
X130167173Y-109244655D01*
X130310780Y-109340610D01*
X130470347Y-109406705D01*
X130639743Y-109440400D01*
X130812457Y-109440400D01*
X130981853Y-109406705D01*
X131141420Y-109340610D01*
X131285027Y-109244655D01*
X131407155Y-109122527D01*
X131503110Y-108978920D01*
X131569205Y-108819353D01*
X131602900Y-108649957D01*
X131602900Y-108477243D01*
X131569205Y-108307847D01*
X131503110Y-108148280D01*
X131407155Y-108004673D01*
X131285027Y-107882545D01*
X131285026Y-107882544D01*
X131141422Y-107786591D01*
X131141420Y-107786590D01*
X130981851Y-107720494D01*
X130812457Y-107686800D01*
X130639743Y-107686800D01*
X130470348Y-107720494D01*
X130310779Y-107786590D01*
X130310777Y-107786591D01*
X130167173Y-107882544D01*
X130045044Y-108004673D01*
X129949091Y-108148277D01*
X129949090Y-108148279D01*
X129882994Y-108307848D01*
X129849300Y-108477242D01*
X128438941Y-108477242D01*
X128369565Y-108381754D01*
X128369558Y-108381746D01*
X128247953Y-108260141D01*
X128247945Y-108260134D01*
X128108802Y-108159040D01*
X127955557Y-108080958D01*
X127955549Y-108080954D01*
X127791973Y-108027805D01*
X127622110Y-108000901D01*
X127622098Y-108000900D01*
X127622097Y-108000900D01*
X127450103Y-108000900D01*
X127450101Y-108000900D01*
X127450089Y-108000901D01*
X127280227Y-108027805D01*
X127280226Y-108027805D01*
X127116650Y-108080954D01*
X127116642Y-108080958D01*
X126963397Y-108159040D01*
X126824254Y-108260134D01*
X126824246Y-108260141D01*
X126702641Y-108381746D01*
X126702634Y-108381754D01*
X126601540Y-108520897D01*
X126523458Y-108674142D01*
X126523454Y-108674150D01*
X126470305Y-108837726D01*
X126470305Y-108837727D01*
X126443401Y-109007589D01*
X126443400Y-109007605D01*
X125211600Y-109007605D01*
X125211600Y-106467605D01*
X126443400Y-106467605D01*
X126443400Y-106639594D01*
X126443401Y-106639610D01*
X126470305Y-106809472D01*
X126470305Y-106809473D01*
X126523454Y-106973049D01*
X126523458Y-106973057D01*
X126601540Y-107126302D01*
X126702634Y-107265445D01*
X126702641Y-107265453D01*
X126824246Y-107387058D01*
X126824254Y-107387065D01*
X126963400Y-107488161D01*
X127116649Y-107566245D01*
X127280225Y-107619394D01*
X127351823Y-107630734D01*
X127450089Y-107646298D01*
X127450095Y-107646298D01*
X127450103Y-107646300D01*
X127450105Y-107646300D01*
X127622095Y-107646300D01*
X127622097Y-107646300D01*
X127791975Y-107619394D01*
X127955551Y-107566245D01*
X128108800Y-107488161D01*
X128247946Y-107387065D01*
X128369565Y-107265446D01*
X128470661Y-107126300D01*
X128548745Y-106973051D01*
X128601894Y-106809475D01*
X128628800Y-106639597D01*
X128628800Y-106467603D01*
X128624257Y-106438922D01*
X128601894Y-106297727D01*
X128601894Y-106297726D01*
X128595925Y-106279353D01*
X128548745Y-106134149D01*
X128470661Y-105980900D01*
X128438941Y-105937242D01*
X129849300Y-105937242D01*
X129849300Y-106109957D01*
X129882994Y-106279351D01*
X129949090Y-106438920D01*
X129949091Y-106438922D01*
X130045044Y-106582526D01*
X130045045Y-106582527D01*
X130167173Y-106704655D01*
X130310780Y-106800610D01*
X130470347Y-106866705D01*
X130639743Y-106900400D01*
X130812457Y-106900400D01*
X130981853Y-106866705D01*
X131141420Y-106800610D01*
X131285027Y-106704655D01*
X131407155Y-106582527D01*
X131503110Y-106438920D01*
X131569205Y-106279353D01*
X131602900Y-106109957D01*
X131602900Y-105937243D01*
X131569205Y-105767847D01*
X131503110Y-105608280D01*
X131407155Y-105464673D01*
X131285027Y-105342545D01*
X131285026Y-105342544D01*
X131141422Y-105246591D01*
X131141420Y-105246590D01*
X130981851Y-105180494D01*
X130812457Y-105146800D01*
X130639743Y-105146800D01*
X130470348Y-105180494D01*
X130310779Y-105246590D01*
X130310777Y-105246591D01*
X130167173Y-105342544D01*
X130045044Y-105464673D01*
X129949091Y-105608277D01*
X129949090Y-105608279D01*
X129882994Y-105767848D01*
X129849300Y-105937242D01*
X128438941Y-105937242D01*
X128369565Y-105841754D01*
X128369558Y-105841746D01*
X128247953Y-105720141D01*
X128247945Y-105720134D01*
X128108802Y-105619040D01*
X127955557Y-105540958D01*
X127955549Y-105540954D01*
X127791973Y-105487805D01*
X127622110Y-105460901D01*
X127622098Y-105460900D01*
X127622097Y-105460900D01*
X127450103Y-105460900D01*
X127450101Y-105460900D01*
X127450089Y-105460901D01*
X127280227Y-105487805D01*
X127280226Y-105487805D01*
X127116650Y-105540954D01*
X127116642Y-105540958D01*
X126963397Y-105619040D01*
X126824254Y-105720134D01*
X126824246Y-105720141D01*
X126702641Y-105841746D01*
X126702634Y-105841754D01*
X126601540Y-105980897D01*
X126523458Y-106134142D01*
X126523454Y-106134150D01*
X126470305Y-106297726D01*
X126470305Y-106297727D01*
X126443401Y-106467589D01*
X126443400Y-106467605D01*
X125211600Y-106467605D01*
X125211600Y-103927605D01*
X126443400Y-103927605D01*
X126443400Y-104099594D01*
X126443401Y-104099610D01*
X126470305Y-104269472D01*
X126470305Y-104269473D01*
X126523454Y-104433049D01*
X126523458Y-104433057D01*
X126601540Y-104586302D01*
X126702634Y-104725445D01*
X126702641Y-104725453D01*
X126824246Y-104847058D01*
X126824254Y-104847065D01*
X126963400Y-104948161D01*
X127116649Y-105026245D01*
X127280225Y-105079394D01*
X127351823Y-105090734D01*
X127450089Y-105106298D01*
X127450095Y-105106298D01*
X127450103Y-105106300D01*
X127450105Y-105106300D01*
X127622095Y-105106300D01*
X127622097Y-105106300D01*
X127791975Y-105079394D01*
X127955551Y-105026245D01*
X128108800Y-104948161D01*
X128247946Y-104847065D01*
X128369565Y-104725446D01*
X128470661Y-104586300D01*
X128548745Y-104433051D01*
X128601894Y-104269475D01*
X128628800Y-104099597D01*
X128628800Y-103927603D01*
X128624257Y-103898922D01*
X128601894Y-103757727D01*
X128601894Y-103757726D01*
X128601894Y-103757725D01*
X128556226Y-103617173D01*
X128559979Y-103569489D01*
X128571470Y-103553672D01*
X129596338Y-102528806D01*
X129640532Y-102510500D01*
X130489303Y-102510500D01*
X130533497Y-102528806D01*
X130551803Y-102573000D01*
X130533497Y-102617194D01*
X130501496Y-102634299D01*
X130470348Y-102640494D01*
X130310779Y-102706590D01*
X130310777Y-102706591D01*
X130167173Y-102802544D01*
X130045044Y-102924673D01*
X129949091Y-103068277D01*
X129949090Y-103068279D01*
X129882994Y-103227848D01*
X129849300Y-103397242D01*
X129849300Y-103569957D01*
X129882994Y-103739351D01*
X129949090Y-103898920D01*
X129949091Y-103898922D01*
X130045044Y-104042526D01*
X130045045Y-104042527D01*
X130167173Y-104164655D01*
X130310780Y-104260610D01*
X130470347Y-104326705D01*
X130639743Y-104360400D01*
X130812457Y-104360400D01*
X130981853Y-104326705D01*
X131141420Y-104260610D01*
X131285027Y-104164655D01*
X131407155Y-104042527D01*
X131503110Y-103898920D01*
X131569205Y-103739353D01*
X131602900Y-103569957D01*
X131602900Y-103397243D01*
X131569205Y-103227847D01*
X131503110Y-103068280D01*
X131407155Y-102924673D01*
X131285027Y-102802545D01*
X131285026Y-102802544D01*
X131141422Y-102706591D01*
X131141420Y-102706590D01*
X130981851Y-102640494D01*
X130950704Y-102634299D01*
X130910930Y-102607723D01*
X130901598Y-102560807D01*
X130928174Y-102521033D01*
X130962897Y-102510500D01*
X131743700Y-102510500D01*
X131787894Y-102528806D01*
X131806200Y-102573000D01*
X131806200Y-114061774D01*
X131787894Y-114105968D01*
X131188468Y-114705394D01*
X131144274Y-114723700D01*
X129875413Y-114723700D01*
X129831219Y-114705394D01*
X129765419Y-114639594D01*
X129765415Y-114639590D01*
X129765413Y-114639589D01*
X129765411Y-114639587D01*
X129661690Y-114579703D01*
X129661685Y-114579701D01*
X129545993Y-114548700D01*
X129545989Y-114548700D01*
X129426211Y-114548700D01*
X129426206Y-114548700D01*
X129310514Y-114579701D01*
X129310509Y-114579703D01*
X129206788Y-114639587D01*
X129206779Y-114639594D01*
X129122094Y-114724279D01*
X129122087Y-114724288D01*
X129062203Y-114828009D01*
X129062201Y-114828014D01*
X129031200Y-114943706D01*
X129031200Y-115063493D01*
X129062201Y-115179185D01*
X129062203Y-115179190D01*
X129122087Y-115282911D01*
X129122094Y-115282920D01*
X129206779Y-115367605D01*
X129206788Y-115367612D01*
X129310509Y-115427496D01*
X129310511Y-115427497D01*
X129310515Y-115427499D01*
X129389531Y-115448671D01*
X129426206Y-115458499D01*
X129426208Y-115458499D01*
X129426211Y-115458500D01*
X129426213Y-115458500D01*
X129545987Y-115458500D01*
X129545989Y-115458500D01*
X129661685Y-115427499D01*
X129765415Y-115367610D01*
X129831219Y-115301806D01*
X129875413Y-115283500D01*
X130293738Y-115283500D01*
X130337932Y-115301806D01*
X130356238Y-115346000D01*
X130337932Y-115390194D01*
X130317659Y-115403740D01*
X130314506Y-115405046D01*
X130310776Y-115406591D01*
X130167173Y-115502544D01*
X130045044Y-115624673D01*
X129949091Y-115768277D01*
X129949090Y-115768279D01*
X129882994Y-115927848D01*
X129849300Y-116097242D01*
X129849300Y-116269957D01*
X129882994Y-116439351D01*
X129882995Y-116439353D01*
X129949090Y-116598920D01*
X130045045Y-116742527D01*
X130167173Y-116864655D01*
X130310780Y-116960610D01*
X130470347Y-117026705D01*
X130639743Y-117060400D01*
X130812457Y-117060400D01*
X130981853Y-117026705D01*
X131141420Y-116960610D01*
X131285027Y-116864655D01*
X131407155Y-116742527D01*
X131503110Y-116598920D01*
X131569205Y-116439353D01*
X131602900Y-116269957D01*
X131602900Y-116097243D01*
X131602900Y-116097242D01*
X132389300Y-116097242D01*
X132389300Y-116269957D01*
X132422994Y-116439351D01*
X132422995Y-116439353D01*
X132489090Y-116598920D01*
X132585045Y-116742527D01*
X132707173Y-116864655D01*
X132850780Y-116960610D01*
X133010347Y-117026705D01*
X133179743Y-117060400D01*
X133352457Y-117060400D01*
X133521853Y-117026705D01*
X133681420Y-116960610D01*
X133825027Y-116864655D01*
X133947155Y-116742527D01*
X134043110Y-116598920D01*
X134109205Y-116439353D01*
X134142900Y-116269957D01*
X134142900Y-116097243D01*
X134142900Y-116097242D01*
X134929300Y-116097242D01*
X134929300Y-116269957D01*
X134962994Y-116439351D01*
X134962995Y-116439353D01*
X135029090Y-116598920D01*
X135125045Y-116742527D01*
X135247173Y-116864655D01*
X135390780Y-116960610D01*
X135550347Y-117026705D01*
X135719743Y-117060400D01*
X135892457Y-117060400D01*
X136061853Y-117026705D01*
X136221420Y-116960610D01*
X136365027Y-116864655D01*
X136487155Y-116742527D01*
X136583110Y-116598920D01*
X136649205Y-116439353D01*
X136682900Y-116269957D01*
X136682900Y-116097243D01*
X136682900Y-116097242D01*
X137469300Y-116097242D01*
X137469300Y-116269957D01*
X137502994Y-116439351D01*
X137502995Y-116439353D01*
X137569090Y-116598920D01*
X137665045Y-116742527D01*
X137787173Y-116864655D01*
X137930780Y-116960610D01*
X138090347Y-117026705D01*
X138259743Y-117060400D01*
X138432457Y-117060400D01*
X138601853Y-117026705D01*
X138761420Y-116960610D01*
X138905027Y-116864655D01*
X139027155Y-116742527D01*
X139123110Y-116598920D01*
X139189205Y-116439353D01*
X139222900Y-116269957D01*
X139222900Y-116097243D01*
X139222900Y-116097242D01*
X140009300Y-116097242D01*
X140009300Y-116269957D01*
X140042994Y-116439351D01*
X140042995Y-116439353D01*
X140109090Y-116598920D01*
X140205045Y-116742527D01*
X140327173Y-116864655D01*
X140470780Y-116960610D01*
X140630347Y-117026705D01*
X140799743Y-117060400D01*
X140972457Y-117060400D01*
X141141853Y-117026705D01*
X141301420Y-116960610D01*
X141445027Y-116864655D01*
X141567155Y-116742527D01*
X141663110Y-116598920D01*
X141729205Y-116439353D01*
X141762900Y-116269957D01*
X141762900Y-116097243D01*
X141762900Y-116097242D01*
X142549300Y-116097242D01*
X142549300Y-116269957D01*
X142582994Y-116439351D01*
X142582995Y-116439353D01*
X142649090Y-116598920D01*
X142745045Y-116742527D01*
X142867173Y-116864655D01*
X143010780Y-116960610D01*
X143170347Y-117026705D01*
X143339743Y-117060400D01*
X143512457Y-117060400D01*
X143681853Y-117026705D01*
X143841420Y-116960610D01*
X143985027Y-116864655D01*
X144107155Y-116742527D01*
X144203110Y-116598920D01*
X144269205Y-116439353D01*
X144302900Y-116269957D01*
X144302900Y-116097243D01*
X144302900Y-116097242D01*
X145089300Y-116097242D01*
X145089300Y-116269957D01*
X145122994Y-116439351D01*
X145122995Y-116439353D01*
X145189090Y-116598920D01*
X145285045Y-116742527D01*
X145407173Y-116864655D01*
X145550780Y-116960610D01*
X145710347Y-117026705D01*
X145879743Y-117060400D01*
X146052457Y-117060400D01*
X146221853Y-117026705D01*
X146381420Y-116960610D01*
X146525027Y-116864655D01*
X146647155Y-116742527D01*
X146743110Y-116598920D01*
X146809205Y-116439353D01*
X146842900Y-116269957D01*
X146842900Y-116097243D01*
X146809205Y-115927847D01*
X146743110Y-115768280D01*
X146647155Y-115624673D01*
X146525027Y-115502545D01*
X146459109Y-115458500D01*
X146381422Y-115406591D01*
X146381420Y-115406590D01*
X146221851Y-115340494D01*
X146052457Y-115306800D01*
X145879743Y-115306800D01*
X145710348Y-115340494D01*
X145550779Y-115406590D01*
X145550777Y-115406591D01*
X145407173Y-115502544D01*
X145285044Y-115624673D01*
X145189091Y-115768277D01*
X145189090Y-115768279D01*
X145122994Y-115927848D01*
X145089300Y-116097242D01*
X144302900Y-116097242D01*
X144269205Y-115927847D01*
X144203110Y-115768280D01*
X144107155Y-115624673D01*
X143985027Y-115502545D01*
X143919109Y-115458500D01*
X143841422Y-115406591D01*
X143841420Y-115406590D01*
X143681851Y-115340494D01*
X143512457Y-115306800D01*
X143339743Y-115306800D01*
X143170348Y-115340494D01*
X143010779Y-115406590D01*
X143010777Y-115406591D01*
X142867173Y-115502544D01*
X142745044Y-115624673D01*
X142649091Y-115768277D01*
X142649090Y-115768279D01*
X142582994Y-115927848D01*
X142549300Y-116097242D01*
X141762900Y-116097242D01*
X141729205Y-115927847D01*
X141663110Y-115768280D01*
X141567155Y-115624673D01*
X141445027Y-115502545D01*
X141379109Y-115458500D01*
X141301422Y-115406591D01*
X141301420Y-115406590D01*
X141141851Y-115340494D01*
X140972457Y-115306800D01*
X140799743Y-115306800D01*
X140630348Y-115340494D01*
X140470779Y-115406590D01*
X140470777Y-115406591D01*
X140327173Y-115502544D01*
X140205044Y-115624673D01*
X140109091Y-115768277D01*
X140109090Y-115768279D01*
X140042994Y-115927848D01*
X140009300Y-116097242D01*
X139222900Y-116097242D01*
X139189205Y-115927847D01*
X139123110Y-115768280D01*
X139027155Y-115624673D01*
X138905027Y-115502545D01*
X138839109Y-115458500D01*
X138761422Y-115406591D01*
X138761420Y-115406590D01*
X138601851Y-115340494D01*
X138432457Y-115306800D01*
X138259743Y-115306800D01*
X138090348Y-115340494D01*
X137930779Y-115406590D01*
X137930777Y-115406591D01*
X137787173Y-115502544D01*
X137665044Y-115624673D01*
X137569091Y-115768277D01*
X137569090Y-115768279D01*
X137502994Y-115927848D01*
X137469300Y-116097242D01*
X136682900Y-116097242D01*
X136649205Y-115927847D01*
X136583110Y-115768280D01*
X136487155Y-115624673D01*
X136365027Y-115502545D01*
X136299109Y-115458500D01*
X136221422Y-115406591D01*
X136221420Y-115406590D01*
X136061851Y-115340494D01*
X135892457Y-115306800D01*
X135719743Y-115306800D01*
X135550348Y-115340494D01*
X135390779Y-115406590D01*
X135390777Y-115406591D01*
X135247173Y-115502544D01*
X135125044Y-115624673D01*
X135029091Y-115768277D01*
X135029090Y-115768279D01*
X134962994Y-115927848D01*
X134929300Y-116097242D01*
X134142900Y-116097242D01*
X134109205Y-115927847D01*
X134043110Y-115768280D01*
X133947155Y-115624673D01*
X133825027Y-115502545D01*
X133759109Y-115458500D01*
X133681422Y-115406591D01*
X133681420Y-115406590D01*
X133521851Y-115340494D01*
X133352457Y-115306800D01*
X133179743Y-115306800D01*
X133010348Y-115340494D01*
X132850779Y-115406590D01*
X132850777Y-115406591D01*
X132707173Y-115502544D01*
X132585044Y-115624673D01*
X132489091Y-115768277D01*
X132489090Y-115768279D01*
X132422994Y-115927848D01*
X132389300Y-116097242D01*
X131602900Y-116097242D01*
X131569205Y-115927847D01*
X131503110Y-115768280D01*
X131407155Y-115624673D01*
X131285027Y-115502545D01*
X131285026Y-115502544D01*
X131141423Y-115406591D01*
X131139329Y-115405723D01*
X131134542Y-115403741D01*
X131100719Y-115369917D01*
X131100720Y-115322081D01*
X131134545Y-115288257D01*
X131158462Y-115283500D01*
X131322950Y-115283500D01*
X131322955Y-115283499D01*
X131344102Y-115277832D01*
X131394137Y-115264425D01*
X131457962Y-115227576D01*
X132310076Y-114375462D01*
X132346925Y-114311637D01*
X132366000Y-114240450D01*
X132366000Y-114166750D01*
X132366000Y-114075961D01*
X132384306Y-114031767D01*
X132428500Y-114013461D01*
X132472694Y-114031767D01*
X132486241Y-114052042D01*
X132489090Y-114058920D01*
X132489091Y-114058922D01*
X132585044Y-114202526D01*
X132585045Y-114202527D01*
X132707173Y-114324655D01*
X132850780Y-114420610D01*
X133010347Y-114486705D01*
X133179743Y-114520400D01*
X133352457Y-114520400D01*
X133521853Y-114486705D01*
X133681420Y-114420610D01*
X133825027Y-114324655D01*
X133947155Y-114202527D01*
X134043110Y-114058920D01*
X134109205Y-113899353D01*
X134142900Y-113729957D01*
X134142900Y-113557243D01*
X134142900Y-113557242D01*
X134929300Y-113557242D01*
X134929300Y-113729957D01*
X134962994Y-113899351D01*
X135029090Y-114058920D01*
X135029091Y-114058922D01*
X135125044Y-114202526D01*
X135125045Y-114202527D01*
X135247173Y-114324655D01*
X135390780Y-114420610D01*
X135550347Y-114486705D01*
X135719743Y-114520400D01*
X135892457Y-114520400D01*
X136061853Y-114486705D01*
X136221420Y-114420610D01*
X136365027Y-114324655D01*
X136487155Y-114202527D01*
X136583110Y-114058920D01*
X136649205Y-113899353D01*
X136682900Y-113729957D01*
X136682900Y-113557243D01*
X136682900Y-113557242D01*
X137469300Y-113557242D01*
X137469300Y-113729957D01*
X137502994Y-113899351D01*
X137569090Y-114058920D01*
X137569091Y-114058922D01*
X137665044Y-114202526D01*
X137665045Y-114202527D01*
X137787173Y-114324655D01*
X137930780Y-114420610D01*
X138090347Y-114486705D01*
X138259743Y-114520400D01*
X138432457Y-114520400D01*
X138601853Y-114486705D01*
X138761420Y-114420610D01*
X138905027Y-114324655D01*
X139027155Y-114202527D01*
X139123110Y-114058920D01*
X139189205Y-113899353D01*
X139222900Y-113729957D01*
X139222900Y-113557243D01*
X139222900Y-113557242D01*
X140009300Y-113557242D01*
X140009300Y-113729957D01*
X140042994Y-113899351D01*
X140109090Y-114058920D01*
X140109091Y-114058922D01*
X140205044Y-114202526D01*
X140205045Y-114202527D01*
X140327173Y-114324655D01*
X140470780Y-114420610D01*
X140630347Y-114486705D01*
X140799743Y-114520400D01*
X140972457Y-114520400D01*
X141141853Y-114486705D01*
X141301420Y-114420610D01*
X141445027Y-114324655D01*
X141567155Y-114202527D01*
X141663110Y-114058920D01*
X141729205Y-113899353D01*
X141762900Y-113729957D01*
X141762900Y-113557243D01*
X141762900Y-113557242D01*
X142549300Y-113557242D01*
X142549300Y-113729957D01*
X142582994Y-113899351D01*
X142649090Y-114058920D01*
X142649091Y-114058922D01*
X142745044Y-114202526D01*
X142745045Y-114202527D01*
X142867173Y-114324655D01*
X143010780Y-114420610D01*
X143170347Y-114486705D01*
X143339743Y-114520400D01*
X143512457Y-114520400D01*
X143681853Y-114486705D01*
X143841420Y-114420610D01*
X143985027Y-114324655D01*
X144107155Y-114202527D01*
X144203110Y-114058920D01*
X144269205Y-113899353D01*
X144302900Y-113729957D01*
X144302900Y-113557243D01*
X144302900Y-113557242D01*
X145089300Y-113557242D01*
X145089300Y-113729957D01*
X145122994Y-113899351D01*
X145189090Y-114058920D01*
X145189091Y-114058922D01*
X145285044Y-114202526D01*
X145285045Y-114202527D01*
X145407173Y-114324655D01*
X145550780Y-114420610D01*
X145710347Y-114486705D01*
X145879743Y-114520400D01*
X146052457Y-114520400D01*
X146221853Y-114486705D01*
X146381420Y-114420610D01*
X146525027Y-114324655D01*
X146647155Y-114202527D01*
X146743110Y-114058920D01*
X146809205Y-113899353D01*
X146842900Y-113729957D01*
X146842900Y-113557243D01*
X146809205Y-113387847D01*
X146743110Y-113228280D01*
X146647155Y-113084673D01*
X146525027Y-112962545D01*
X146384771Y-112868829D01*
X146381422Y-112866591D01*
X146381420Y-112866590D01*
X146221851Y-112800494D01*
X146052457Y-112766800D01*
X145879743Y-112766800D01*
X145710348Y-112800494D01*
X145550779Y-112866590D01*
X145550777Y-112866591D01*
X145407173Y-112962544D01*
X145285044Y-113084673D01*
X145189091Y-113228277D01*
X145189090Y-113228279D01*
X145122994Y-113387848D01*
X145089300Y-113557242D01*
X144302900Y-113557242D01*
X144269205Y-113387847D01*
X144203110Y-113228280D01*
X144107155Y-113084673D01*
X143985027Y-112962545D01*
X143844771Y-112868829D01*
X143841422Y-112866591D01*
X143841420Y-112866590D01*
X143681851Y-112800494D01*
X143512457Y-112766800D01*
X143339743Y-112766800D01*
X143170348Y-112800494D01*
X143010779Y-112866590D01*
X143010777Y-112866591D01*
X142867173Y-112962544D01*
X142745044Y-113084673D01*
X142649091Y-113228277D01*
X142649090Y-113228279D01*
X142582994Y-113387848D01*
X142549300Y-113557242D01*
X141762900Y-113557242D01*
X141729205Y-113387847D01*
X141663110Y-113228280D01*
X141567155Y-113084673D01*
X141445027Y-112962545D01*
X141304771Y-112868829D01*
X141301422Y-112866591D01*
X141301420Y-112866590D01*
X141141851Y-112800494D01*
X140972457Y-112766800D01*
X140799743Y-112766800D01*
X140630348Y-112800494D01*
X140470779Y-112866590D01*
X140470777Y-112866591D01*
X140327173Y-112962544D01*
X140205044Y-113084673D01*
X140109091Y-113228277D01*
X140109090Y-113228279D01*
X140042994Y-113387848D01*
X140009300Y-113557242D01*
X139222900Y-113557242D01*
X139189205Y-113387847D01*
X139123110Y-113228280D01*
X139027155Y-113084673D01*
X138905027Y-112962545D01*
X138764771Y-112868829D01*
X138761422Y-112866591D01*
X138761420Y-112866590D01*
X138601851Y-112800494D01*
X138432457Y-112766800D01*
X138259743Y-112766800D01*
X138090348Y-112800494D01*
X137930779Y-112866590D01*
X137930777Y-112866591D01*
X137787173Y-112962544D01*
X137665044Y-113084673D01*
X137569091Y-113228277D01*
X137569090Y-113228279D01*
X137502994Y-113387848D01*
X137469300Y-113557242D01*
X136682900Y-113557242D01*
X136649205Y-113387847D01*
X136583110Y-113228280D01*
X136487155Y-113084673D01*
X136365027Y-112962545D01*
X136224771Y-112868829D01*
X136221422Y-112866591D01*
X136221420Y-112866590D01*
X136061851Y-112800494D01*
X135892457Y-112766800D01*
X135719743Y-112766800D01*
X135550348Y-112800494D01*
X135390779Y-112866590D01*
X135390777Y-112866591D01*
X135247173Y-112962544D01*
X135125044Y-113084673D01*
X135029091Y-113228277D01*
X135029090Y-113228279D01*
X134962994Y-113387848D01*
X134929300Y-113557242D01*
X134142900Y-113557242D01*
X134109205Y-113387847D01*
X134043110Y-113228280D01*
X133947155Y-113084673D01*
X133825027Y-112962545D01*
X133684771Y-112868829D01*
X133681422Y-112866591D01*
X133681420Y-112866590D01*
X133521851Y-112800494D01*
X133352457Y-112766800D01*
X133179743Y-112766800D01*
X133010348Y-112800494D01*
X132850779Y-112866590D01*
X132850777Y-112866591D01*
X132707173Y-112962544D01*
X132585044Y-113084673D01*
X132489091Y-113228276D01*
X132487546Y-113232006D01*
X132486241Y-113235157D01*
X132452417Y-113268981D01*
X132404581Y-113268980D01*
X132370757Y-113235155D01*
X132366000Y-113211238D01*
X132366000Y-111017242D01*
X145089300Y-111017242D01*
X145089300Y-111189957D01*
X145122994Y-111359351D01*
X145189090Y-111518920D01*
X145285045Y-111662527D01*
X145407173Y-111784655D01*
X145550780Y-111880610D01*
X145710347Y-111946705D01*
X145879743Y-111980400D01*
X146052457Y-111980400D01*
X146221853Y-111946705D01*
X146381420Y-111880610D01*
X146525027Y-111784655D01*
X146647155Y-111662527D01*
X146743110Y-111518920D01*
X146809205Y-111359353D01*
X146842900Y-111189957D01*
X146842900Y-111017243D01*
X146809205Y-110847847D01*
X146743110Y-110688280D01*
X146647155Y-110544673D01*
X146525027Y-110422545D01*
X146525026Y-110422544D01*
X146381422Y-110326591D01*
X146381420Y-110326590D01*
X146221851Y-110260494D01*
X146052457Y-110226800D01*
X145879743Y-110226800D01*
X145710348Y-110260494D01*
X145550779Y-110326590D01*
X145550777Y-110326591D01*
X145407173Y-110422544D01*
X145285044Y-110544673D01*
X145189091Y-110688277D01*
X145189090Y-110688279D01*
X145122994Y-110847848D01*
X145089300Y-111017242D01*
X132366000Y-111017242D01*
X132366000Y-108477242D01*
X145089300Y-108477242D01*
X145089300Y-108649957D01*
X145122994Y-108819351D01*
X145189090Y-108978920D01*
X145189091Y-108978922D01*
X145285044Y-109122526D01*
X145285045Y-109122527D01*
X145407173Y-109244655D01*
X145550780Y-109340610D01*
X145710347Y-109406705D01*
X145879743Y-109440400D01*
X146052457Y-109440400D01*
X146221853Y-109406705D01*
X146381420Y-109340610D01*
X146525027Y-109244655D01*
X146647155Y-109122527D01*
X146743110Y-108978920D01*
X146809205Y-108819353D01*
X146842900Y-108649957D01*
X146842900Y-108477243D01*
X146809205Y-108307847D01*
X146743110Y-108148280D01*
X146647155Y-108004673D01*
X146525027Y-107882545D01*
X146525026Y-107882544D01*
X146381422Y-107786591D01*
X146381420Y-107786590D01*
X146221851Y-107720494D01*
X146052457Y-107686800D01*
X145879743Y-107686800D01*
X145710348Y-107720494D01*
X145550779Y-107786590D01*
X145550777Y-107786591D01*
X145407173Y-107882544D01*
X145285044Y-108004673D01*
X145189091Y-108148277D01*
X145189090Y-108148279D01*
X145122994Y-108307848D01*
X145089300Y-108477242D01*
X132366000Y-108477242D01*
X132366000Y-105937242D01*
X145089300Y-105937242D01*
X145089300Y-106109957D01*
X145122994Y-106279351D01*
X145189090Y-106438920D01*
X145189091Y-106438922D01*
X145285044Y-106582526D01*
X145285045Y-106582527D01*
X145407173Y-106704655D01*
X145550780Y-106800610D01*
X145710347Y-106866705D01*
X145879743Y-106900400D01*
X146052457Y-106900400D01*
X146221853Y-106866705D01*
X146381420Y-106800610D01*
X146525027Y-106704655D01*
X146647155Y-106582527D01*
X146743110Y-106438920D01*
X146809205Y-106279353D01*
X146842900Y-106109957D01*
X146842900Y-105937243D01*
X146809205Y-105767847D01*
X146743110Y-105608280D01*
X146647155Y-105464673D01*
X146525027Y-105342545D01*
X146525026Y-105342544D01*
X146381422Y-105246591D01*
X146381420Y-105246590D01*
X146221851Y-105180494D01*
X146052457Y-105146800D01*
X145879743Y-105146800D01*
X145710348Y-105180494D01*
X145550779Y-105246590D01*
X145550777Y-105246591D01*
X145407173Y-105342544D01*
X145285044Y-105464673D01*
X145189091Y-105608277D01*
X145189090Y-105608279D01*
X145122994Y-105767848D01*
X145089300Y-105937242D01*
X132366000Y-105937242D01*
X132366000Y-103397242D01*
X145089300Y-103397242D01*
X145089300Y-103569957D01*
X145122994Y-103739351D01*
X145189090Y-103898920D01*
X145189091Y-103898922D01*
X145285044Y-104042526D01*
X145285045Y-104042527D01*
X145407173Y-104164655D01*
X145550780Y-104260610D01*
X145710347Y-104326705D01*
X145879743Y-104360400D01*
X146052457Y-104360400D01*
X146221853Y-104326705D01*
X146381420Y-104260610D01*
X146525027Y-104164655D01*
X146647155Y-104042527D01*
X146743110Y-103898920D01*
X146809205Y-103739353D01*
X146842900Y-103569957D01*
X146842900Y-103397243D01*
X146809205Y-103227847D01*
X146743110Y-103068280D01*
X146647155Y-102924673D01*
X146525027Y-102802545D01*
X146525026Y-102802544D01*
X146381422Y-102706591D01*
X146381420Y-102706590D01*
X146221851Y-102640494D01*
X146052457Y-102606800D01*
X145879743Y-102606800D01*
X145710348Y-102640494D01*
X145550779Y-102706590D01*
X145550777Y-102706591D01*
X145407173Y-102802544D01*
X145285044Y-102924673D01*
X145189091Y-103068277D01*
X145189090Y-103068279D01*
X145122994Y-103227848D01*
X145089300Y-103397242D01*
X132366000Y-103397242D01*
X132366000Y-102573000D01*
X132384306Y-102528806D01*
X132428500Y-102510500D01*
X137239670Y-102510500D01*
X137239675Y-102510499D01*
X137270418Y-102502260D01*
X137343158Y-102482770D01*
X137435943Y-102429201D01*
X139007902Y-100857242D01*
X145089300Y-100857242D01*
X145089300Y-101029957D01*
X145122994Y-101199351D01*
X145122995Y-101199353D01*
X145189090Y-101358920D01*
X145285045Y-101502527D01*
X145407173Y-101624655D01*
X145550780Y-101720610D01*
X145710347Y-101786705D01*
X145879743Y-101820400D01*
X146052457Y-101820400D01*
X146221853Y-101786705D01*
X146381420Y-101720610D01*
X146525027Y-101624655D01*
X146647155Y-101502527D01*
X146743110Y-101358920D01*
X146809205Y-101199353D01*
X146842900Y-101029957D01*
X146842900Y-100857243D01*
X146809205Y-100687847D01*
X146743110Y-100528280D01*
X146647155Y-100384673D01*
X146525027Y-100262545D01*
X146525026Y-100262544D01*
X146381422Y-100166591D01*
X146381420Y-100166590D01*
X146221851Y-100100494D01*
X146052457Y-100066800D01*
X145879743Y-100066800D01*
X145710348Y-100100494D01*
X145550779Y-100166590D01*
X145550777Y-100166591D01*
X145407173Y-100262544D01*
X145285044Y-100384673D01*
X145189091Y-100528277D01*
X145189090Y-100528279D01*
X145122994Y-100687848D01*
X145089300Y-100857242D01*
X139007902Y-100857242D01*
X141547901Y-98317242D01*
X145089300Y-98317242D01*
X145089300Y-98489957D01*
X145122994Y-98659351D01*
X145189090Y-98818920D01*
X145189091Y-98818922D01*
X145267522Y-98936302D01*
X145285045Y-98962527D01*
X145407173Y-99084655D01*
X145550780Y-99180610D01*
X145710347Y-99246705D01*
X145879743Y-99280400D01*
X146052457Y-99280400D01*
X146221853Y-99246705D01*
X146381420Y-99180610D01*
X146525027Y-99084655D01*
X146647155Y-98962527D01*
X146743110Y-98818920D01*
X146809205Y-98659353D01*
X146842900Y-98489957D01*
X146842900Y-98317243D01*
X146835016Y-98277605D01*
X153043400Y-98277605D01*
X153043400Y-98449594D01*
X153043401Y-98449610D01*
X153070305Y-98619472D01*
X153070305Y-98619473D01*
X153123454Y-98783049D01*
X153123458Y-98783057D01*
X153201540Y-98936302D01*
X153302634Y-99075445D01*
X153302641Y-99075453D01*
X153424246Y-99197058D01*
X153424254Y-99197065D01*
X153563400Y-99298161D01*
X153716649Y-99376245D01*
X153880225Y-99429394D01*
X153951823Y-99440734D01*
X154050089Y-99456298D01*
X154050095Y-99456298D01*
X154050103Y-99456300D01*
X154050105Y-99456300D01*
X154222095Y-99456300D01*
X154222097Y-99456300D01*
X154391975Y-99429394D01*
X154555551Y-99376245D01*
X154708800Y-99298161D01*
X154847946Y-99197065D01*
X154969565Y-99075446D01*
X155070661Y-98936300D01*
X155148745Y-98783051D01*
X155201894Y-98619475D01*
X155228800Y-98449597D01*
X155228800Y-98277603D01*
X155201894Y-98107725D01*
X155148745Y-97944149D01*
X155070661Y-97790900D01*
X154969565Y-97651754D01*
X154969558Y-97651746D01*
X154847953Y-97530141D01*
X154847945Y-97530134D01*
X154708802Y-97429040D01*
X154555557Y-97350958D01*
X154555549Y-97350954D01*
X154391973Y-97297805D01*
X154222110Y-97270901D01*
X154222098Y-97270900D01*
X154222097Y-97270900D01*
X154050103Y-97270900D01*
X154050101Y-97270900D01*
X154050089Y-97270901D01*
X153880227Y-97297805D01*
X153880226Y-97297805D01*
X153716650Y-97350954D01*
X153716642Y-97350958D01*
X153563397Y-97429040D01*
X153424254Y-97530134D01*
X153424246Y-97530141D01*
X153302641Y-97651746D01*
X153302634Y-97651754D01*
X153201540Y-97790897D01*
X153123458Y-97944142D01*
X153123454Y-97944150D01*
X153070305Y-98107726D01*
X153070305Y-98107727D01*
X153043401Y-98277589D01*
X153043400Y-98277605D01*
X146835016Y-98277605D01*
X146809205Y-98147847D01*
X146743110Y-97988280D01*
X146647155Y-97844673D01*
X146525027Y-97722545D01*
X146419069Y-97651746D01*
X146381422Y-97626591D01*
X146381420Y-97626590D01*
X146221851Y-97560494D01*
X146052457Y-97526800D01*
X145879743Y-97526800D01*
X145710348Y-97560494D01*
X145550779Y-97626590D01*
X145550777Y-97626591D01*
X145407173Y-97722544D01*
X145285044Y-97844673D01*
X145189091Y-97988277D01*
X145189090Y-97988279D01*
X145122994Y-98147848D01*
X145089300Y-98317242D01*
X141547901Y-98317242D01*
X144087900Y-95777242D01*
X145089300Y-95777242D01*
X145089300Y-95949957D01*
X145122994Y-96119351D01*
X145189090Y-96278920D01*
X145189091Y-96278922D01*
X145285044Y-96422526D01*
X145285045Y-96422527D01*
X145407173Y-96544655D01*
X145550780Y-96640610D01*
X145710347Y-96706705D01*
X145879743Y-96740400D01*
X146052457Y-96740400D01*
X146221853Y-96706705D01*
X146381420Y-96640610D01*
X146525027Y-96544655D01*
X146647155Y-96422527D01*
X146743110Y-96278920D01*
X146809205Y-96119353D01*
X146842900Y-95949957D01*
X146842900Y-95777243D01*
X146825180Y-95688161D01*
X146821886Y-95671599D01*
X152900869Y-95671599D01*
X152900870Y-95671600D01*
X153650908Y-95671600D01*
X153628100Y-95756720D01*
X153628100Y-95890480D01*
X153650908Y-95975600D01*
X152900870Y-95975600D01*
X152922926Y-96114856D01*
X152922927Y-96114859D01*
X152983423Y-96301047D01*
X152983425Y-96301054D01*
X153072310Y-96475497D01*
X153187382Y-96633880D01*
X153187389Y-96633888D01*
X153325811Y-96772310D01*
X153325819Y-96772317D01*
X153484202Y-96887389D01*
X153658645Y-96976274D01*
X153658652Y-96976276D01*
X153844835Y-97036770D01*
X153844848Y-97036773D01*
X153984099Y-97058829D01*
X153984100Y-97058829D01*
X153984100Y-96308792D01*
X154069220Y-96331600D01*
X154202980Y-96331600D01*
X154288100Y-96308792D01*
X154288100Y-97058829D01*
X154427351Y-97036773D01*
X154427364Y-97036770D01*
X154613547Y-96976276D01*
X154613554Y-96976274D01*
X154787997Y-96887389D01*
X154946380Y-96772317D01*
X154946388Y-96772310D01*
X155084810Y-96633888D01*
X155084817Y-96633880D01*
X155199889Y-96475497D01*
X155288774Y-96301054D01*
X155288776Y-96301047D01*
X155349272Y-96114859D01*
X155349273Y-96114856D01*
X155371330Y-95975600D01*
X154621292Y-95975600D01*
X154644100Y-95890480D01*
X154644100Y-95756720D01*
X154621292Y-95671600D01*
X155371330Y-95671600D01*
X155371330Y-95671599D01*
X155349273Y-95532343D01*
X155349272Y-95532340D01*
X155288776Y-95346152D01*
X155288774Y-95346145D01*
X155199889Y-95171702D01*
X155084817Y-95013319D01*
X155084810Y-95013311D01*
X154946388Y-94874889D01*
X154946380Y-94874882D01*
X154787997Y-94759810D01*
X154613554Y-94670925D01*
X154613547Y-94670923D01*
X154427359Y-94610427D01*
X154427356Y-94610426D01*
X154288100Y-94588369D01*
X154288100Y-95338407D01*
X154202980Y-95315600D01*
X154069220Y-95315600D01*
X153984100Y-95338407D01*
X153984100Y-94588369D01*
X153984099Y-94588369D01*
X153844843Y-94610426D01*
X153844840Y-94610427D01*
X153658652Y-94670923D01*
X153658645Y-94670925D01*
X153484202Y-94759810D01*
X153325819Y-94874882D01*
X153325811Y-94874889D01*
X153187389Y-95013311D01*
X153187382Y-95013319D01*
X153072310Y-95171702D01*
X152983425Y-95346145D01*
X152983423Y-95346152D01*
X152922927Y-95532340D01*
X152922926Y-95532343D01*
X152900869Y-95671599D01*
X146821886Y-95671599D01*
X146809205Y-95607848D01*
X146809205Y-95607847D01*
X146743110Y-95448280D01*
X146647155Y-95304673D01*
X146525027Y-95182545D01*
X146525026Y-95182544D01*
X146381422Y-95086591D01*
X146381420Y-95086590D01*
X146221851Y-95020494D01*
X146052457Y-94986800D01*
X145879743Y-94986800D01*
X145710348Y-95020494D01*
X145550779Y-95086590D01*
X145550777Y-95086591D01*
X145407173Y-95182544D01*
X145285044Y-95304673D01*
X145189091Y-95448277D01*
X145189090Y-95448279D01*
X145122994Y-95607848D01*
X145089300Y-95777242D01*
X144087900Y-95777242D01*
X145676792Y-94188350D01*
X145720985Y-94170045D01*
X145733174Y-94171245D01*
X145879743Y-94200400D01*
X146052457Y-94200400D01*
X146221853Y-94166705D01*
X146381420Y-94100610D01*
X146525027Y-94004655D01*
X146647155Y-93882527D01*
X146690534Y-93817605D01*
X155593400Y-93817605D01*
X155593400Y-93989594D01*
X155593401Y-93989610D01*
X155620305Y-94159472D01*
X155620305Y-94159473D01*
X155673454Y-94323049D01*
X155673458Y-94323057D01*
X155751540Y-94476302D01*
X155852634Y-94615445D01*
X155852641Y-94615453D01*
X155974246Y-94737058D01*
X155974254Y-94737065D01*
X156113400Y-94838161D01*
X156266649Y-94916245D01*
X156430225Y-94969394D01*
X156501823Y-94980734D01*
X156600089Y-94996298D01*
X156600095Y-94996298D01*
X156600103Y-94996300D01*
X156600105Y-94996300D01*
X156772095Y-94996300D01*
X156772097Y-94996300D01*
X156941975Y-94969394D01*
X157105551Y-94916245D01*
X157258800Y-94838161D01*
X157397946Y-94737065D01*
X157519565Y-94615446D01*
X157620661Y-94476300D01*
X157698745Y-94323051D01*
X157751894Y-94159475D01*
X157778800Y-93989597D01*
X157778800Y-93817605D01*
X158093400Y-93817605D01*
X158093400Y-93989594D01*
X158093401Y-93989610D01*
X158120305Y-94159472D01*
X158120305Y-94159473D01*
X158173454Y-94323049D01*
X158173458Y-94323057D01*
X158251540Y-94476302D01*
X158352634Y-94615445D01*
X158352641Y-94615453D01*
X158474246Y-94737058D01*
X158474254Y-94737065D01*
X158613400Y-94838161D01*
X158766649Y-94916245D01*
X158930225Y-94969394D01*
X159001823Y-94980734D01*
X159100089Y-94996298D01*
X159100095Y-94996298D01*
X159100103Y-94996300D01*
X159100105Y-94996300D01*
X159272095Y-94996300D01*
X159272097Y-94996300D01*
X159441975Y-94969394D01*
X159605551Y-94916245D01*
X159758800Y-94838161D01*
X159897946Y-94737065D01*
X160019565Y-94615446D01*
X160120661Y-94476300D01*
X160198745Y-94323051D01*
X160251894Y-94159475D01*
X160278800Y-93989597D01*
X160278800Y-93817603D01*
X160272911Y-93780424D01*
X160253981Y-93660901D01*
X160251894Y-93647725D01*
X160198745Y-93484149D01*
X160120661Y-93330900D01*
X160019565Y-93191754D01*
X160019558Y-93191746D01*
X159897953Y-93070141D01*
X159897945Y-93070134D01*
X159758802Y-92969040D01*
X159605557Y-92890958D01*
X159605549Y-92890954D01*
X159441973Y-92837805D01*
X159272110Y-92810901D01*
X159272098Y-92810900D01*
X159272097Y-92810900D01*
X159100103Y-92810900D01*
X159100101Y-92810900D01*
X159100089Y-92810901D01*
X158930227Y-92837805D01*
X158930226Y-92837805D01*
X158766650Y-92890954D01*
X158766642Y-92890958D01*
X158613397Y-92969040D01*
X158474254Y-93070134D01*
X158474246Y-93070141D01*
X158352641Y-93191746D01*
X158352634Y-93191754D01*
X158251540Y-93330897D01*
X158173458Y-93484142D01*
X158173454Y-93484150D01*
X158120305Y-93647726D01*
X158120305Y-93647727D01*
X158093401Y-93817589D01*
X158093400Y-93817605D01*
X157778800Y-93817605D01*
X157778800Y-93817603D01*
X157772911Y-93780424D01*
X157753981Y-93660901D01*
X157751894Y-93647725D01*
X157698745Y-93484149D01*
X157620661Y-93330900D01*
X157519565Y-93191754D01*
X157519558Y-93191746D01*
X157397953Y-93070141D01*
X157397945Y-93070134D01*
X157258802Y-92969040D01*
X157105557Y-92890958D01*
X157105549Y-92890954D01*
X156941973Y-92837805D01*
X156772110Y-92810901D01*
X156772098Y-92810900D01*
X156772097Y-92810900D01*
X156600103Y-92810900D01*
X156600101Y-92810900D01*
X156600089Y-92810901D01*
X156430227Y-92837805D01*
X156430226Y-92837805D01*
X156266650Y-92890954D01*
X156266642Y-92890958D01*
X156113397Y-92969040D01*
X155974254Y-93070134D01*
X155974246Y-93070141D01*
X155852641Y-93191746D01*
X155852634Y-93191754D01*
X155751540Y-93330897D01*
X155673458Y-93484142D01*
X155673454Y-93484150D01*
X155620305Y-93647726D01*
X155620305Y-93647727D01*
X155593401Y-93817589D01*
X155593400Y-93817605D01*
X146690534Y-93817605D01*
X146743110Y-93738920D01*
X146809205Y-93579353D01*
X146842900Y-93409957D01*
X146842900Y-93237243D01*
X146809205Y-93067847D01*
X146743110Y-92908280D01*
X146647155Y-92764673D01*
X146525027Y-92642545D01*
X146525026Y-92642544D01*
X146381422Y-92546591D01*
X146381420Y-92546590D01*
X146221851Y-92480494D01*
X146052457Y-92446800D01*
X145879743Y-92446800D01*
X145710350Y-92480494D01*
X145710348Y-92480494D01*
X145710347Y-92480495D01*
X145637161Y-92510809D01*
X145562708Y-92541649D01*
X145514873Y-92541648D01*
X145494597Y-92528100D01*
X144233506Y-91267009D01*
X144215200Y-91222815D01*
X144215200Y-90631599D01*
X144948296Y-90631599D01*
X144948297Y-90631600D01*
X145507204Y-90631600D01*
X145483500Y-90720065D01*
X145483500Y-90847135D01*
X145507204Y-90935600D01*
X144948297Y-90935600D01*
X144977701Y-91083427D01*
X144977703Y-91083435D01*
X145055186Y-91270493D01*
X145055187Y-91270495D01*
X145167677Y-91438847D01*
X145310852Y-91582022D01*
X145479204Y-91694512D01*
X145479206Y-91694513D01*
X145666264Y-91771996D01*
X145666272Y-91771998D01*
X145814099Y-91801403D01*
X145814100Y-91801402D01*
X145814100Y-91242495D01*
X145902565Y-91266200D01*
X146029635Y-91266200D01*
X146118100Y-91242495D01*
X146118100Y-91801403D01*
X146265927Y-91771998D01*
X146265935Y-91771996D01*
X146452993Y-91694513D01*
X146452995Y-91694512D01*
X146621347Y-91582022D01*
X146764522Y-91438847D01*
X146877012Y-91270495D01*
X146877013Y-91270493D01*
X146954496Y-91083435D01*
X146954498Y-91083427D01*
X146983903Y-90935600D01*
X146424996Y-90935600D01*
X146448700Y-90847135D01*
X146448700Y-90720065D01*
X146424996Y-90631600D01*
X146983903Y-90631600D01*
X146983903Y-90631599D01*
X146954498Y-90483772D01*
X146954496Y-90483764D01*
X146877013Y-90296706D01*
X146877012Y-90296704D01*
X146764522Y-90128352D01*
X146621347Y-89985177D01*
X146452995Y-89872687D01*
X146452993Y-89872686D01*
X146265925Y-89795200D01*
X146118100Y-89765796D01*
X146118100Y-90324704D01*
X146029635Y-90301000D01*
X145902565Y-90301000D01*
X145814100Y-90324704D01*
X145814100Y-89765796D01*
X145814099Y-89765796D01*
X145666274Y-89795200D01*
X145666273Y-89795200D01*
X145479206Y-89872686D01*
X145479204Y-89872687D01*
X145310852Y-89985177D01*
X145167677Y-90128352D01*
X145055187Y-90296704D01*
X145055186Y-90296706D01*
X144977703Y-90483764D01*
X144977701Y-90483772D01*
X144948296Y-90631599D01*
X144215200Y-90631599D01*
X144215200Y-88157242D01*
X145089300Y-88157242D01*
X145089300Y-88329957D01*
X145122994Y-88499351D01*
X145189090Y-88658920D01*
X145189091Y-88658922D01*
X145277797Y-88791680D01*
X145285045Y-88802527D01*
X145407173Y-88924655D01*
X145550780Y-89020610D01*
X145710347Y-89086705D01*
X145879743Y-89120400D01*
X146052457Y-89120400D01*
X146221853Y-89086705D01*
X146381420Y-89020610D01*
X146525027Y-88924655D01*
X146647155Y-88802527D01*
X146730176Y-88678276D01*
X146769950Y-88651701D01*
X146782143Y-88650500D01*
X158394500Y-88650500D01*
X158438694Y-88668806D01*
X158457000Y-88713000D01*
X158457000Y-89144514D01*
X158438694Y-89188708D01*
X158425750Y-89198640D01*
X158406788Y-89209587D01*
X158406779Y-89209594D01*
X158322094Y-89294279D01*
X158322087Y-89294288D01*
X158262203Y-89398009D01*
X158262201Y-89398014D01*
X158231200Y-89513706D01*
X158231200Y-89633493D01*
X158262201Y-89749185D01*
X158262203Y-89749190D01*
X158322087Y-89852911D01*
X158322094Y-89852920D01*
X158406779Y-89937605D01*
X158406788Y-89937612D01*
X158510509Y-89997496D01*
X158510511Y-89997497D01*
X158510515Y-89997499D01*
X158589531Y-90018671D01*
X158626206Y-90028499D01*
X158626208Y-90028499D01*
X158626211Y-90028500D01*
X158626213Y-90028500D01*
X158745987Y-90028500D01*
X158745989Y-90028500D01*
X158861685Y-89997499D01*
X158965415Y-89937610D01*
X159050110Y-89852915D01*
X159109999Y-89749185D01*
X159141000Y-89633489D01*
X159141000Y-89513711D01*
X159109999Y-89398015D01*
X159108175Y-89394856D01*
X159050112Y-89294288D01*
X159050105Y-89294279D01*
X158965420Y-89209594D01*
X158965411Y-89209587D01*
X158946450Y-89198640D01*
X158917330Y-89160690D01*
X158915200Y-89144514D01*
X158915200Y-88713000D01*
X158933506Y-88668806D01*
X158977700Y-88650500D01*
X163831668Y-88650500D01*
X163875862Y-88668806D01*
X164660894Y-89453837D01*
X164679200Y-89498031D01*
X164679200Y-91381824D01*
X164670827Y-91413073D01*
X164662202Y-91428011D01*
X164662200Y-91428017D01*
X164631200Y-91543706D01*
X164631200Y-91663493D01*
X164660275Y-91771998D01*
X164662201Y-91779185D01*
X164670826Y-91794124D01*
X164679200Y-91825373D01*
X164679200Y-96257175D01*
X164706929Y-96360655D01*
X164706929Y-96360657D01*
X164760500Y-96453444D01*
X167460894Y-99153838D01*
X167479200Y-99198032D01*
X167479200Y-120409167D01*
X167460894Y-120453361D01*
X165355195Y-122559059D01*
X165327180Y-122575235D01*
X165310513Y-122579701D01*
X165310508Y-122579703D01*
X165206788Y-122639587D01*
X165206779Y-122639594D01*
X165122094Y-122724279D01*
X165122087Y-122724288D01*
X165062203Y-122828009D01*
X165062201Y-122828014D01*
X165031200Y-122943706D01*
X165031200Y-123063493D01*
X165062201Y-123179185D01*
X165062203Y-123179190D01*
X165122087Y-123282911D01*
X165122094Y-123282920D01*
X165206779Y-123367605D01*
X165206788Y-123367612D01*
X165310509Y-123427496D01*
X165310511Y-123427497D01*
X165310515Y-123427499D01*
X165389531Y-123448671D01*
X165426206Y-123458499D01*
X165426208Y-123458499D01*
X165426211Y-123458500D01*
X165426213Y-123458500D01*
X165545987Y-123458500D01*
X165545989Y-123458500D01*
X165661685Y-123427499D01*
X165765415Y-123367610D01*
X165850110Y-123282915D01*
X165909999Y-123179185D01*
X165914464Y-123162520D01*
X165930638Y-123134504D01*
X168211701Y-120853442D01*
X168265270Y-120760657D01*
X168293000Y-120657169D01*
X168293000Y-120550030D01*
X168293000Y-100373000D01*
X168311306Y-100328806D01*
X168355500Y-100310500D01*
X168628760Y-100310500D01*
X168672954Y-100328806D01*
X168684448Y-100344626D01*
X168751540Y-100476302D01*
X168852634Y-100615445D01*
X168852641Y-100615453D01*
X168974246Y-100737058D01*
X168974254Y-100737065D01*
X169113400Y-100838161D01*
X169266649Y-100916245D01*
X169430225Y-100969394D01*
X169501823Y-100980734D01*
X169600089Y-100996298D01*
X169600095Y-100996298D01*
X169600103Y-100996300D01*
X169600105Y-100996300D01*
X169772095Y-100996300D01*
X169772097Y-100996300D01*
X169941975Y-100969394D01*
X170105551Y-100916245D01*
X170258800Y-100838161D01*
X170397946Y-100737065D01*
X170519565Y-100615446D01*
X170620661Y-100476300D01*
X170698745Y-100323051D01*
X170751894Y-100159475D01*
X170778800Y-99989597D01*
X170778800Y-99817603D01*
X170751894Y-99647725D01*
X170698745Y-99484149D01*
X170620661Y-99330900D01*
X170583970Y-99280400D01*
X170519565Y-99191754D01*
X170519558Y-99191746D01*
X170397953Y-99070141D01*
X170397945Y-99070134D01*
X170258802Y-98969040D01*
X170105557Y-98890958D01*
X170105549Y-98890954D01*
X169941973Y-98837805D01*
X169772110Y-98810901D01*
X169772098Y-98810900D01*
X169772097Y-98810900D01*
X169600103Y-98810900D01*
X169600101Y-98810900D01*
X169600089Y-98810901D01*
X169430227Y-98837805D01*
X169430226Y-98837805D01*
X169266650Y-98890954D01*
X169266642Y-98890958D01*
X169113397Y-98969040D01*
X168974254Y-99070134D01*
X168974246Y-99070141D01*
X168852641Y-99191746D01*
X168852634Y-99191754D01*
X168751540Y-99330897D01*
X168684448Y-99462574D01*
X168648074Y-99493641D01*
X168628760Y-99496700D01*
X168355500Y-99496700D01*
X168311306Y-99478394D01*
X168293000Y-99434200D01*
X168293000Y-98950032D01*
X168292999Y-98950026D01*
X168277171Y-98890956D01*
X168277171Y-98890955D01*
X168265271Y-98846545D01*
X168265270Y-98846544D01*
X168265270Y-98846542D01*
X168211701Y-98753757D01*
X165511306Y-96053362D01*
X165493000Y-96009168D01*
X165493000Y-94667605D01*
X168593400Y-94667605D01*
X168593400Y-94839594D01*
X168593401Y-94839610D01*
X168620305Y-95009472D01*
X168620305Y-95009473D01*
X168673454Y-95173049D01*
X168673458Y-95173057D01*
X168751540Y-95326302D01*
X168852634Y-95465445D01*
X168852641Y-95465453D01*
X168974246Y-95587058D01*
X168974254Y-95587065D01*
X169113400Y-95688161D01*
X169266649Y-95766245D01*
X169430225Y-95819394D01*
X169501823Y-95830734D01*
X169600089Y-95846298D01*
X169600095Y-95846298D01*
X169600103Y-95846300D01*
X169600105Y-95846300D01*
X169772095Y-95846300D01*
X169772097Y-95846300D01*
X169941975Y-95819394D01*
X170105551Y-95766245D01*
X170258800Y-95688161D01*
X170397946Y-95587065D01*
X170519565Y-95465446D01*
X170620661Y-95326300D01*
X170698745Y-95173051D01*
X170751894Y-95009475D01*
X170778800Y-94839597D01*
X170778800Y-94667603D01*
X170751894Y-94497725D01*
X170698745Y-94334149D01*
X170620661Y-94180900D01*
X170612774Y-94170045D01*
X170519565Y-94041754D01*
X170519558Y-94041746D01*
X170397953Y-93920141D01*
X170397945Y-93920134D01*
X170258802Y-93819040D01*
X170105557Y-93740958D01*
X170105549Y-93740954D01*
X169941973Y-93687805D01*
X169772110Y-93660901D01*
X169772098Y-93660900D01*
X169772097Y-93660900D01*
X169600103Y-93660900D01*
X169600101Y-93660900D01*
X169600089Y-93660901D01*
X169430227Y-93687805D01*
X169430226Y-93687805D01*
X169266650Y-93740954D01*
X169266642Y-93740958D01*
X169113397Y-93819040D01*
X168974254Y-93920134D01*
X168974246Y-93920141D01*
X168852641Y-94041746D01*
X168852634Y-94041754D01*
X168751540Y-94180897D01*
X168673458Y-94334142D01*
X168673454Y-94334150D01*
X168620305Y-94497726D01*
X168620305Y-94497727D01*
X168593401Y-94667589D01*
X168593400Y-94667605D01*
X165493000Y-94667605D01*
X165493000Y-91825373D01*
X165501373Y-91794124D01*
X165509999Y-91779185D01*
X165541000Y-91663489D01*
X165541000Y-91543711D01*
X165509999Y-91428015D01*
X165509997Y-91428011D01*
X165501373Y-91413073D01*
X165493000Y-91381824D01*
X165493000Y-89250031D01*
X165492999Y-89250025D01*
X165471684Y-89170480D01*
X165465270Y-89146543D01*
X165411701Y-89053758D01*
X165335942Y-88977999D01*
X165309542Y-88951599D01*
X168450869Y-88951599D01*
X168450870Y-88951600D01*
X169200908Y-88951600D01*
X169178100Y-89036720D01*
X169178100Y-89170480D01*
X169200908Y-89255600D01*
X168450870Y-89255600D01*
X168472926Y-89394856D01*
X168472927Y-89394859D01*
X168533423Y-89581047D01*
X168533425Y-89581054D01*
X168622310Y-89755497D01*
X168737382Y-89913880D01*
X168737389Y-89913888D01*
X168875811Y-90052310D01*
X168875819Y-90052317D01*
X169034202Y-90167389D01*
X169208645Y-90256274D01*
X169208652Y-90256276D01*
X169394835Y-90316770D01*
X169394848Y-90316773D01*
X169534099Y-90338829D01*
X169534100Y-90338829D01*
X169534100Y-89588792D01*
X169619220Y-89611600D01*
X169752980Y-89611600D01*
X169838100Y-89588792D01*
X169838100Y-90338829D01*
X169977351Y-90316773D01*
X169977364Y-90316770D01*
X170163547Y-90256276D01*
X170163554Y-90256274D01*
X170337997Y-90167389D01*
X170496380Y-90052317D01*
X170496388Y-90052310D01*
X170634810Y-89913888D01*
X170634817Y-89913880D01*
X170749889Y-89755497D01*
X170838774Y-89581054D01*
X170838776Y-89581047D01*
X170899272Y-89394859D01*
X170899273Y-89394856D01*
X170921330Y-89255600D01*
X170171292Y-89255600D01*
X170194100Y-89170480D01*
X170194100Y-89036720D01*
X170171292Y-88951600D01*
X170921330Y-88951600D01*
X170921330Y-88951599D01*
X170899273Y-88812343D01*
X170899272Y-88812340D01*
X170838776Y-88626152D01*
X170838774Y-88626145D01*
X170749889Y-88451702D01*
X170634817Y-88293319D01*
X170634810Y-88293311D01*
X170496388Y-88154889D01*
X170496380Y-88154882D01*
X170337997Y-88039810D01*
X170163554Y-87950925D01*
X170163547Y-87950923D01*
X169977359Y-87890427D01*
X169977356Y-87890426D01*
X169838100Y-87868369D01*
X169838100Y-88618407D01*
X169752980Y-88595600D01*
X169619220Y-88595600D01*
X169534100Y-88618407D01*
X169534100Y-87868369D01*
X169534099Y-87868369D01*
X169394843Y-87890426D01*
X169394840Y-87890427D01*
X169208652Y-87950923D01*
X169208645Y-87950925D01*
X169034202Y-88039810D01*
X168875819Y-88154882D01*
X168875811Y-88154889D01*
X168737389Y-88293311D01*
X168737382Y-88293319D01*
X168622310Y-88451702D01*
X168533425Y-88626145D01*
X168533423Y-88626152D01*
X168472927Y-88812340D01*
X168472926Y-88812343D01*
X168450869Y-88951599D01*
X165309542Y-88951599D01*
X165084143Y-88726200D01*
X164275948Y-87918003D01*
X164275944Y-87918000D01*
X164275943Y-87917999D01*
X164183158Y-87864430D01*
X164183157Y-87864429D01*
X164183156Y-87864429D01*
X164079675Y-87836700D01*
X164079670Y-87836700D01*
X164079669Y-87836700D01*
X158739669Y-87836700D01*
X146782143Y-87836700D01*
X146737949Y-87818394D01*
X146730176Y-87808923D01*
X146695284Y-87756704D01*
X146647155Y-87684673D01*
X146525027Y-87562545D01*
X146525026Y-87562544D01*
X146381422Y-87466591D01*
X146381420Y-87466590D01*
X146221851Y-87400494D01*
X146052457Y-87366800D01*
X145879743Y-87366800D01*
X145710348Y-87400494D01*
X145550779Y-87466590D01*
X145550777Y-87466591D01*
X145407173Y-87562544D01*
X145285044Y-87684673D01*
X145189091Y-87828277D01*
X145189090Y-87828279D01*
X145122994Y-87987848D01*
X145089300Y-88157242D01*
X144215200Y-88157242D01*
X144215200Y-86424384D01*
X144233506Y-86380190D01*
X144762690Y-85851006D01*
X144806884Y-85832700D01*
X154465315Y-85832700D01*
X154509509Y-85851006D01*
X155108694Y-86450190D01*
X155127000Y-86494384D01*
X155127000Y-86744514D01*
X155108694Y-86788708D01*
X155095750Y-86798640D01*
X155076788Y-86809587D01*
X155076779Y-86809594D01*
X154992094Y-86894279D01*
X154992087Y-86894288D01*
X154932203Y-86998009D01*
X154932201Y-86998014D01*
X154901200Y-87113706D01*
X154901200Y-87233493D01*
X154932201Y-87349185D01*
X154932203Y-87349190D01*
X154992087Y-87452911D01*
X154992094Y-87452920D01*
X155076779Y-87537605D01*
X155076788Y-87537612D01*
X155180509Y-87597496D01*
X155180511Y-87597497D01*
X155180515Y-87597499D01*
X155259531Y-87618671D01*
X155296206Y-87628499D01*
X155296208Y-87628499D01*
X155296211Y-87628500D01*
X155296213Y-87628500D01*
X155415987Y-87628500D01*
X155415989Y-87628500D01*
X155531685Y-87597499D01*
X155635415Y-87537610D01*
X155720110Y-87452915D01*
X155779999Y-87349185D01*
X155811000Y-87233489D01*
X155811000Y-87113711D01*
X155779999Y-86998015D01*
X155720110Y-86894285D01*
X155720108Y-86894283D01*
X155720105Y-86894279D01*
X155635420Y-86809594D01*
X155635411Y-86809587D01*
X155616450Y-86798640D01*
X155587330Y-86760690D01*
X155585200Y-86744514D01*
X155585200Y-86328029D01*
X155585199Y-86328026D01*
X155550323Y-86243828D01*
X155550319Y-86243823D01*
X155139196Y-85832700D01*
X154715875Y-85409378D01*
X154656333Y-85384715D01*
X154656332Y-85384714D01*
X154631672Y-85374500D01*
X154631671Y-85374500D01*
X144640529Y-85374500D01*
X144640527Y-85374500D01*
X144556338Y-85409373D01*
X144556321Y-85409381D01*
X143791880Y-86173821D01*
X143791877Y-86173826D01*
X143789581Y-86179372D01*
X143789578Y-86179379D01*
X143757000Y-86258026D01*
X143757000Y-86258029D01*
X143757000Y-91298030D01*
X143757000Y-91389170D01*
X143788266Y-91464655D01*
X143791878Y-91473375D01*
X145170600Y-92852097D01*
X145188906Y-92896291D01*
X145184149Y-92920208D01*
X145122994Y-93067850D01*
X145089300Y-93237242D01*
X145089300Y-93409957D01*
X145118453Y-93556519D01*
X145109121Y-93603435D01*
X145101348Y-93612906D01*
X137035862Y-101678394D01*
X136991668Y-101696700D01*
X131363870Y-101696700D01*
X131319676Y-101678394D01*
X131301370Y-101634200D01*
X131319676Y-101590006D01*
X131407155Y-101502527D01*
X131503110Y-101358920D01*
X131569205Y-101199353D01*
X131602900Y-101029957D01*
X131602900Y-100857243D01*
X131569205Y-100687847D01*
X131503110Y-100528280D01*
X131407155Y-100384673D01*
X131285027Y-100262545D01*
X131285026Y-100262544D01*
X131141422Y-100166591D01*
X131141420Y-100166590D01*
X130981851Y-100100494D01*
X130812457Y-100066800D01*
X130639743Y-100066800D01*
X130470348Y-100100494D01*
X130310779Y-100166590D01*
X130310777Y-100166591D01*
X130167173Y-100262544D01*
X130045044Y-100384673D01*
X129949091Y-100528277D01*
X129949090Y-100528279D01*
X129882994Y-100687848D01*
X129849300Y-100857242D01*
X129849300Y-101029957D01*
X129882994Y-101199351D01*
X129949090Y-101358920D01*
X129949091Y-101358922D01*
X130045044Y-101502526D01*
X130132524Y-101590006D01*
X130150830Y-101634200D01*
X130132524Y-101678394D01*
X130088330Y-101696700D01*
X129392524Y-101696700D01*
X129289044Y-101724429D01*
X129289042Y-101724429D01*
X129196255Y-101778000D01*
X127996029Y-102978225D01*
X127951835Y-102996531D01*
X127932522Y-102993472D01*
X127791977Y-102947806D01*
X127791972Y-102947805D01*
X127622110Y-102920901D01*
X127622098Y-102920900D01*
X127622097Y-102920900D01*
X127450103Y-102920900D01*
X127450101Y-102920900D01*
X127450089Y-102920901D01*
X127280227Y-102947805D01*
X127280226Y-102947805D01*
X127116650Y-103000954D01*
X127116642Y-103000958D01*
X126963397Y-103079040D01*
X126824254Y-103180134D01*
X126824246Y-103180141D01*
X126702641Y-103301746D01*
X126702634Y-103301754D01*
X126601540Y-103440897D01*
X126523458Y-103594142D01*
X126523454Y-103594150D01*
X126470305Y-103757726D01*
X126470305Y-103757727D01*
X126443401Y-103927589D01*
X126443400Y-103927605D01*
X125211600Y-103927605D01*
X125211600Y-98317242D01*
X129849300Y-98317242D01*
X129849300Y-98489957D01*
X129882994Y-98659351D01*
X129949090Y-98818920D01*
X129949091Y-98818922D01*
X130027522Y-98936302D01*
X130045045Y-98962527D01*
X130167173Y-99084655D01*
X130310780Y-99180610D01*
X130470347Y-99246705D01*
X130639743Y-99280400D01*
X130812457Y-99280400D01*
X130981853Y-99246705D01*
X131141420Y-99180610D01*
X131285027Y-99084655D01*
X131407155Y-98962527D01*
X131503110Y-98818920D01*
X131569205Y-98659353D01*
X131602900Y-98489957D01*
X131602900Y-98317243D01*
X131569205Y-98147847D01*
X131503110Y-97988280D01*
X131407155Y-97844673D01*
X131285027Y-97722545D01*
X131179069Y-97651746D01*
X131141422Y-97626591D01*
X131141420Y-97626590D01*
X130981851Y-97560494D01*
X130812457Y-97526800D01*
X130639743Y-97526800D01*
X130470348Y-97560494D01*
X130310779Y-97626590D01*
X130310777Y-97626591D01*
X130167173Y-97722544D01*
X130045044Y-97844673D01*
X129949091Y-97988277D01*
X129949090Y-97988279D01*
X129882994Y-98147848D01*
X129849300Y-98317242D01*
X125211600Y-98317242D01*
X125211600Y-95777242D01*
X129849300Y-95777242D01*
X129849300Y-95949957D01*
X129882994Y-96119351D01*
X129949090Y-96278920D01*
X129949091Y-96278922D01*
X130045044Y-96422526D01*
X130045045Y-96422527D01*
X130167173Y-96544655D01*
X130310780Y-96640610D01*
X130470347Y-96706705D01*
X130639743Y-96740400D01*
X130812457Y-96740400D01*
X130981853Y-96706705D01*
X131141420Y-96640610D01*
X131285027Y-96544655D01*
X131407155Y-96422527D01*
X131503110Y-96278920D01*
X131569205Y-96119353D01*
X131602900Y-95949957D01*
X131602900Y-95777243D01*
X131569205Y-95607847D01*
X131503110Y-95448280D01*
X131407155Y-95304673D01*
X131285027Y-95182545D01*
X131285026Y-95182544D01*
X131141422Y-95086591D01*
X131141420Y-95086590D01*
X130981851Y-95020494D01*
X130812457Y-94986800D01*
X130639743Y-94986800D01*
X130470348Y-95020494D01*
X130310779Y-95086590D01*
X130310777Y-95086591D01*
X130167173Y-95182544D01*
X130045044Y-95304673D01*
X129949091Y-95448277D01*
X129949090Y-95448279D01*
X129882994Y-95607848D01*
X129849300Y-95777242D01*
X125211600Y-95777242D01*
X125211600Y-93237242D01*
X129849300Y-93237242D01*
X129849300Y-93409957D01*
X129882994Y-93579351D01*
X129949090Y-93738920D01*
X129949091Y-93738922D01*
X130002624Y-93819040D01*
X130045045Y-93882527D01*
X130167173Y-94004655D01*
X130310780Y-94100610D01*
X130470347Y-94166705D01*
X130639743Y-94200400D01*
X130812457Y-94200400D01*
X130981853Y-94166705D01*
X131141420Y-94100610D01*
X131285027Y-94004655D01*
X131407155Y-93882527D01*
X131503110Y-93738920D01*
X131569205Y-93579353D01*
X131602900Y-93409957D01*
X131602900Y-93237243D01*
X131569205Y-93067847D01*
X131503110Y-92908280D01*
X131407155Y-92764673D01*
X131285027Y-92642545D01*
X131285026Y-92642544D01*
X131141422Y-92546591D01*
X131141420Y-92546590D01*
X130981851Y-92480494D01*
X130812457Y-92446800D01*
X130639743Y-92446800D01*
X130470348Y-92480494D01*
X130310779Y-92546590D01*
X130310777Y-92546591D01*
X130167173Y-92642544D01*
X130045044Y-92764673D01*
X129949091Y-92908277D01*
X129949090Y-92908279D01*
X129882994Y-93067848D01*
X129849300Y-93237242D01*
X125211600Y-93237242D01*
X125211600Y-90697242D01*
X129849300Y-90697242D01*
X129849300Y-90869957D01*
X129882994Y-91039351D01*
X129949090Y-91198920D01*
X129949091Y-91198922D01*
X130015313Y-91298030D01*
X130045045Y-91342527D01*
X130167173Y-91464655D01*
X130310780Y-91560610D01*
X130470347Y-91626705D01*
X130639743Y-91660400D01*
X130812457Y-91660400D01*
X130981853Y-91626705D01*
X131141420Y-91560610D01*
X131285027Y-91464655D01*
X131407155Y-91342527D01*
X131503110Y-91198920D01*
X131569205Y-91039353D01*
X131602900Y-90869957D01*
X131602900Y-90697243D01*
X131569205Y-90527847D01*
X131503110Y-90368280D01*
X131483431Y-90338829D01*
X131407155Y-90224673D01*
X131285026Y-90102544D01*
X131141422Y-90006591D01*
X131141420Y-90006590D01*
X130981851Y-89940494D01*
X130812457Y-89906800D01*
X130639743Y-89906800D01*
X130470348Y-89940494D01*
X130310779Y-90006590D01*
X130310777Y-90006591D01*
X130167173Y-90102544D01*
X130045044Y-90224673D01*
X129949091Y-90368277D01*
X129949090Y-90368279D01*
X129882994Y-90527848D01*
X129849300Y-90697242D01*
X125211600Y-90697242D01*
X125211600Y-88091599D01*
X129708296Y-88091599D01*
X129708297Y-88091600D01*
X130267204Y-88091600D01*
X130243500Y-88180065D01*
X130243500Y-88307135D01*
X130267204Y-88395600D01*
X129708297Y-88395600D01*
X129737701Y-88543427D01*
X129737703Y-88543435D01*
X129815186Y-88730493D01*
X129815187Y-88730495D01*
X129927677Y-88898847D01*
X130070852Y-89042022D01*
X130239204Y-89154512D01*
X130239206Y-89154513D01*
X130426264Y-89231996D01*
X130426272Y-89231998D01*
X130574099Y-89261403D01*
X130574100Y-89261402D01*
X130574100Y-88702495D01*
X130662565Y-88726200D01*
X130789635Y-88726200D01*
X130878100Y-88702495D01*
X130878100Y-89261403D01*
X131025927Y-89231998D01*
X131025935Y-89231996D01*
X131212993Y-89154513D01*
X131212995Y-89154512D01*
X131381347Y-89042022D01*
X131524522Y-88898847D01*
X131637012Y-88730495D01*
X131637013Y-88730493D01*
X131714496Y-88543435D01*
X131714498Y-88543427D01*
X131743903Y-88395600D01*
X131184996Y-88395600D01*
X131208700Y-88307135D01*
X131208700Y-88180065D01*
X131202585Y-88157242D01*
X136199300Y-88157242D01*
X136199300Y-88329957D01*
X136232994Y-88499351D01*
X136299090Y-88658920D01*
X136299091Y-88658922D01*
X136387797Y-88791680D01*
X136395045Y-88802527D01*
X136517173Y-88924655D01*
X136660780Y-89020610D01*
X136820347Y-89086705D01*
X136989743Y-89120400D01*
X137162457Y-89120400D01*
X137331853Y-89086705D01*
X137491420Y-89020610D01*
X137635027Y-88924655D01*
X137757155Y-88802527D01*
X137853110Y-88658920D01*
X137919205Y-88499353D01*
X137952900Y-88329957D01*
X137952900Y-88157243D01*
X137952900Y-88157242D01*
X138739300Y-88157242D01*
X138739300Y-88329957D01*
X138772994Y-88499351D01*
X138839090Y-88658920D01*
X138839091Y-88658922D01*
X138927797Y-88791680D01*
X138935045Y-88802527D01*
X139057173Y-88924655D01*
X139200780Y-89020610D01*
X139360347Y-89086705D01*
X139529743Y-89120400D01*
X139702457Y-89120400D01*
X139871853Y-89086705D01*
X140031420Y-89020610D01*
X140175027Y-88924655D01*
X140297155Y-88802527D01*
X140393110Y-88658920D01*
X140459205Y-88499353D01*
X140492900Y-88329957D01*
X140492900Y-88157243D01*
X140459205Y-87987847D01*
X140393110Y-87828280D01*
X140297155Y-87684673D01*
X140175027Y-87562545D01*
X140175026Y-87562544D01*
X140031422Y-87466591D01*
X140031420Y-87466590D01*
X139871851Y-87400494D01*
X139702457Y-87366800D01*
X139529743Y-87366800D01*
X139360348Y-87400494D01*
X139200779Y-87466590D01*
X139200777Y-87466591D01*
X139057173Y-87562544D01*
X138935044Y-87684673D01*
X138839091Y-87828277D01*
X138839090Y-87828279D01*
X138772994Y-87987848D01*
X138739300Y-88157242D01*
X137952900Y-88157242D01*
X137919205Y-87987847D01*
X137853110Y-87828280D01*
X137757155Y-87684673D01*
X137635027Y-87562545D01*
X137635026Y-87562544D01*
X137491422Y-87466591D01*
X137491420Y-87466590D01*
X137331851Y-87400494D01*
X137162457Y-87366800D01*
X136989743Y-87366800D01*
X136820348Y-87400494D01*
X136660779Y-87466590D01*
X136660777Y-87466591D01*
X136517173Y-87562544D01*
X136395044Y-87684673D01*
X136299091Y-87828277D01*
X136299090Y-87828279D01*
X136232994Y-87987848D01*
X136199300Y-88157242D01*
X131202585Y-88157242D01*
X131184996Y-88091600D01*
X131743903Y-88091600D01*
X131743903Y-88091599D01*
X131714498Y-87943772D01*
X131714496Y-87943764D01*
X131637013Y-87756706D01*
X131637012Y-87756704D01*
X131524522Y-87588352D01*
X131381347Y-87445177D01*
X131212995Y-87332687D01*
X131212993Y-87332686D01*
X131025925Y-87255200D01*
X130878100Y-87225796D01*
X130878100Y-87784704D01*
X130789635Y-87761000D01*
X130662565Y-87761000D01*
X130574100Y-87784704D01*
X130574100Y-87225796D01*
X130574099Y-87225796D01*
X130426274Y-87255200D01*
X130426273Y-87255200D01*
X130239206Y-87332686D01*
X130239204Y-87332687D01*
X130070852Y-87445177D01*
X129927677Y-87588352D01*
X129815187Y-87756704D01*
X129815186Y-87756706D01*
X129737703Y-87943764D01*
X129737701Y-87943772D01*
X129708296Y-88091599D01*
X125211600Y-88091599D01*
X125211600Y-84385506D01*
X126685600Y-84385506D01*
X126685600Y-84621693D01*
X126722548Y-84854972D01*
X126795531Y-85079590D01*
X126795535Y-85079598D01*
X126902758Y-85290035D01*
X127041582Y-85481109D01*
X127041589Y-85481117D01*
X127208582Y-85648110D01*
X127208590Y-85648117D01*
X127399667Y-85786943D01*
X127610108Y-85894168D01*
X127834732Y-85967153D01*
X128068008Y-86004100D01*
X128068010Y-86004100D01*
X128304190Y-86004100D01*
X128304192Y-86004100D01*
X128537468Y-85967153D01*
X128762092Y-85894168D01*
X128972533Y-85786943D01*
X129163610Y-85648117D01*
X129330617Y-85481110D01*
X129469443Y-85290033D01*
X129576668Y-85079592D01*
X129649653Y-84854968D01*
X129686600Y-84621692D01*
X129686600Y-84385508D01*
X129649653Y-84152232D01*
X129576668Y-83927608D01*
X129486987Y-83751599D01*
X133350869Y-83751599D01*
X133350870Y-83751600D01*
X134100908Y-83751600D01*
X134078100Y-83836720D01*
X134078100Y-83970480D01*
X134100908Y-84055600D01*
X133350870Y-84055600D01*
X133372926Y-84194856D01*
X133372927Y-84194859D01*
X133433423Y-84381047D01*
X133433425Y-84381054D01*
X133522310Y-84555497D01*
X133637382Y-84713880D01*
X133637389Y-84713888D01*
X133775811Y-84852310D01*
X133775819Y-84852317D01*
X133934202Y-84967389D01*
X134108645Y-85056274D01*
X134108652Y-85056276D01*
X134294835Y-85116770D01*
X134294848Y-85116773D01*
X134434099Y-85138829D01*
X134434100Y-85138829D01*
X134434100Y-84388792D01*
X134519220Y-84411600D01*
X134652980Y-84411600D01*
X134738100Y-84388792D01*
X134738100Y-85138829D01*
X134877351Y-85116773D01*
X134877364Y-85116770D01*
X135063547Y-85056276D01*
X135063554Y-85056274D01*
X135237997Y-84967389D01*
X135396380Y-84852317D01*
X135396388Y-84852310D01*
X135534810Y-84713888D01*
X135534817Y-84713880D01*
X135649889Y-84555497D01*
X135738774Y-84381054D01*
X135738776Y-84381047D01*
X135799272Y-84194859D01*
X135799273Y-84194856D01*
X135821330Y-84055600D01*
X135071292Y-84055600D01*
X135094100Y-83970480D01*
X135094100Y-83836720D01*
X135088978Y-83817605D01*
X135993400Y-83817605D01*
X135993400Y-83989594D01*
X135993401Y-83989610D01*
X136020305Y-84159472D01*
X136020305Y-84159473D01*
X136073454Y-84323049D01*
X136073458Y-84323057D01*
X136151540Y-84476302D01*
X136252634Y-84615445D01*
X136252641Y-84615453D01*
X136374246Y-84737058D01*
X136374254Y-84737065D01*
X136513400Y-84838161D01*
X136666649Y-84916245D01*
X136830225Y-84969394D01*
X136901823Y-84980734D01*
X137000089Y-84996298D01*
X137000095Y-84996298D01*
X137000103Y-84996300D01*
X137000105Y-84996300D01*
X137172095Y-84996300D01*
X137172097Y-84996300D01*
X137341975Y-84969394D01*
X137505551Y-84916245D01*
X137658800Y-84838161D01*
X137797946Y-84737065D01*
X137919565Y-84615446D01*
X138020661Y-84476300D01*
X138098745Y-84323051D01*
X138151894Y-84159475D01*
X138178800Y-83989597D01*
X138178800Y-83817605D01*
X138493400Y-83817605D01*
X138493400Y-83989594D01*
X138493401Y-83989610D01*
X138520305Y-84159472D01*
X138520305Y-84159473D01*
X138573454Y-84323049D01*
X138573458Y-84323057D01*
X138651540Y-84476302D01*
X138752634Y-84615445D01*
X138752641Y-84615453D01*
X138874246Y-84737058D01*
X138874254Y-84737065D01*
X139013400Y-84838161D01*
X139166649Y-84916245D01*
X139330225Y-84969394D01*
X139401823Y-84980734D01*
X139500089Y-84996298D01*
X139500095Y-84996298D01*
X139500103Y-84996300D01*
X139500105Y-84996300D01*
X139672095Y-84996300D01*
X139672097Y-84996300D01*
X139841975Y-84969394D01*
X140005551Y-84916245D01*
X140158800Y-84838161D01*
X140297946Y-84737065D01*
X140419565Y-84615446D01*
X140520661Y-84476300D01*
X140598745Y-84323051D01*
X140651894Y-84159475D01*
X140678800Y-83989597D01*
X140678800Y-83817605D01*
X140993400Y-83817605D01*
X140993400Y-83989594D01*
X140993401Y-83989610D01*
X141020305Y-84159472D01*
X141020305Y-84159473D01*
X141073454Y-84323049D01*
X141073458Y-84323057D01*
X141151540Y-84476302D01*
X141252634Y-84615445D01*
X141252641Y-84615453D01*
X141374246Y-84737058D01*
X141374254Y-84737065D01*
X141513400Y-84838161D01*
X141666649Y-84916245D01*
X141830225Y-84969394D01*
X141901823Y-84980734D01*
X142000089Y-84996298D01*
X142000095Y-84996298D01*
X142000103Y-84996300D01*
X142000105Y-84996300D01*
X142172095Y-84996300D01*
X142172097Y-84996300D01*
X142341975Y-84969394D01*
X142505551Y-84916245D01*
X142658800Y-84838161D01*
X142797946Y-84737065D01*
X142919565Y-84615446D01*
X143020661Y-84476300D01*
X143066923Y-84385506D01*
X167685600Y-84385506D01*
X167685600Y-84621693D01*
X167722548Y-84854972D01*
X167795531Y-85079590D01*
X167795535Y-85079598D01*
X167902758Y-85290035D01*
X168041582Y-85481109D01*
X168041589Y-85481117D01*
X168208582Y-85648110D01*
X168208590Y-85648117D01*
X168399667Y-85786943D01*
X168610108Y-85894168D01*
X168834732Y-85967153D01*
X169068008Y-86004100D01*
X169068010Y-86004100D01*
X169304190Y-86004100D01*
X169304192Y-86004100D01*
X169537468Y-85967153D01*
X169762092Y-85894168D01*
X169972533Y-85786943D01*
X170163610Y-85648117D01*
X170330617Y-85481110D01*
X170469443Y-85290033D01*
X170576668Y-85079592D01*
X170649653Y-84854968D01*
X170686600Y-84621692D01*
X170686600Y-84385508D01*
X170649653Y-84152232D01*
X170576668Y-83927608D01*
X170469443Y-83717167D01*
X170393281Y-83612340D01*
X170330617Y-83526090D01*
X170330610Y-83526082D01*
X170163617Y-83359089D01*
X170163609Y-83359082D01*
X169972535Y-83220258D01*
X169762098Y-83113035D01*
X169762090Y-83113031D01*
X169537472Y-83040048D01*
X169537470Y-83040047D01*
X169537468Y-83040047D01*
X169374589Y-83014249D01*
X169304193Y-83003100D01*
X169304192Y-83003100D01*
X169068008Y-83003100D01*
X169068006Y-83003100D01*
X168927213Y-83025399D01*
X168834732Y-83040047D01*
X168834730Y-83040047D01*
X168834727Y-83040048D01*
X168610109Y-83113031D01*
X168610101Y-83113035D01*
X168399664Y-83220258D01*
X168208590Y-83359082D01*
X168208582Y-83359089D01*
X168041589Y-83526082D01*
X168041582Y-83526090D01*
X167902758Y-83717164D01*
X167795535Y-83927601D01*
X167795531Y-83927609D01*
X167722548Y-84152227D01*
X167685600Y-84385506D01*
X143066923Y-84385506D01*
X143098745Y-84323051D01*
X143151894Y-84159475D01*
X143178800Y-83989597D01*
X143178800Y-83817603D01*
X143151894Y-83647725D01*
X143098745Y-83484149D01*
X143020661Y-83330900D01*
X142940274Y-83220258D01*
X142919565Y-83191754D01*
X142919558Y-83191746D01*
X142797953Y-83070141D01*
X142797945Y-83070134D01*
X142658802Y-82969040D01*
X142505557Y-82890958D01*
X142505549Y-82890954D01*
X142341973Y-82837805D01*
X142172110Y-82810901D01*
X142172098Y-82810900D01*
X142172097Y-82810900D01*
X142000103Y-82810900D01*
X142000101Y-82810900D01*
X142000089Y-82810901D01*
X141830227Y-82837805D01*
X141830226Y-82837805D01*
X141666650Y-82890954D01*
X141666642Y-82890958D01*
X141513397Y-82969040D01*
X141374254Y-83070134D01*
X141374246Y-83070141D01*
X141252641Y-83191746D01*
X141252634Y-83191754D01*
X141151540Y-83330897D01*
X141073458Y-83484142D01*
X141073454Y-83484150D01*
X141020305Y-83647726D01*
X141020305Y-83647727D01*
X140993401Y-83817589D01*
X140993400Y-83817605D01*
X140678800Y-83817605D01*
X140678800Y-83817603D01*
X140651894Y-83647725D01*
X140598745Y-83484149D01*
X140520661Y-83330900D01*
X140440274Y-83220258D01*
X140419565Y-83191754D01*
X140419558Y-83191746D01*
X140297953Y-83070141D01*
X140297945Y-83070134D01*
X140158802Y-82969040D01*
X140005557Y-82890958D01*
X140005549Y-82890954D01*
X139841973Y-82837805D01*
X139672110Y-82810901D01*
X139672098Y-82810900D01*
X139672097Y-82810900D01*
X139500103Y-82810900D01*
X139500101Y-82810900D01*
X139500089Y-82810901D01*
X139330227Y-82837805D01*
X139330226Y-82837805D01*
X139166650Y-82890954D01*
X139166642Y-82890958D01*
X139013397Y-82969040D01*
X138874254Y-83070134D01*
X138874246Y-83070141D01*
X138752641Y-83191746D01*
X138752634Y-83191754D01*
X138651540Y-83330897D01*
X138573458Y-83484142D01*
X138573454Y-83484150D01*
X138520305Y-83647726D01*
X138520305Y-83647727D01*
X138493401Y-83817589D01*
X138493400Y-83817605D01*
X138178800Y-83817605D01*
X138178800Y-83817603D01*
X138151894Y-83647725D01*
X138098745Y-83484149D01*
X138020661Y-83330900D01*
X137940274Y-83220258D01*
X137919565Y-83191754D01*
X137919558Y-83191746D01*
X137797953Y-83070141D01*
X137797945Y-83070134D01*
X137658802Y-82969040D01*
X137505557Y-82890958D01*
X137505549Y-82890954D01*
X137341973Y-82837805D01*
X137172110Y-82810901D01*
X137172098Y-82810900D01*
X137172097Y-82810900D01*
X137000103Y-82810900D01*
X137000101Y-82810900D01*
X137000089Y-82810901D01*
X136830227Y-82837805D01*
X136830226Y-82837805D01*
X136666650Y-82890954D01*
X136666642Y-82890958D01*
X136513397Y-82969040D01*
X136374254Y-83070134D01*
X136374246Y-83070141D01*
X136252641Y-83191746D01*
X136252634Y-83191754D01*
X136151540Y-83330897D01*
X136073458Y-83484142D01*
X136073454Y-83484150D01*
X136020305Y-83647726D01*
X136020305Y-83647727D01*
X135993401Y-83817589D01*
X135993400Y-83817605D01*
X135088978Y-83817605D01*
X135071292Y-83751600D01*
X135821330Y-83751600D01*
X135821330Y-83751599D01*
X135799273Y-83612343D01*
X135799272Y-83612340D01*
X135738776Y-83426152D01*
X135738774Y-83426145D01*
X135649889Y-83251702D01*
X135534817Y-83093319D01*
X135534810Y-83093311D01*
X135396388Y-82954889D01*
X135396380Y-82954882D01*
X135237997Y-82839810D01*
X135063554Y-82750925D01*
X135063547Y-82750923D01*
X134877359Y-82690427D01*
X134877356Y-82690426D01*
X134738100Y-82668369D01*
X134738100Y-83418407D01*
X134652980Y-83395600D01*
X134519220Y-83395600D01*
X134434100Y-83418407D01*
X134434100Y-82668369D01*
X134434099Y-82668369D01*
X134294843Y-82690426D01*
X134294840Y-82690427D01*
X134108652Y-82750923D01*
X134108645Y-82750925D01*
X133934202Y-82839810D01*
X133775819Y-82954882D01*
X133775811Y-82954889D01*
X133637389Y-83093311D01*
X133637382Y-83093319D01*
X133522310Y-83251702D01*
X133433425Y-83426145D01*
X133433423Y-83426152D01*
X133372927Y-83612340D01*
X133372926Y-83612343D01*
X133350869Y-83751599D01*
X129486987Y-83751599D01*
X129469443Y-83717167D01*
X129393281Y-83612340D01*
X129330617Y-83526090D01*
X129330610Y-83526082D01*
X129163617Y-83359089D01*
X129163609Y-83359082D01*
X128972535Y-83220258D01*
X128762098Y-83113035D01*
X128762090Y-83113031D01*
X128537472Y-83040048D01*
X128537470Y-83040047D01*
X128537468Y-83040047D01*
X128374589Y-83014249D01*
X128304193Y-83003100D01*
X128304192Y-83003100D01*
X128068008Y-83003100D01*
X128068006Y-83003100D01*
X127927213Y-83025399D01*
X127834732Y-83040047D01*
X127834730Y-83040047D01*
X127834727Y-83040048D01*
X127610109Y-83113031D01*
X127610101Y-83113035D01*
X127399664Y-83220258D01*
X127208590Y-83359082D01*
X127208582Y-83359089D01*
X127041589Y-83526082D01*
X127041582Y-83526090D01*
X126902758Y-83717164D01*
X126795535Y-83927601D01*
X126795531Y-83927609D01*
X126722548Y-84152227D01*
X126685600Y-84385506D01*
X125211600Y-84385506D01*
X125211600Y-81591600D01*
X125229906Y-81547406D01*
X125274100Y-81529100D01*
X171728100Y-81529100D01*
X171772294Y-81547406D01*
G37*
%TD.AperFunction*%
%TD*%
M02*
