%TF.GenerationSoftware,KiCad,Pcbnew,9.0.2*%
%TF.CreationDate,2025-07-11T21:06:49+12:00*%
%TF.ProjectId,T61,5436312e-6b69-4636-9164-5f7063625858,rev?*%
%TF.SameCoordinates,Original*%
%TF.FileFunction,Soldermask,Bot*%
%TF.FilePolarity,Negative*%
%FSLAX46Y46*%
G04 Gerber Fmt 4.6, Leading zero omitted, Abs format (unit mm)*
G04 Created by KiCad (PCBNEW 9.0.2) date 2025-07-11 21:06:49*
%MOMM*%
%LPD*%
G01*
G04 APERTURE LIST*
%ADD10C,2.006600*%
%ADD11C,2.500000*%
%ADD12C,1.574800*%
G04 APERTURE END LIST*
D10*
%TO.C,J9*%
X159186100Y-93903600D03*
%TD*%
D11*
%TO.C,UNK_HOLE_2*%
X169186100Y-84503600D03*
%TD*%
D10*
%TO.C,J3*%
X169686100Y-94753600D03*
%TD*%
%TO.C,J13*%
X134586100Y-83903600D03*
%TD*%
D11*
%TO.C,UNK_HOLE_1*%
X169186100Y-125503600D03*
%TD*%
D10*
%TO.C,J11*%
X137086100Y-83903600D03*
%TD*%
D11*
%TO.C,UNK_HOLE_3*%
X128186100Y-84503600D03*
%TD*%
D10*
%TO.C,J10*%
X156686100Y-93903600D03*
%TD*%
%TO.C,J5*%
X149086100Y-125453600D03*
X151626100Y-125453600D03*
X154166100Y-125453600D03*
X156706100Y-125453600D03*
X159246100Y-125453600D03*
%TD*%
%TO.C,J2*%
X154136100Y-95823600D03*
X154136100Y-98363600D03*
%TD*%
%TO.C,J8*%
X169686100Y-89103600D03*
%TD*%
%TO.C,J7*%
X169686100Y-99903600D03*
%TD*%
D11*
%TO.C,UNK_HOLE_0*%
X128186100Y-125503600D03*
%TD*%
D12*
%TO.C,U1*%
X130726100Y-90783600D03*
X130726100Y-93323600D03*
X130726100Y-95863600D03*
X130726100Y-98403600D03*
X145966100Y-93323600D03*
X135806100Y-121263600D03*
X130726100Y-100943600D03*
X130726100Y-103483600D03*
X145966100Y-88243600D03*
X130726100Y-106023600D03*
X130726100Y-108563600D03*
X130726100Y-111103600D03*
X130726100Y-113643600D03*
X130726100Y-116183600D03*
X130726100Y-118723600D03*
X130726100Y-121263600D03*
X145966100Y-121263600D03*
X145966100Y-118723600D03*
X145966100Y-116183600D03*
X145966100Y-113643600D03*
X145966100Y-111103600D03*
X145966100Y-108563600D03*
X145966100Y-106023600D03*
X145966100Y-103483600D03*
X145966100Y-100943600D03*
X145966100Y-98403600D03*
X145966100Y-95863600D03*
X143426100Y-116183600D03*
X143426100Y-113643600D03*
X140886100Y-116183600D03*
X140886100Y-113643600D03*
X138346100Y-116183600D03*
X138346100Y-113643600D03*
X135806100Y-116183600D03*
X135806100Y-113643600D03*
X133266100Y-116183600D03*
X133266100Y-113643600D03*
X137076100Y-88243600D03*
X139616100Y-88243600D03*
X130726100Y-88243600D03*
X145966100Y-90783600D03*
X138346100Y-121263600D03*
%TD*%
D10*
%TO.C,J1*%
X127536100Y-111633600D03*
X127536100Y-109093600D03*
X127536100Y-106553600D03*
X127536100Y-104013600D03*
%TD*%
%TO.C,J12*%
X139586100Y-83903600D03*
%TD*%
%TO.C,J6*%
X142086100Y-83903600D03*
%TD*%
M02*
