M48
; DRILL file {KiCad 9.0.2} date 2025-07-11T21:06:51+1200
; FORMAT={-:-/ absolute / metric / decimal}
; #@! TF.CreationDate,2025-07-11T21:06:51+12:00
; #@! TF.GenerationSoftware,Kicad,Pcbnew,9.0.2
; #@! TF.FileFunction,Plated,1,2,PTH
FMAT,2
METRIC
; #@! TA.AperFunction,Plated,PTH,ViaDrill
T1C0.350
; #@! TA.AperFunction,Plated,PTH,ComponentDrill
T2C0.965
; #@! TA.AperFunction,Plated,PTH,ComponentDrill
T3C1.016
%
G90
G05
T1
X126.886Y-93.604
X126.886Y-121.904
X129.486Y-115.004
X131.086Y-82.704
X131.386Y-124.204
X133.486Y-121.404
X133.886Y-118.004
X135.586Y-124.204
X135.986Y-91.404
X136.086Y-96.704
X136.186Y-107.304
X136.586Y-109.904
X138.586Y-124.704
X141.186Y-91.304
X141.186Y-127.404
X142.086Y-102.204
X142.286Y-104.704
X142.586Y-108.704
X143.786Y-98.904
X145.186Y-84.204
X145.386Y-124.104
X152.886Y-84.304
X155.086Y-82.804
X155.356Y-87.174
X155.686Y-127.204
X157.486Y-95.904
X157.586Y-109.904
X158.686Y-89.574
X159.786Y-85.304
X160.286Y-123.804
X162.086Y-122.104
X162.786Y-89.604
X162.986Y-83.704
X164.486Y-112.004
X165.086Y-91.604
X165.486Y-123.004
X166.386Y-117.704
X167.786Y-89.604
X169.786Y-109.404
X169.786Y-118.204
T2
X130.726Y-88.244
X130.726Y-90.784
X130.726Y-93.324
X130.726Y-95.864
X130.726Y-98.404
X130.726Y-100.944
X130.726Y-103.484
X130.726Y-106.024
X130.726Y-108.564
X130.726Y-111.104
X130.726Y-113.644
X130.726Y-116.184
X130.726Y-118.724
X130.726Y-121.264
X133.266Y-113.644
X133.266Y-116.184
X135.806Y-113.644
X135.806Y-116.184
X135.806Y-121.264
X137.076Y-88.244
X138.346Y-113.644
X138.346Y-116.184
X138.346Y-121.264
X139.616Y-88.244
X140.886Y-113.644
X140.886Y-116.184
X143.426Y-113.644
X143.426Y-116.184
X145.966Y-88.244
X145.966Y-90.784
X145.966Y-93.324
X145.966Y-95.864
X145.966Y-98.404
X145.966Y-100.944
X145.966Y-103.484
X145.966Y-106.024
X145.966Y-108.564
X145.966Y-111.104
X145.966Y-113.644
X145.966Y-116.184
X145.966Y-118.724
X145.966Y-121.264
T3
X127.536Y-104.014
X127.536Y-106.554
X127.536Y-109.094
X127.536Y-111.634
X134.586Y-83.904
X137.086Y-83.904
X139.586Y-83.904
X142.086Y-83.904
X149.086Y-125.454
X151.626Y-125.454
X154.136Y-95.824
X154.136Y-98.364
X154.166Y-125.454
X156.686Y-93.904
X156.706Y-125.454
X159.186Y-93.904
X159.246Y-125.454
X169.686Y-89.104
X169.686Y-94.754
X169.686Y-99.904
M30
