%TF.GenerationSoftware,KiCad,Pcbnew,9.0.2*%
%TF.CreationDate,2025-07-11T21:06:49+12:00*%
%TF.ProjectId,T61,5436312e-6b69-4636-9164-5f7063625858,rev?*%
%TF.SameCoordinates,Original*%
%TF.FileFunction,Legend,Bot*%
%TF.FilePolarity,Positive*%
%FSLAX46Y46*%
G04 Gerber Fmt 4.6, Leading zero omitted, Abs format (unit mm)*
G04 Created by KiCad (PCBNEW 9.0.2) date 2025-07-11 21:06:49*
%MOMM*%
%LPD*%
G01*
G04 APERTURE LIST*
%ADD10C,0.190500*%
G04 APERTURE END LIST*
D10*
X134765101Y-112293115D02*
X135844601Y-112293115D01*
X134765101Y-111830472D02*
X135330553Y-111830472D01*
X135330553Y-111830472D02*
X135433363Y-111881877D01*
X135433363Y-111881877D02*
X135484767Y-111984686D01*
X135484767Y-111984686D02*
X135484767Y-112138900D01*
X135484767Y-112138900D02*
X135433363Y-112241710D01*
X135433363Y-112241710D02*
X135381958Y-112293115D01*
X135484767Y-111470639D02*
X135484767Y-111059401D01*
X135844601Y-111316425D02*
X134919315Y-111316425D01*
X134919315Y-111316425D02*
X134816506Y-111265020D01*
X134816506Y-111265020D02*
X134765101Y-111162210D01*
X134765101Y-111162210D02*
X134765101Y-111059401D01*
X135484767Y-110853782D02*
X135484767Y-110442544D01*
X135844601Y-110699568D02*
X134919315Y-110699568D01*
X134919315Y-110699568D02*
X134816506Y-110648163D01*
X134816506Y-110648163D02*
X134765101Y-110545353D01*
X134765101Y-110545353D02*
X134765101Y-110442544D01*
X135484767Y-110082711D02*
X134405267Y-110082711D01*
X135433363Y-110082711D02*
X135484767Y-109979901D01*
X135484767Y-109979901D02*
X135484767Y-109774282D01*
X135484767Y-109774282D02*
X135433363Y-109671473D01*
X135433363Y-109671473D02*
X135381958Y-109620068D01*
X135381958Y-109620068D02*
X135279148Y-109568663D01*
X135279148Y-109568663D02*
X134970720Y-109568663D01*
X134970720Y-109568663D02*
X134867910Y-109620068D01*
X134867910Y-109620068D02*
X134816506Y-109671473D01*
X134816506Y-109671473D02*
X134765101Y-109774282D01*
X134765101Y-109774282D02*
X134765101Y-109979901D01*
X134765101Y-109979901D02*
X134816506Y-110082711D01*
X134816506Y-109157425D02*
X134765101Y-109054616D01*
X134765101Y-109054616D02*
X134765101Y-108848997D01*
X134765101Y-108848997D02*
X134816506Y-108746187D01*
X134816506Y-108746187D02*
X134919315Y-108694783D01*
X134919315Y-108694783D02*
X134970720Y-108694783D01*
X134970720Y-108694783D02*
X135073529Y-108746187D01*
X135073529Y-108746187D02*
X135124934Y-108848997D01*
X135124934Y-108848997D02*
X135124934Y-109003211D01*
X135124934Y-109003211D02*
X135176339Y-109106021D01*
X135176339Y-109106021D02*
X135279148Y-109157425D01*
X135279148Y-109157425D02*
X135330553Y-109157425D01*
X135330553Y-109157425D02*
X135433363Y-109106021D01*
X135433363Y-109106021D02*
X135484767Y-109003211D01*
X135484767Y-109003211D02*
X135484767Y-108848997D01*
X135484767Y-108848997D02*
X135433363Y-108746187D01*
X134867910Y-108232140D02*
X134816506Y-108180735D01*
X134816506Y-108180735D02*
X134765101Y-108232140D01*
X134765101Y-108232140D02*
X134816506Y-108283544D01*
X134816506Y-108283544D02*
X134867910Y-108232140D01*
X134867910Y-108232140D02*
X134765101Y-108232140D01*
X135433363Y-108232140D02*
X135381958Y-108180735D01*
X135381958Y-108180735D02*
X135330553Y-108232140D01*
X135330553Y-108232140D02*
X135381958Y-108283544D01*
X135381958Y-108283544D02*
X135433363Y-108232140D01*
X135433363Y-108232140D02*
X135330553Y-108232140D01*
X135896006Y-106947020D02*
X134508077Y-107872306D01*
X135896006Y-105816115D02*
X134508077Y-106741401D01*
X135484767Y-104993639D02*
X134610886Y-104993639D01*
X134610886Y-104993639D02*
X134508077Y-105045044D01*
X134508077Y-105045044D02*
X134456672Y-105096448D01*
X134456672Y-105096448D02*
X134405267Y-105199258D01*
X134405267Y-105199258D02*
X134405267Y-105353472D01*
X134405267Y-105353472D02*
X134456672Y-105456282D01*
X134816506Y-104993639D02*
X134765101Y-105096448D01*
X134765101Y-105096448D02*
X134765101Y-105302067D01*
X134765101Y-105302067D02*
X134816506Y-105404877D01*
X134816506Y-105404877D02*
X134867910Y-105456282D01*
X134867910Y-105456282D02*
X134970720Y-105507686D01*
X134970720Y-105507686D02*
X135279148Y-105507686D01*
X135279148Y-105507686D02*
X135381958Y-105456282D01*
X135381958Y-105456282D02*
X135433363Y-105404877D01*
X135433363Y-105404877D02*
X135484767Y-105302067D01*
X135484767Y-105302067D02*
X135484767Y-105096448D01*
X135484767Y-105096448D02*
X135433363Y-104993639D01*
X134765101Y-104479592D02*
X135484767Y-104479592D01*
X135844601Y-104479592D02*
X135793196Y-104530996D01*
X135793196Y-104530996D02*
X135741791Y-104479592D01*
X135741791Y-104479592D02*
X135793196Y-104428187D01*
X135793196Y-104428187D02*
X135844601Y-104479592D01*
X135844601Y-104479592D02*
X135741791Y-104479592D01*
X135484767Y-104119758D02*
X135484767Y-103708520D01*
X135844601Y-103965544D02*
X134919315Y-103965544D01*
X134919315Y-103965544D02*
X134816506Y-103914139D01*
X134816506Y-103914139D02*
X134765101Y-103811329D01*
X134765101Y-103811329D02*
X134765101Y-103708520D01*
X134765101Y-103348687D02*
X135844601Y-103348687D01*
X134765101Y-102886044D02*
X135330553Y-102886044D01*
X135330553Y-102886044D02*
X135433363Y-102937449D01*
X135433363Y-102937449D02*
X135484767Y-103040258D01*
X135484767Y-103040258D02*
X135484767Y-103194472D01*
X135484767Y-103194472D02*
X135433363Y-103297282D01*
X135433363Y-103297282D02*
X135381958Y-103348687D01*
X135484767Y-101909354D02*
X134765101Y-101909354D01*
X135484767Y-102371997D02*
X134919315Y-102371997D01*
X134919315Y-102371997D02*
X134816506Y-102320592D01*
X134816506Y-102320592D02*
X134765101Y-102217782D01*
X134765101Y-102217782D02*
X134765101Y-102063568D01*
X134765101Y-102063568D02*
X134816506Y-101960759D01*
X134816506Y-101960759D02*
X134867910Y-101909354D01*
X134765101Y-101395307D02*
X135844601Y-101395307D01*
X135433363Y-101395307D02*
X135484767Y-101292497D01*
X135484767Y-101292497D02*
X135484767Y-101086878D01*
X135484767Y-101086878D02*
X135433363Y-100984069D01*
X135433363Y-100984069D02*
X135381958Y-100932664D01*
X135381958Y-100932664D02*
X135279148Y-100881259D01*
X135279148Y-100881259D02*
X134970720Y-100881259D01*
X134970720Y-100881259D02*
X134867910Y-100932664D01*
X134867910Y-100932664D02*
X134816506Y-100984069D01*
X134816506Y-100984069D02*
X134765101Y-101086878D01*
X134765101Y-101086878D02*
X134765101Y-101292497D01*
X134765101Y-101292497D02*
X134816506Y-101395307D01*
X134867910Y-100418617D02*
X134816506Y-100367212D01*
X134816506Y-100367212D02*
X134765101Y-100418617D01*
X134765101Y-100418617D02*
X134816506Y-100470021D01*
X134816506Y-100470021D02*
X134867910Y-100418617D01*
X134867910Y-100418617D02*
X134765101Y-100418617D01*
X134816506Y-99441926D02*
X134765101Y-99544735D01*
X134765101Y-99544735D02*
X134765101Y-99750354D01*
X134765101Y-99750354D02*
X134816506Y-99853164D01*
X134816506Y-99853164D02*
X134867910Y-99904569D01*
X134867910Y-99904569D02*
X134970720Y-99955973D01*
X134970720Y-99955973D02*
X135279148Y-99955973D01*
X135279148Y-99955973D02*
X135381958Y-99904569D01*
X135381958Y-99904569D02*
X135433363Y-99853164D01*
X135433363Y-99853164D02*
X135484767Y-99750354D01*
X135484767Y-99750354D02*
X135484767Y-99544735D01*
X135484767Y-99544735D02*
X135433363Y-99441926D01*
X134765101Y-98825068D02*
X134816506Y-98927878D01*
X134816506Y-98927878D02*
X134867910Y-98979283D01*
X134867910Y-98979283D02*
X134970720Y-99030687D01*
X134970720Y-99030687D02*
X135279148Y-99030687D01*
X135279148Y-99030687D02*
X135381958Y-98979283D01*
X135381958Y-98979283D02*
X135433363Y-98927878D01*
X135433363Y-98927878D02*
X135484767Y-98825068D01*
X135484767Y-98825068D02*
X135484767Y-98670854D01*
X135484767Y-98670854D02*
X135433363Y-98568045D01*
X135433363Y-98568045D02*
X135381958Y-98516640D01*
X135381958Y-98516640D02*
X135279148Y-98465235D01*
X135279148Y-98465235D02*
X134970720Y-98465235D01*
X134970720Y-98465235D02*
X134867910Y-98516640D01*
X134867910Y-98516640D02*
X134816506Y-98568045D01*
X134816506Y-98568045D02*
X134765101Y-98670854D01*
X134765101Y-98670854D02*
X134765101Y-98825068D01*
X134765101Y-98002593D02*
X135484767Y-98002593D01*
X135381958Y-98002593D02*
X135433363Y-97951188D01*
X135433363Y-97951188D02*
X135484767Y-97848378D01*
X135484767Y-97848378D02*
X135484767Y-97694164D01*
X135484767Y-97694164D02*
X135433363Y-97591355D01*
X135433363Y-97591355D02*
X135330553Y-97539950D01*
X135330553Y-97539950D02*
X134765101Y-97539950D01*
X135330553Y-97539950D02*
X135433363Y-97488545D01*
X135433363Y-97488545D02*
X135484767Y-97385736D01*
X135484767Y-97385736D02*
X135484767Y-97231521D01*
X135484767Y-97231521D02*
X135433363Y-97128712D01*
X135433363Y-97128712D02*
X135330553Y-97077307D01*
X135330553Y-97077307D02*
X134765101Y-97077307D01*
X135896006Y-95792188D02*
X134508077Y-96717474D01*
X135844601Y-95535164D02*
X134765101Y-95278140D01*
X134765101Y-95278140D02*
X135536172Y-95072521D01*
X135536172Y-95072521D02*
X134765101Y-94866902D01*
X134765101Y-94866902D02*
X135844601Y-94609879D01*
X134765101Y-94198641D02*
X135844601Y-94198641D01*
X134765101Y-93735998D02*
X135330553Y-93735998D01*
X135330553Y-93735998D02*
X135433363Y-93787403D01*
X135433363Y-93787403D02*
X135484767Y-93890212D01*
X135484767Y-93890212D02*
X135484767Y-94044426D01*
X135484767Y-94044426D02*
X135433363Y-94147236D01*
X135433363Y-94147236D02*
X135381958Y-94198641D01*
X134816506Y-92810713D02*
X134765101Y-92913522D01*
X134765101Y-92913522D02*
X134765101Y-93119141D01*
X134765101Y-93119141D02*
X134816506Y-93221951D01*
X134816506Y-93221951D02*
X134919315Y-93273355D01*
X134919315Y-93273355D02*
X135330553Y-93273355D01*
X135330553Y-93273355D02*
X135433363Y-93221951D01*
X135433363Y-93221951D02*
X135484767Y-93119141D01*
X135484767Y-93119141D02*
X135484767Y-92913522D01*
X135484767Y-92913522D02*
X135433363Y-92810713D01*
X135433363Y-92810713D02*
X135330553Y-92759308D01*
X135330553Y-92759308D02*
X135227744Y-92759308D01*
X135227744Y-92759308D02*
X135124934Y-93273355D01*
X134816506Y-91885427D02*
X134765101Y-91988236D01*
X134765101Y-91988236D02*
X134765101Y-92193855D01*
X134765101Y-92193855D02*
X134816506Y-92296665D01*
X134816506Y-92296665D02*
X134919315Y-92348069D01*
X134919315Y-92348069D02*
X135330553Y-92348069D01*
X135330553Y-92348069D02*
X135433363Y-92296665D01*
X135433363Y-92296665D02*
X135484767Y-92193855D01*
X135484767Y-92193855D02*
X135484767Y-91988236D01*
X135484767Y-91988236D02*
X135433363Y-91885427D01*
X135433363Y-91885427D02*
X135330553Y-91834022D01*
X135330553Y-91834022D02*
X135227744Y-91834022D01*
X135227744Y-91834022D02*
X135124934Y-92348069D01*
X134765101Y-91217164D02*
X134816506Y-91319974D01*
X134816506Y-91319974D02*
X134919315Y-91371379D01*
X134919315Y-91371379D02*
X135844601Y-91371379D01*
X134816506Y-90394689D02*
X134765101Y-90497498D01*
X134765101Y-90497498D02*
X134765101Y-90703117D01*
X134765101Y-90703117D02*
X134816506Y-90805927D01*
X134816506Y-90805927D02*
X134919315Y-90857331D01*
X134919315Y-90857331D02*
X135330553Y-90857331D01*
X135330553Y-90857331D02*
X135433363Y-90805927D01*
X135433363Y-90805927D02*
X135484767Y-90703117D01*
X135484767Y-90703117D02*
X135484767Y-90497498D01*
X135484767Y-90497498D02*
X135433363Y-90394689D01*
X135433363Y-90394689D02*
X135330553Y-90343284D01*
X135330553Y-90343284D02*
X135227744Y-90343284D01*
X135227744Y-90343284D02*
X135124934Y-90857331D01*
X134765101Y-89417998D02*
X135844601Y-89417998D01*
X134816506Y-89417998D02*
X134765101Y-89520807D01*
X134765101Y-89520807D02*
X134765101Y-89726426D01*
X134765101Y-89726426D02*
X134816506Y-89829236D01*
X134816506Y-89829236D02*
X134867910Y-89880641D01*
X134867910Y-89880641D02*
X134970720Y-89932045D01*
X134970720Y-89932045D02*
X135279148Y-89932045D01*
X135279148Y-89932045D02*
X135381958Y-89880641D01*
X135381958Y-89880641D02*
X135433363Y-89829236D01*
X135433363Y-89829236D02*
X135484767Y-89726426D01*
X135484767Y-89726426D02*
X135484767Y-89520807D01*
X135484767Y-89520807D02*
X135433363Y-89417998D01*
X134867910Y-88287094D02*
X134816506Y-88338498D01*
X134816506Y-88338498D02*
X134765101Y-88492713D01*
X134765101Y-88492713D02*
X134765101Y-88595522D01*
X134765101Y-88595522D02*
X134816506Y-88749736D01*
X134816506Y-88749736D02*
X134919315Y-88852546D01*
X134919315Y-88852546D02*
X135022125Y-88903951D01*
X135022125Y-88903951D02*
X135227744Y-88955355D01*
X135227744Y-88955355D02*
X135381958Y-88955355D01*
X135381958Y-88955355D02*
X135587577Y-88903951D01*
X135587577Y-88903951D02*
X135690386Y-88852546D01*
X135690386Y-88852546D02*
X135793196Y-88749736D01*
X135793196Y-88749736D02*
X135844601Y-88595522D01*
X135844601Y-88595522D02*
X135844601Y-88492713D01*
X135844601Y-88492713D02*
X135793196Y-88338498D01*
X135793196Y-88338498D02*
X135741791Y-88287094D01*
X134765101Y-87670236D02*
X134816506Y-87773046D01*
X134816506Y-87773046D02*
X134867910Y-87824451D01*
X134867910Y-87824451D02*
X134970720Y-87875855D01*
X134970720Y-87875855D02*
X135279148Y-87875855D01*
X135279148Y-87875855D02*
X135381958Y-87824451D01*
X135381958Y-87824451D02*
X135433363Y-87773046D01*
X135433363Y-87773046D02*
X135484767Y-87670236D01*
X135484767Y-87670236D02*
X135484767Y-87516022D01*
X135484767Y-87516022D02*
X135433363Y-87413213D01*
X135433363Y-87413213D02*
X135381958Y-87361808D01*
X135381958Y-87361808D02*
X135279148Y-87310403D01*
X135279148Y-87310403D02*
X134970720Y-87310403D01*
X134970720Y-87310403D02*
X134867910Y-87361808D01*
X134867910Y-87361808D02*
X134816506Y-87413213D01*
X134816506Y-87413213D02*
X134765101Y-87516022D01*
X134765101Y-87516022D02*
X134765101Y-87670236D01*
X134765101Y-86847761D02*
X135484767Y-86847761D01*
X135279148Y-86847761D02*
X135381958Y-86796356D01*
X135381958Y-86796356D02*
X135433363Y-86744951D01*
X135433363Y-86744951D02*
X135484767Y-86642142D01*
X135484767Y-86642142D02*
X135484767Y-86539332D01*
X134765101Y-85716856D02*
X135844601Y-85716856D01*
X134816506Y-85716856D02*
X134765101Y-85819665D01*
X134765101Y-85819665D02*
X134765101Y-86025284D01*
X134765101Y-86025284D02*
X134816506Y-86128094D01*
X134816506Y-86128094D02*
X134867910Y-86179499D01*
X134867910Y-86179499D02*
X134970720Y-86230903D01*
X134970720Y-86230903D02*
X135279148Y-86230903D01*
X135279148Y-86230903D02*
X135381958Y-86179499D01*
X135381958Y-86179499D02*
X135433363Y-86128094D01*
X135433363Y-86128094D02*
X135484767Y-86025284D01*
X135484767Y-86025284D02*
X135484767Y-85819665D01*
X135484767Y-85819665D02*
X135433363Y-85716856D01*
X135896006Y-84431737D02*
X134508077Y-85357023D01*
X133746832Y-103811328D02*
X133746832Y-103400090D01*
X134106666Y-103657114D02*
X133181380Y-103657114D01*
X133181380Y-103657114D02*
X133078571Y-103605709D01*
X133078571Y-103605709D02*
X133027166Y-103502899D01*
X133027166Y-103502899D02*
X133027166Y-103400090D01*
X133027166Y-103040257D02*
X134106666Y-103040257D01*
X133027166Y-102577614D02*
X133592618Y-102577614D01*
X133592618Y-102577614D02*
X133695428Y-102629019D01*
X133695428Y-102629019D02*
X133746832Y-102731828D01*
X133746832Y-102731828D02*
X133746832Y-102886042D01*
X133746832Y-102886042D02*
X133695428Y-102988852D01*
X133695428Y-102988852D02*
X133644023Y-103040257D01*
X133027166Y-102063567D02*
X133746832Y-102063567D01*
X134106666Y-102063567D02*
X134055261Y-102114971D01*
X134055261Y-102114971D02*
X134003856Y-102063567D01*
X134003856Y-102063567D02*
X134055261Y-102012162D01*
X134055261Y-102012162D02*
X134106666Y-102063567D01*
X134106666Y-102063567D02*
X134003856Y-102063567D01*
X133746832Y-101549519D02*
X133027166Y-101549519D01*
X133644023Y-101549519D02*
X133695428Y-101498114D01*
X133695428Y-101498114D02*
X133746832Y-101395304D01*
X133746832Y-101395304D02*
X133746832Y-101241090D01*
X133746832Y-101241090D02*
X133695428Y-101138281D01*
X133695428Y-101138281D02*
X133592618Y-101086876D01*
X133592618Y-101086876D02*
X133027166Y-101086876D01*
X133027166Y-100572829D02*
X134106666Y-100572829D01*
X133438404Y-100470019D02*
X133027166Y-100161591D01*
X133746832Y-100161591D02*
X133335594Y-100572829D01*
X133746832Y-99698948D02*
X132667332Y-99698948D01*
X133695428Y-99698948D02*
X133746832Y-99596138D01*
X133746832Y-99596138D02*
X133746832Y-99390519D01*
X133746832Y-99390519D02*
X133695428Y-99287710D01*
X133695428Y-99287710D02*
X133644023Y-99236305D01*
X133644023Y-99236305D02*
X133541213Y-99184900D01*
X133541213Y-99184900D02*
X133232785Y-99184900D01*
X133232785Y-99184900D02*
X133129975Y-99236305D01*
X133129975Y-99236305D02*
X133078571Y-99287710D01*
X133078571Y-99287710D02*
X133027166Y-99390519D01*
X133027166Y-99390519D02*
X133027166Y-99596138D01*
X133027166Y-99596138D02*
X133078571Y-99698948D01*
X133027166Y-98259615D02*
X133592618Y-98259615D01*
X133592618Y-98259615D02*
X133695428Y-98311020D01*
X133695428Y-98311020D02*
X133746832Y-98413829D01*
X133746832Y-98413829D02*
X133746832Y-98619448D01*
X133746832Y-98619448D02*
X133695428Y-98722258D01*
X133078571Y-98259615D02*
X133027166Y-98362424D01*
X133027166Y-98362424D02*
X133027166Y-98619448D01*
X133027166Y-98619448D02*
X133078571Y-98722258D01*
X133078571Y-98722258D02*
X133181380Y-98773662D01*
X133181380Y-98773662D02*
X133284190Y-98773662D01*
X133284190Y-98773662D02*
X133386999Y-98722258D01*
X133386999Y-98722258D02*
X133438404Y-98619448D01*
X133438404Y-98619448D02*
X133438404Y-98362424D01*
X133438404Y-98362424D02*
X133489809Y-98259615D01*
X133027166Y-97282925D02*
X134106666Y-97282925D01*
X133078571Y-97282925D02*
X133027166Y-97385734D01*
X133027166Y-97385734D02*
X133027166Y-97591353D01*
X133027166Y-97591353D02*
X133078571Y-97694163D01*
X133078571Y-97694163D02*
X133129975Y-97745568D01*
X133129975Y-97745568D02*
X133232785Y-97796972D01*
X133232785Y-97796972D02*
X133541213Y-97796972D01*
X133541213Y-97796972D02*
X133644023Y-97745568D01*
X133644023Y-97745568D02*
X133695428Y-97694163D01*
X133695428Y-97694163D02*
X133746832Y-97591353D01*
X133746832Y-97591353D02*
X133746832Y-97385734D01*
X133746832Y-97385734D02*
X133695428Y-97282925D01*
X133438404Y-96768878D02*
X133438404Y-95946402D01*
X133027166Y-95432354D02*
X134106666Y-95432354D01*
X133438404Y-95329544D02*
X133027166Y-95021116D01*
X133746832Y-95021116D02*
X133335594Y-95432354D01*
X133078571Y-94147235D02*
X133027166Y-94250044D01*
X133027166Y-94250044D02*
X133027166Y-94455663D01*
X133027166Y-94455663D02*
X133078571Y-94558473D01*
X133078571Y-94558473D02*
X133181380Y-94609877D01*
X133181380Y-94609877D02*
X133592618Y-94609877D01*
X133592618Y-94609877D02*
X133695428Y-94558473D01*
X133695428Y-94558473D02*
X133746832Y-94455663D01*
X133746832Y-94455663D02*
X133746832Y-94250044D01*
X133746832Y-94250044D02*
X133695428Y-94147235D01*
X133695428Y-94147235D02*
X133592618Y-94095830D01*
X133592618Y-94095830D02*
X133489809Y-94095830D01*
X133489809Y-94095830D02*
X133386999Y-94609877D01*
X133746832Y-93735996D02*
X133027166Y-93478972D01*
X133746832Y-93221949D02*
X133027166Y-93478972D01*
X133027166Y-93478972D02*
X132770142Y-93581782D01*
X132770142Y-93581782D02*
X132718737Y-93633187D01*
X132718737Y-93633187D02*
X132667332Y-93735996D01*
X133027166Y-92810711D02*
X134106666Y-92810711D01*
X133695428Y-92810711D02*
X133746832Y-92707901D01*
X133746832Y-92707901D02*
X133746832Y-92502282D01*
X133746832Y-92502282D02*
X133695428Y-92399473D01*
X133695428Y-92399473D02*
X133644023Y-92348068D01*
X133644023Y-92348068D02*
X133541213Y-92296663D01*
X133541213Y-92296663D02*
X133232785Y-92296663D01*
X133232785Y-92296663D02*
X133129975Y-92348068D01*
X133129975Y-92348068D02*
X133078571Y-92399473D01*
X133078571Y-92399473D02*
X133027166Y-92502282D01*
X133027166Y-92502282D02*
X133027166Y-92707901D01*
X133027166Y-92707901D02*
X133078571Y-92810711D01*
X133027166Y-91679806D02*
X133078571Y-91782616D01*
X133078571Y-91782616D02*
X133129975Y-91834021D01*
X133129975Y-91834021D02*
X133232785Y-91885425D01*
X133232785Y-91885425D02*
X133541213Y-91885425D01*
X133541213Y-91885425D02*
X133644023Y-91834021D01*
X133644023Y-91834021D02*
X133695428Y-91782616D01*
X133695428Y-91782616D02*
X133746832Y-91679806D01*
X133746832Y-91679806D02*
X133746832Y-91525592D01*
X133746832Y-91525592D02*
X133695428Y-91422783D01*
X133695428Y-91422783D02*
X133644023Y-91371378D01*
X133644023Y-91371378D02*
X133541213Y-91319973D01*
X133541213Y-91319973D02*
X133232785Y-91319973D01*
X133232785Y-91319973D02*
X133129975Y-91371378D01*
X133129975Y-91371378D02*
X133078571Y-91422783D01*
X133078571Y-91422783D02*
X133027166Y-91525592D01*
X133027166Y-91525592D02*
X133027166Y-91679806D01*
X133027166Y-90394688D02*
X133592618Y-90394688D01*
X133592618Y-90394688D02*
X133695428Y-90446093D01*
X133695428Y-90446093D02*
X133746832Y-90548902D01*
X133746832Y-90548902D02*
X133746832Y-90754521D01*
X133746832Y-90754521D02*
X133695428Y-90857331D01*
X133078571Y-90394688D02*
X133027166Y-90497497D01*
X133027166Y-90497497D02*
X133027166Y-90754521D01*
X133027166Y-90754521D02*
X133078571Y-90857331D01*
X133078571Y-90857331D02*
X133181380Y-90908735D01*
X133181380Y-90908735D02*
X133284190Y-90908735D01*
X133284190Y-90908735D02*
X133386999Y-90857331D01*
X133386999Y-90857331D02*
X133438404Y-90754521D01*
X133438404Y-90754521D02*
X133438404Y-90497497D01*
X133438404Y-90497497D02*
X133489809Y-90394688D01*
X133027166Y-89880641D02*
X133746832Y-89880641D01*
X133541213Y-89880641D02*
X133644023Y-89829236D01*
X133644023Y-89829236D02*
X133695428Y-89777831D01*
X133695428Y-89777831D02*
X133746832Y-89675022D01*
X133746832Y-89675022D02*
X133746832Y-89572212D01*
X133027166Y-88749736D02*
X134106666Y-88749736D01*
X133078571Y-88749736D02*
X133027166Y-88852545D01*
X133027166Y-88852545D02*
X133027166Y-89058164D01*
X133027166Y-89058164D02*
X133078571Y-89160974D01*
X133078571Y-89160974D02*
X133129975Y-89212379D01*
X133129975Y-89212379D02*
X133232785Y-89263783D01*
X133232785Y-89263783D02*
X133541213Y-89263783D01*
X133541213Y-89263783D02*
X133644023Y-89212379D01*
X133644023Y-89212379D02*
X133695428Y-89160974D01*
X133695428Y-89160974D02*
X133746832Y-89058164D01*
X133746832Y-89058164D02*
X133746832Y-88852545D01*
X133746832Y-88852545D02*
X133695428Y-88749736D01*
X133438404Y-88235689D02*
X133438404Y-87413213D01*
X133746832Y-86436522D02*
X133027166Y-86436522D01*
X133746832Y-86899165D02*
X133181380Y-86899165D01*
X133181380Y-86899165D02*
X133078571Y-86847760D01*
X133078571Y-86847760D02*
X133027166Y-86744950D01*
X133027166Y-86744950D02*
X133027166Y-86590736D01*
X133027166Y-86590736D02*
X133078571Y-86487927D01*
X133078571Y-86487927D02*
X133129975Y-86436522D01*
X133078571Y-85973879D02*
X133027166Y-85871070D01*
X133027166Y-85871070D02*
X133027166Y-85665451D01*
X133027166Y-85665451D02*
X133078571Y-85562641D01*
X133078571Y-85562641D02*
X133181380Y-85511237D01*
X133181380Y-85511237D02*
X133232785Y-85511237D01*
X133232785Y-85511237D02*
X133335594Y-85562641D01*
X133335594Y-85562641D02*
X133386999Y-85665451D01*
X133386999Y-85665451D02*
X133386999Y-85819665D01*
X133386999Y-85819665D02*
X133438404Y-85922475D01*
X133438404Y-85922475D02*
X133541213Y-85973879D01*
X133541213Y-85973879D02*
X133592618Y-85973879D01*
X133592618Y-85973879D02*
X133695428Y-85922475D01*
X133695428Y-85922475D02*
X133746832Y-85819665D01*
X133746832Y-85819665D02*
X133746832Y-85665451D01*
X133746832Y-85665451D02*
X133695428Y-85562641D01*
X133027166Y-85048594D02*
X134106666Y-85048594D01*
X133695428Y-85048594D02*
X133746832Y-84945784D01*
X133746832Y-84945784D02*
X133746832Y-84740165D01*
X133746832Y-84740165D02*
X133695428Y-84637356D01*
X133695428Y-84637356D02*
X133644023Y-84585951D01*
X133644023Y-84585951D02*
X133541213Y-84534546D01*
X133541213Y-84534546D02*
X133232785Y-84534546D01*
X133232785Y-84534546D02*
X133129975Y-84585951D01*
X133129975Y-84585951D02*
X133078571Y-84637356D01*
X133078571Y-84637356D02*
X133027166Y-84740165D01*
X133027166Y-84740165D02*
X133027166Y-84945784D01*
X133027166Y-84945784D02*
X133078571Y-85048594D01*
M02*
