%TF.GenerationSoftware,KiCad,Pcbnew,9.0.2*%
%TF.CreationDate,2025-07-11T21:06:49+12:00*%
%TF.ProjectId,T61,5436312e-6b69-4636-9164-5f7063625858,rev?*%
%TF.SameCoordinates,Original*%
%TF.FileFunction,Soldermask,Top*%
%TF.FilePolarity,Negative*%
%FSLAX46Y46*%
G04 Gerber Fmt 4.6, Leading zero omitted, Abs format (unit mm)*
G04 Created by KiCad (PCBNEW 9.0.2) date 2025-07-11 21:06:49*
%MOMM*%
%LPD*%
G01*
G04 APERTURE LIST*
G04 Aperture macros list*
%AMRoundRect*
0 Rectangle with rounded corners*
0 $1 Rounding radius*
0 $2 $3 $4 $5 $6 $7 $8 $9 X,Y pos of 4 corners*
0 Add a 4 corners polygon primitive as box body*
4,1,4,$2,$3,$4,$5,$6,$7,$8,$9,$2,$3,0*
0 Add four circle primitives for the rounded corners*
1,1,$1+$1,$2,$3*
1,1,$1+$1,$4,$5*
1,1,$1+$1,$6,$7*
1,1,$1+$1,$8,$9*
0 Add four rect primitives between the rounded corners*
20,1,$1+$1,$2,$3,$4,$5,0*
20,1,$1+$1,$4,$5,$6,$7,0*
20,1,$1+$1,$6,$7,$8,$9,0*
20,1,$1+$1,$8,$9,$2,$3,0*%
G04 Aperture macros list end*
%ADD10C,2.006600*%
%ADD11RoundRect,0.063500X-0.400000X-0.450000X0.400000X-0.450000X0.400000X0.450000X-0.400000X0.450000X0*%
%ADD12C,2.500000*%
%ADD13RoundRect,0.063500X0.400000X0.450000X-0.400000X0.450000X-0.400000X-0.450000X0.400000X-0.450000X0*%
%ADD14RoundRect,0.063500X-0.500000X0.550000X-0.500000X-0.550000X0.500000X-0.550000X0.500000X0.550000X0*%
%ADD15RoundRect,0.063500X0.500000X-0.550000X0.500000X0.550000X-0.500000X0.550000X-0.500000X-0.550000X0*%
%ADD16RoundRect,0.063500X0.825000X0.150000X-0.825000X0.150000X-0.825000X-0.150000X0.825000X-0.150000X0*%
%ADD17RoundRect,0.063500X0.975000X0.650000X-0.975000X0.650000X-0.975000X-0.650000X0.975000X-0.650000X0*%
%ADD18RoundRect,0.063500X-0.975000X-0.650000X0.975000X-0.650000X0.975000X0.650000X-0.975000X0.650000X0*%
%ADD19C,1.574800*%
%ADD20RoundRect,0.063500X-0.550000X-0.500000X0.550000X-0.500000X0.550000X0.500000X-0.550000X0.500000X0*%
G04 APERTURE END LIST*
D10*
%TO.C,J9*%
X159186100Y-93903600D03*
%TD*%
D11*
%TO.C,Q4*%
X132176100Y-126473600D03*
X134076100Y-126473600D03*
X133126100Y-124373600D03*
%TD*%
D12*
%TO.C,UNK_HOLE_2*%
X169186100Y-84503600D03*
%TD*%
D13*
%TO.C,Q2*%
X151436100Y-89333600D03*
X149536100Y-89333600D03*
X150486100Y-91433600D03*
%TD*%
D10*
%TO.C,J3*%
X169686100Y-94753600D03*
%TD*%
%TO.C,J13*%
X134586100Y-83903600D03*
%TD*%
D14*
%TO.C,R3*%
X154116100Y-85473600D03*
X154116100Y-87173600D03*
%TD*%
D15*
%TO.C,R12*%
X163756100Y-126323600D03*
X163756100Y-124623600D03*
%TD*%
D12*
%TO.C,UNK_HOLE_1*%
X169186100Y-125503600D03*
%TD*%
D15*
%TO.C,R7*%
X159756100Y-91273600D03*
X159756100Y-89573600D03*
%TD*%
D10*
%TO.C,J11*%
X137086100Y-83903600D03*
%TD*%
D16*
%TO.C,J4*%
X160216100Y-109003600D03*
X165156100Y-109003600D03*
X160216100Y-108503600D03*
X165156100Y-108503600D03*
X160216100Y-108003600D03*
X165156100Y-108003600D03*
X160216100Y-107503600D03*
X165156100Y-107503600D03*
X160216100Y-107003600D03*
X165156100Y-107003600D03*
X160216100Y-106503600D03*
X165156100Y-106503600D03*
X160216100Y-106003600D03*
X165156100Y-106003600D03*
X160216100Y-105503600D03*
X165156100Y-105503600D03*
X160216100Y-105003600D03*
X165156100Y-105003600D03*
X160216100Y-104503600D03*
X165156100Y-104503600D03*
X160216100Y-104003600D03*
X165156100Y-104003600D03*
X160216100Y-103503600D03*
X165156100Y-103503600D03*
X160216100Y-103003600D03*
X165156100Y-103003600D03*
X160216100Y-102503600D03*
X165156100Y-102503600D03*
X160216100Y-102003600D03*
X165156100Y-102003600D03*
X160216100Y-101503600D03*
X165156100Y-101503600D03*
X160216100Y-101003600D03*
X165156100Y-101003600D03*
X160216100Y-100503600D03*
X165156100Y-100503600D03*
X160216100Y-100003600D03*
X165156100Y-100003600D03*
X160216100Y-99503600D03*
X165156100Y-99503600D03*
D17*
X160356100Y-110203600D03*
X165006100Y-110203600D03*
D18*
X160356100Y-98303600D03*
D17*
X165006100Y-98303600D03*
%TD*%
D15*
%TO.C,R8*%
X157556100Y-91283600D03*
X157556100Y-89583600D03*
%TD*%
D14*
%TO.C,C4*%
X140026100Y-124763600D03*
X140026100Y-126463600D03*
%TD*%
D12*
%TO.C,UNK_HOLE_3*%
X128186100Y-84503600D03*
%TD*%
D14*
%TO.C,R1*%
X127716100Y-95213600D03*
X127716100Y-96913600D03*
%TD*%
D10*
%TO.C,J10*%
X156686100Y-93903600D03*
%TD*%
%TO.C,J5*%
X149086100Y-125453600D03*
X151626100Y-125453600D03*
X154166100Y-125453600D03*
X156706100Y-125453600D03*
X159246100Y-125453600D03*
%TD*%
%TO.C,J2*%
X154136100Y-95823600D03*
X154136100Y-98363600D03*
%TD*%
D15*
%TO.C,C2*%
X161546100Y-126323600D03*
X161546100Y-124623600D03*
%TD*%
D10*
%TO.C,J8*%
X169686100Y-89103600D03*
%TD*%
%TO.C,J7*%
X169686100Y-99903600D03*
%TD*%
D15*
%TO.C,C6*%
X151746100Y-87163600D03*
X151746100Y-85463600D03*
%TD*%
D14*
%TO.C,R11*%
X167316100Y-92993600D03*
X167316100Y-94693600D03*
%TD*%
D12*
%TO.C,UNK_HOLE_0*%
X128186100Y-125503600D03*
%TD*%
D19*
%TO.C,U1*%
X130726100Y-90783600D03*
X130726100Y-93323600D03*
X130726100Y-95863600D03*
X130726100Y-98403600D03*
X145966100Y-93323600D03*
X135806100Y-121263600D03*
X130726100Y-100943600D03*
X130726100Y-103483600D03*
X145966100Y-88243600D03*
X130726100Y-106023600D03*
X130726100Y-108563600D03*
X130726100Y-111103600D03*
X130726100Y-113643600D03*
X130726100Y-116183600D03*
X130726100Y-118723600D03*
X130726100Y-121263600D03*
X145966100Y-121263600D03*
X145966100Y-118723600D03*
X145966100Y-116183600D03*
X145966100Y-113643600D03*
X145966100Y-111103600D03*
X145966100Y-108563600D03*
X145966100Y-106023600D03*
X145966100Y-103483600D03*
X145966100Y-100943600D03*
X145966100Y-98403600D03*
X145966100Y-95863600D03*
X143426100Y-116183600D03*
X143426100Y-113643600D03*
X140886100Y-116183600D03*
X140886100Y-113643600D03*
X138346100Y-116183600D03*
X138346100Y-113643600D03*
X135806100Y-116183600D03*
X135806100Y-113643600D03*
X133266100Y-116183600D03*
X133266100Y-113643600D03*
X137076100Y-88243600D03*
X139616100Y-88243600D03*
X130726100Y-88243600D03*
X145966100Y-90783600D03*
X138346100Y-121263600D03*
%TD*%
D10*
%TO.C,J1*%
X127536100Y-111633600D03*
X127536100Y-109093600D03*
X127536100Y-106553600D03*
X127536100Y-104013600D03*
%TD*%
D15*
%TO.C,R5*%
X127456100Y-120153600D03*
X127456100Y-118453600D03*
%TD*%
D14*
%TO.C,C1*%
X165026100Y-92993600D03*
X165026100Y-94693600D03*
%TD*%
%TO.C,R4*%
X149516100Y-85463600D03*
X149516100Y-87163600D03*
%TD*%
D13*
%TO.C,Q1*%
X155356100Y-89333600D03*
X153456100Y-89333600D03*
X154406100Y-91433600D03*
%TD*%
D14*
%TO.C,C3*%
X146626100Y-124673600D03*
X146626100Y-126373600D03*
%TD*%
D15*
%TO.C,R10*%
X144346100Y-126403600D03*
X144346100Y-124703600D03*
%TD*%
%TO.C,R6*%
X127456100Y-116263600D03*
X127456100Y-114563600D03*
%TD*%
D11*
%TO.C,Q3*%
X136056100Y-126573600D03*
X137956100Y-126573600D03*
X137006100Y-124473600D03*
%TD*%
D10*
%TO.C,J12*%
X139586100Y-83903600D03*
%TD*%
D14*
%TO.C,R2*%
X127716100Y-99003600D03*
X127716100Y-100703600D03*
%TD*%
D20*
%TO.C,C5*%
X158036100Y-86663600D03*
X159736100Y-86663600D03*
%TD*%
D10*
%TO.C,J6*%
X142086100Y-83903600D03*
%TD*%
D15*
%TO.C,R9*%
X142246100Y-126393600D03*
X142246100Y-124693600D03*
%TD*%
M02*
