%TF.GenerationSoftware,KiCad,Pcbnew,9.0.2*%
%TF.CreationDate,2025-07-11T21:06:49+12:00*%
%TF.ProjectId,T61,5436312e-6b69-4636-9164-5f7063625858,rev?*%
%TF.SameCoordinates,Original*%
%TF.FileFunction,Legend,Top*%
%TF.FilePolarity,Positive*%
%FSLAX46Y46*%
G04 Gerber Fmt 4.6, Leading zero omitted, Abs format (unit mm)*
G04 Created by KiCad (PCBNEW 9.0.2) date 2025-07-11 21:06:49*
%MOMM*%
%LPD*%
G01*
G04 APERTURE LIST*
%ADD10C,0.152400*%
%ADD11C,0.091440*%
%ADD12C,0.048768*%
%ADD13C,0.113792*%
%ADD14C,0.097536*%
%ADD15C,0.029911*%
%ADD16C,0.101600*%
%ADD17C,0.203200*%
%ADD18C,0.127000*%
%ADD19C,0.304800*%
G04 APERTURE END LIST*
D10*
X148886100Y-88003600D02*
X150186100Y-88003600D01*
X150186100Y-84703600D02*
X148886100Y-84703600D01*
X160286100Y-97303600D02*
X165086100Y-97303600D01*
X156886100Y-88803600D02*
X158286100Y-88803600D01*
X128186100Y-117003600D02*
X126786100Y-117003600D01*
X159086100Y-92003600D02*
X159086100Y-88803600D01*
X126786100Y-117703600D02*
X128186100Y-117703600D01*
X158286100Y-92003600D02*
X156886100Y-92003600D01*
X160286100Y-111203600D02*
X160286100Y-97303600D01*
X160486100Y-88803600D02*
X160486100Y-92003600D01*
X145086100Y-124003600D02*
X145086100Y-127203600D01*
X156886100Y-92003600D02*
X156886100Y-88803600D01*
X141486100Y-123903600D02*
X142986100Y-123903600D01*
X160486100Y-92003600D02*
X159086100Y-92003600D01*
X126786100Y-120903600D02*
X126786100Y-117703600D01*
X128186100Y-120903600D02*
X126786100Y-120903600D01*
X143686100Y-124003600D02*
X145086100Y-124003600D01*
X150186100Y-88003600D02*
X150186100Y-84703600D01*
X154786100Y-84703600D02*
X154786100Y-87903600D01*
X158286100Y-88803600D02*
X158286100Y-92003600D01*
X148886100Y-84703600D02*
X148886100Y-88003600D01*
X126786100Y-117003600D02*
X126786100Y-113803600D01*
X128186100Y-113803600D02*
X128186100Y-117003600D01*
X128186100Y-117703600D02*
X128186100Y-120903600D01*
X143686100Y-127203600D02*
X143686100Y-124003600D01*
X159086100Y-88803600D02*
X160486100Y-88803600D01*
X154786100Y-87903600D02*
X153386100Y-87903600D01*
X153386100Y-84703600D02*
X154786100Y-84703600D01*
X126786100Y-113803600D02*
X128186100Y-113803600D01*
X165086100Y-111203600D02*
X160286100Y-111203600D01*
X142986100Y-123903600D02*
X142986100Y-127203600D01*
X165086100Y-97303600D02*
X165086100Y-111203600D01*
X153386100Y-87903600D02*
X153386100Y-84703600D01*
X142986100Y-127203600D02*
X141486100Y-127203600D01*
X145086100Y-127203600D02*
X143686100Y-127203600D01*
X141486100Y-127203600D02*
X141486100Y-123903600D01*
D11*
X139469628Y-82735432D02*
X139469628Y-82217272D01*
X139469628Y-82217272D02*
X139592999Y-82217272D01*
X139592999Y-82217272D02*
X139667022Y-82241946D01*
X139667022Y-82241946D02*
X139716371Y-82291295D01*
X139716371Y-82291295D02*
X139741045Y-82340643D01*
X139741045Y-82340643D02*
X139765719Y-82439340D01*
X139765719Y-82439340D02*
X139765719Y-82513363D01*
X139765719Y-82513363D02*
X139741045Y-82612060D01*
X139741045Y-82612060D02*
X139716371Y-82661409D01*
X139716371Y-82661409D02*
X139667022Y-82710758D01*
X139667022Y-82710758D02*
X139592999Y-82735432D01*
X139592999Y-82735432D02*
X139469628Y-82735432D01*
X139987788Y-82538038D02*
X140382577Y-82538038D01*
X151449120Y-96044745D02*
X151424446Y-96020071D01*
X151424446Y-96020071D02*
X151399772Y-95970723D01*
X151399772Y-95970723D02*
X151399772Y-95847351D01*
X151399772Y-95847351D02*
X151424446Y-95798003D01*
X151424446Y-95798003D02*
X151449120Y-95773328D01*
X151449120Y-95773328D02*
X151498469Y-95748654D01*
X151498469Y-95748654D02*
X151547818Y-95748654D01*
X151547818Y-95748654D02*
X151621840Y-95773328D01*
X151621840Y-95773328D02*
X151917932Y-96069420D01*
X151917932Y-96069420D02*
X151917932Y-95748654D01*
X151399772Y-95575934D02*
X151399772Y-95255168D01*
X151399772Y-95255168D02*
X151597166Y-95427888D01*
X151597166Y-95427888D02*
X151597166Y-95353865D01*
X151597166Y-95353865D02*
X151621840Y-95304517D01*
X151621840Y-95304517D02*
X151646515Y-95279842D01*
X151646515Y-95279842D02*
X151695863Y-95255168D01*
X151695863Y-95255168D02*
X151819235Y-95255168D01*
X151819235Y-95255168D02*
X151868583Y-95279842D01*
X151868583Y-95279842D02*
X151893258Y-95304517D01*
X151893258Y-95304517D02*
X151917932Y-95353865D01*
X151917932Y-95353865D02*
X151917932Y-95501911D01*
X151917932Y-95501911D02*
X151893258Y-95551259D01*
X151893258Y-95551259D02*
X151868583Y-95575934D01*
X151765719Y-84386083D02*
X151741045Y-84410758D01*
X151741045Y-84410758D02*
X151667022Y-84435432D01*
X151667022Y-84435432D02*
X151617674Y-84435432D01*
X151617674Y-84435432D02*
X151543651Y-84410758D01*
X151543651Y-84410758D02*
X151494302Y-84361409D01*
X151494302Y-84361409D02*
X151469628Y-84312060D01*
X151469628Y-84312060D02*
X151444954Y-84213363D01*
X151444954Y-84213363D02*
X151444954Y-84139340D01*
X151444954Y-84139340D02*
X151469628Y-84040643D01*
X151469628Y-84040643D02*
X151494302Y-83991295D01*
X151494302Y-83991295D02*
X151543651Y-83941946D01*
X151543651Y-83941946D02*
X151617674Y-83917272D01*
X151617674Y-83917272D02*
X151667022Y-83917272D01*
X151667022Y-83917272D02*
X151741045Y-83941946D01*
X151741045Y-83941946D02*
X151765719Y-83966620D01*
X152209857Y-83917272D02*
X152111159Y-83917272D01*
X152111159Y-83917272D02*
X152061811Y-83941946D01*
X152061811Y-83941946D02*
X152037137Y-83966620D01*
X152037137Y-83966620D02*
X151987788Y-84040643D01*
X151987788Y-84040643D02*
X151963114Y-84139340D01*
X151963114Y-84139340D02*
X151963114Y-84336735D01*
X151963114Y-84336735D02*
X151987788Y-84386083D01*
X151987788Y-84386083D02*
X152012462Y-84410758D01*
X152012462Y-84410758D02*
X152061811Y-84435432D01*
X152061811Y-84435432D02*
X152160508Y-84435432D01*
X152160508Y-84435432D02*
X152209857Y-84410758D01*
X152209857Y-84410758D02*
X152234531Y-84386083D01*
X152234531Y-84386083D02*
X152259205Y-84336735D01*
X152259205Y-84336735D02*
X152259205Y-84213363D01*
X152259205Y-84213363D02*
X152234531Y-84164015D01*
X152234531Y-84164015D02*
X152209857Y-84139340D01*
X152209857Y-84139340D02*
X152160508Y-84114666D01*
X152160508Y-84114666D02*
X152061811Y-84114666D01*
X152061811Y-84114666D02*
X152012462Y-84139340D01*
X152012462Y-84139340D02*
X151987788Y-84164015D01*
X151987788Y-84164015D02*
X151963114Y-84213363D01*
X152617932Y-99520071D02*
X152099772Y-99520071D01*
X152099772Y-99520071D02*
X152099772Y-99322677D01*
X152099772Y-99322677D02*
X152124446Y-99273328D01*
X152124446Y-99273328D02*
X152149120Y-99248654D01*
X152149120Y-99248654D02*
X152198469Y-99223980D01*
X152198469Y-99223980D02*
X152272492Y-99223980D01*
X152272492Y-99223980D02*
X152321840Y-99248654D01*
X152321840Y-99248654D02*
X152346515Y-99273328D01*
X152346515Y-99273328D02*
X152371189Y-99322677D01*
X152371189Y-99322677D02*
X152371189Y-99520071D01*
X152617932Y-98927888D02*
X152593258Y-98977237D01*
X152593258Y-98977237D02*
X152568583Y-99001911D01*
X152568583Y-99001911D02*
X152519235Y-99026585D01*
X152519235Y-99026585D02*
X152371189Y-99026585D01*
X152371189Y-99026585D02*
X152321840Y-99001911D01*
X152321840Y-99001911D02*
X152297166Y-98977237D01*
X152297166Y-98977237D02*
X152272492Y-98927888D01*
X152272492Y-98927888D02*
X152272492Y-98853865D01*
X152272492Y-98853865D02*
X152297166Y-98804517D01*
X152297166Y-98804517D02*
X152321840Y-98779843D01*
X152321840Y-98779843D02*
X152371189Y-98755168D01*
X152371189Y-98755168D02*
X152519235Y-98755168D01*
X152519235Y-98755168D02*
X152568583Y-98779843D01*
X152568583Y-98779843D02*
X152593258Y-98804517D01*
X152593258Y-98804517D02*
X152617932Y-98853865D01*
X152617932Y-98853865D02*
X152617932Y-98927888D01*
X152272492Y-98582449D02*
X152617932Y-98483752D01*
X152617932Y-98483752D02*
X152371189Y-98385054D01*
X152371189Y-98385054D02*
X152617932Y-98286357D01*
X152617932Y-98286357D02*
X152272492Y-98187660D01*
X152593258Y-97792872D02*
X152617932Y-97842220D01*
X152617932Y-97842220D02*
X152617932Y-97940918D01*
X152617932Y-97940918D02*
X152593258Y-97990266D01*
X152593258Y-97990266D02*
X152543909Y-98014940D01*
X152543909Y-98014940D02*
X152346515Y-98014940D01*
X152346515Y-98014940D02*
X152297166Y-97990266D01*
X152297166Y-97990266D02*
X152272492Y-97940918D01*
X152272492Y-97940918D02*
X152272492Y-97842220D01*
X152272492Y-97842220D02*
X152297166Y-97792872D01*
X152297166Y-97792872D02*
X152346515Y-97768198D01*
X152346515Y-97768198D02*
X152395863Y-97768198D01*
X152395863Y-97768198D02*
X152445212Y-98014940D01*
X152617932Y-97546129D02*
X152272492Y-97546129D01*
X152371189Y-97546129D02*
X152321840Y-97521455D01*
X152321840Y-97521455D02*
X152297166Y-97496781D01*
X152297166Y-97496781D02*
X152272492Y-97447432D01*
X152272492Y-97447432D02*
X152272492Y-97398083D01*
X152593258Y-96855248D02*
X152617932Y-96781226D01*
X152617932Y-96781226D02*
X152617932Y-96657854D01*
X152617932Y-96657854D02*
X152593258Y-96608506D01*
X152593258Y-96608506D02*
X152568583Y-96583831D01*
X152568583Y-96583831D02*
X152519235Y-96559157D01*
X152519235Y-96559157D02*
X152469886Y-96559157D01*
X152469886Y-96559157D02*
X152420538Y-96583831D01*
X152420538Y-96583831D02*
X152395863Y-96608506D01*
X152395863Y-96608506D02*
X152371189Y-96657854D01*
X152371189Y-96657854D02*
X152346515Y-96756551D01*
X152346515Y-96756551D02*
X152321840Y-96805900D01*
X152321840Y-96805900D02*
X152297166Y-96830574D01*
X152297166Y-96830574D02*
X152247818Y-96855248D01*
X152247818Y-96855248D02*
X152198469Y-96855248D01*
X152198469Y-96855248D02*
X152149120Y-96830574D01*
X152149120Y-96830574D02*
X152124446Y-96805900D01*
X152124446Y-96805900D02*
X152099772Y-96756551D01*
X152099772Y-96756551D02*
X152099772Y-96633180D01*
X152099772Y-96633180D02*
X152124446Y-96559157D01*
X152272492Y-96386437D02*
X152617932Y-96287740D01*
X152617932Y-96287740D02*
X152371189Y-96189042D01*
X152371189Y-96189042D02*
X152617932Y-96090345D01*
X152617932Y-96090345D02*
X152272492Y-95991648D01*
X152617932Y-95794254D02*
X152272492Y-95794254D01*
X152099772Y-95794254D02*
X152124446Y-95818928D01*
X152124446Y-95818928D02*
X152149120Y-95794254D01*
X152149120Y-95794254D02*
X152124446Y-95769580D01*
X152124446Y-95769580D02*
X152099772Y-95794254D01*
X152099772Y-95794254D02*
X152149120Y-95794254D01*
X152272492Y-95621534D02*
X152272492Y-95424140D01*
X152099772Y-95547511D02*
X152543909Y-95547511D01*
X152543909Y-95547511D02*
X152593258Y-95522837D01*
X152593258Y-95522837D02*
X152617932Y-95473488D01*
X152617932Y-95473488D02*
X152617932Y-95424140D01*
X152593258Y-95029352D02*
X152617932Y-95078700D01*
X152617932Y-95078700D02*
X152617932Y-95177397D01*
X152617932Y-95177397D02*
X152593258Y-95226746D01*
X152593258Y-95226746D02*
X152568583Y-95251420D01*
X152568583Y-95251420D02*
X152519235Y-95276094D01*
X152519235Y-95276094D02*
X152371189Y-95276094D01*
X152371189Y-95276094D02*
X152321840Y-95251420D01*
X152321840Y-95251420D02*
X152297166Y-95226746D01*
X152297166Y-95226746D02*
X152272492Y-95177397D01*
X152272492Y-95177397D02*
X152272492Y-95078700D01*
X152272492Y-95078700D02*
X152297166Y-95029352D01*
X152617932Y-94807283D02*
X152099772Y-94807283D01*
X152617932Y-94585215D02*
X152346515Y-94585215D01*
X152346515Y-94585215D02*
X152297166Y-94609889D01*
X152297166Y-94609889D02*
X152272492Y-94659237D01*
X152272492Y-94659237D02*
X152272492Y-94733260D01*
X152272492Y-94733260D02*
X152297166Y-94782609D01*
X152297166Y-94782609D02*
X152321840Y-94807283D01*
X169241045Y-90441946D02*
X169191697Y-90417272D01*
X169191697Y-90417272D02*
X169117674Y-90417272D01*
X169117674Y-90417272D02*
X169043651Y-90441946D01*
X169043651Y-90441946D02*
X168994302Y-90491295D01*
X168994302Y-90491295D02*
X168969628Y-90540643D01*
X168969628Y-90540643D02*
X168944954Y-90639340D01*
X168944954Y-90639340D02*
X168944954Y-90713363D01*
X168944954Y-90713363D02*
X168969628Y-90812060D01*
X168969628Y-90812060D02*
X168994302Y-90861409D01*
X168994302Y-90861409D02*
X169043651Y-90910758D01*
X169043651Y-90910758D02*
X169117674Y-90935432D01*
X169117674Y-90935432D02*
X169167022Y-90935432D01*
X169167022Y-90935432D02*
X169241045Y-90910758D01*
X169241045Y-90910758D02*
X169265719Y-90886083D01*
X169265719Y-90886083D02*
X169265719Y-90713363D01*
X169265719Y-90713363D02*
X169167022Y-90713363D01*
X169487788Y-90935432D02*
X169487788Y-90417272D01*
X169487788Y-90417272D02*
X169783879Y-90935432D01*
X169783879Y-90935432D02*
X169783879Y-90417272D01*
X170030622Y-90935432D02*
X170030622Y-90417272D01*
X170030622Y-90417272D02*
X170153993Y-90417272D01*
X170153993Y-90417272D02*
X170228016Y-90441946D01*
X170228016Y-90441946D02*
X170277365Y-90491295D01*
X170277365Y-90491295D02*
X170302039Y-90540643D01*
X170302039Y-90540643D02*
X170326713Y-90639340D01*
X170326713Y-90639340D02*
X170326713Y-90713363D01*
X170326713Y-90713363D02*
X170302039Y-90812060D01*
X170302039Y-90812060D02*
X170277365Y-90861409D01*
X170277365Y-90861409D02*
X170228016Y-90910758D01*
X170228016Y-90910758D02*
X170153993Y-90935432D01*
X170153993Y-90935432D02*
X170030622Y-90935432D01*
X169616371Y-101117272D02*
X169369628Y-101117272D01*
X169369628Y-101117272D02*
X169344954Y-101364015D01*
X169344954Y-101364015D02*
X169369628Y-101339340D01*
X169369628Y-101339340D02*
X169418977Y-101314666D01*
X169418977Y-101314666D02*
X169542348Y-101314666D01*
X169542348Y-101314666D02*
X169591697Y-101339340D01*
X169591697Y-101339340D02*
X169616371Y-101364015D01*
X169616371Y-101364015D02*
X169641045Y-101413363D01*
X169641045Y-101413363D02*
X169641045Y-101536735D01*
X169641045Y-101536735D02*
X169616371Y-101586083D01*
X169616371Y-101586083D02*
X169591697Y-101610758D01*
X169591697Y-101610758D02*
X169542348Y-101635432D01*
X169542348Y-101635432D02*
X169418977Y-101635432D01*
X169418977Y-101635432D02*
X169369628Y-101610758D01*
X169369628Y-101610758D02*
X169344954Y-101586083D01*
X169789091Y-101117272D02*
X169961811Y-101635432D01*
X169961811Y-101635432D02*
X170134531Y-101117272D01*
X148165719Y-101135432D02*
X147992999Y-100888689D01*
X147869628Y-101135432D02*
X147869628Y-100617272D01*
X147869628Y-100617272D02*
X148067022Y-100617272D01*
X148067022Y-100617272D02*
X148116371Y-100641946D01*
X148116371Y-100641946D02*
X148141045Y-100666620D01*
X148141045Y-100666620D02*
X148165719Y-100715969D01*
X148165719Y-100715969D02*
X148165719Y-100789992D01*
X148165719Y-100789992D02*
X148141045Y-100839340D01*
X148141045Y-100839340D02*
X148116371Y-100864015D01*
X148116371Y-100864015D02*
X148067022Y-100888689D01*
X148067022Y-100888689D02*
X147869628Y-100888689D01*
X148338439Y-100617272D02*
X148683879Y-101135432D01*
X148683879Y-100617272D02*
X148338439Y-101135432D01*
X149522806Y-100617272D02*
X149276063Y-100617272D01*
X149276063Y-100617272D02*
X149251389Y-100864015D01*
X149251389Y-100864015D02*
X149276063Y-100839340D01*
X149276063Y-100839340D02*
X149325412Y-100814666D01*
X149325412Y-100814666D02*
X149448783Y-100814666D01*
X149448783Y-100814666D02*
X149498132Y-100839340D01*
X149498132Y-100839340D02*
X149522806Y-100864015D01*
X149522806Y-100864015D02*
X149547480Y-100913363D01*
X149547480Y-100913363D02*
X149547480Y-101036735D01*
X149547480Y-101036735D02*
X149522806Y-101086083D01*
X149522806Y-101086083D02*
X149498132Y-101110758D01*
X149498132Y-101110758D02*
X149448783Y-101135432D01*
X149448783Y-101135432D02*
X149325412Y-101135432D01*
X149325412Y-101135432D02*
X149276063Y-101110758D01*
X149276063Y-101110758D02*
X149251389Y-101086083D01*
X148741045Y-127041946D02*
X148691697Y-127017272D01*
X148691697Y-127017272D02*
X148617674Y-127017272D01*
X148617674Y-127017272D02*
X148543651Y-127041946D01*
X148543651Y-127041946D02*
X148494302Y-127091295D01*
X148494302Y-127091295D02*
X148469628Y-127140643D01*
X148469628Y-127140643D02*
X148444954Y-127239340D01*
X148444954Y-127239340D02*
X148444954Y-127313363D01*
X148444954Y-127313363D02*
X148469628Y-127412060D01*
X148469628Y-127412060D02*
X148494302Y-127461409D01*
X148494302Y-127461409D02*
X148543651Y-127510758D01*
X148543651Y-127510758D02*
X148617674Y-127535432D01*
X148617674Y-127535432D02*
X148667022Y-127535432D01*
X148667022Y-127535432D02*
X148741045Y-127510758D01*
X148741045Y-127510758D02*
X148765719Y-127486083D01*
X148765719Y-127486083D02*
X148765719Y-127313363D01*
X148765719Y-127313363D02*
X148667022Y-127313363D01*
X148987788Y-127535432D02*
X148987788Y-127017272D01*
X148987788Y-127017272D02*
X149283879Y-127535432D01*
X149283879Y-127535432D02*
X149283879Y-127017272D01*
X149530622Y-127535432D02*
X149530622Y-127017272D01*
X149530622Y-127017272D02*
X149653993Y-127017272D01*
X149653993Y-127017272D02*
X149728016Y-127041946D01*
X149728016Y-127041946D02*
X149777365Y-127091295D01*
X149777365Y-127091295D02*
X149802039Y-127140643D01*
X149802039Y-127140643D02*
X149826713Y-127239340D01*
X149826713Y-127239340D02*
X149826713Y-127313363D01*
X149826713Y-127313363D02*
X149802039Y-127412060D01*
X149802039Y-127412060D02*
X149777365Y-127461409D01*
X149777365Y-127461409D02*
X149728016Y-127510758D01*
X149728016Y-127510758D02*
X149653993Y-127535432D01*
X149653993Y-127535432D02*
X149530622Y-127535432D01*
X158965719Y-85686083D02*
X158941045Y-85710758D01*
X158941045Y-85710758D02*
X158867022Y-85735432D01*
X158867022Y-85735432D02*
X158817674Y-85735432D01*
X158817674Y-85735432D02*
X158743651Y-85710758D01*
X158743651Y-85710758D02*
X158694302Y-85661409D01*
X158694302Y-85661409D02*
X158669628Y-85612060D01*
X158669628Y-85612060D02*
X158644954Y-85513363D01*
X158644954Y-85513363D02*
X158644954Y-85439340D01*
X158644954Y-85439340D02*
X158669628Y-85340643D01*
X158669628Y-85340643D02*
X158694302Y-85291295D01*
X158694302Y-85291295D02*
X158743651Y-85241946D01*
X158743651Y-85241946D02*
X158817674Y-85217272D01*
X158817674Y-85217272D02*
X158867022Y-85217272D01*
X158867022Y-85217272D02*
X158941045Y-85241946D01*
X158941045Y-85241946D02*
X158965719Y-85266620D01*
X159434531Y-85217272D02*
X159187788Y-85217272D01*
X159187788Y-85217272D02*
X159163114Y-85464015D01*
X159163114Y-85464015D02*
X159187788Y-85439340D01*
X159187788Y-85439340D02*
X159237137Y-85414666D01*
X159237137Y-85414666D02*
X159360508Y-85414666D01*
X159360508Y-85414666D02*
X159409857Y-85439340D01*
X159409857Y-85439340D02*
X159434531Y-85464015D01*
X159434531Y-85464015D02*
X159459205Y-85513363D01*
X159459205Y-85513363D02*
X159459205Y-85636735D01*
X159459205Y-85636735D02*
X159434531Y-85686083D01*
X159434531Y-85686083D02*
X159409857Y-85710758D01*
X159409857Y-85710758D02*
X159360508Y-85735432D01*
X159360508Y-85735432D02*
X159237137Y-85735432D01*
X159237137Y-85735432D02*
X159187788Y-85710758D01*
X159187788Y-85710758D02*
X159163114Y-85686083D01*
X155724446Y-96048654D02*
X155699772Y-96098003D01*
X155699772Y-96098003D02*
X155699772Y-96172025D01*
X155699772Y-96172025D02*
X155724446Y-96246048D01*
X155724446Y-96246048D02*
X155773795Y-96295397D01*
X155773795Y-96295397D02*
X155823143Y-96320071D01*
X155823143Y-96320071D02*
X155921840Y-96344745D01*
X155921840Y-96344745D02*
X155995863Y-96344745D01*
X155995863Y-96344745D02*
X156094560Y-96320071D01*
X156094560Y-96320071D02*
X156143909Y-96295397D01*
X156143909Y-96295397D02*
X156193258Y-96246048D01*
X156193258Y-96246048D02*
X156217932Y-96172025D01*
X156217932Y-96172025D02*
X156217932Y-96122677D01*
X156217932Y-96122677D02*
X156193258Y-96048654D01*
X156193258Y-96048654D02*
X156168583Y-96023980D01*
X156168583Y-96023980D02*
X155995863Y-96023980D01*
X155995863Y-96023980D02*
X155995863Y-96122677D01*
X156217932Y-95801911D02*
X155699772Y-95801911D01*
X155699772Y-95801911D02*
X156217932Y-95505820D01*
X156217932Y-95505820D02*
X155699772Y-95505820D01*
X156217932Y-95259077D02*
X155699772Y-95259077D01*
X155699772Y-95259077D02*
X155699772Y-95135706D01*
X155699772Y-95135706D02*
X155724446Y-95061683D01*
X155724446Y-95061683D02*
X155773795Y-95012334D01*
X155773795Y-95012334D02*
X155823143Y-94987660D01*
X155823143Y-94987660D02*
X155921840Y-94962986D01*
X155921840Y-94962986D02*
X155995863Y-94962986D01*
X155995863Y-94962986D02*
X156094560Y-94987660D01*
X156094560Y-94987660D02*
X156143909Y-95012334D01*
X156143909Y-95012334D02*
X156193258Y-95061683D01*
X156193258Y-95061683D02*
X156217932Y-95135706D01*
X156217932Y-95135706D02*
X156217932Y-95259077D01*
X156716371Y-127017272D02*
X156469628Y-127017272D01*
X156469628Y-127017272D02*
X156444954Y-127264015D01*
X156444954Y-127264015D02*
X156469628Y-127239340D01*
X156469628Y-127239340D02*
X156518977Y-127214666D01*
X156518977Y-127214666D02*
X156642348Y-127214666D01*
X156642348Y-127214666D02*
X156691697Y-127239340D01*
X156691697Y-127239340D02*
X156716371Y-127264015D01*
X156716371Y-127264015D02*
X156741045Y-127313363D01*
X156741045Y-127313363D02*
X156741045Y-127436735D01*
X156741045Y-127436735D02*
X156716371Y-127486083D01*
X156716371Y-127486083D02*
X156691697Y-127510758D01*
X156691697Y-127510758D02*
X156642348Y-127535432D01*
X156642348Y-127535432D02*
X156518977Y-127535432D01*
X156518977Y-127535432D02*
X156469628Y-127510758D01*
X156469628Y-127510758D02*
X156444954Y-127486083D01*
X156889091Y-127017272D02*
X157061811Y-127535432D01*
X157061811Y-127535432D02*
X157234531Y-127017272D01*
X151449120Y-98644745D02*
X151424446Y-98620071D01*
X151424446Y-98620071D02*
X151399772Y-98570723D01*
X151399772Y-98570723D02*
X151399772Y-98447351D01*
X151399772Y-98447351D02*
X151424446Y-98398003D01*
X151424446Y-98398003D02*
X151449120Y-98373328D01*
X151449120Y-98373328D02*
X151498469Y-98348654D01*
X151498469Y-98348654D02*
X151547818Y-98348654D01*
X151547818Y-98348654D02*
X151621840Y-98373328D01*
X151621840Y-98373328D02*
X151917932Y-98669420D01*
X151917932Y-98669420D02*
X151917932Y-98348654D01*
X151449120Y-98151259D02*
X151424446Y-98126585D01*
X151424446Y-98126585D02*
X151399772Y-98077237D01*
X151399772Y-98077237D02*
X151399772Y-97953865D01*
X151399772Y-97953865D02*
X151424446Y-97904517D01*
X151424446Y-97904517D02*
X151449120Y-97879842D01*
X151449120Y-97879842D02*
X151498469Y-97855168D01*
X151498469Y-97855168D02*
X151547818Y-97855168D01*
X151547818Y-97855168D02*
X151621840Y-97879842D01*
X151621840Y-97879842D02*
X151917932Y-98175934D01*
X151917932Y-98175934D02*
X151917932Y-97855168D01*
X125624446Y-111848654D02*
X125599772Y-111898003D01*
X125599772Y-111898003D02*
X125599772Y-111972025D01*
X125599772Y-111972025D02*
X125624446Y-112046048D01*
X125624446Y-112046048D02*
X125673795Y-112095397D01*
X125673795Y-112095397D02*
X125723143Y-112120071D01*
X125723143Y-112120071D02*
X125821840Y-112144745D01*
X125821840Y-112144745D02*
X125895863Y-112144745D01*
X125895863Y-112144745D02*
X125994560Y-112120071D01*
X125994560Y-112120071D02*
X126043909Y-112095397D01*
X126043909Y-112095397D02*
X126093258Y-112046048D01*
X126093258Y-112046048D02*
X126117932Y-111972025D01*
X126117932Y-111972025D02*
X126117932Y-111922677D01*
X126117932Y-111922677D02*
X126093258Y-111848654D01*
X126093258Y-111848654D02*
X126068583Y-111823980D01*
X126068583Y-111823980D02*
X125895863Y-111823980D01*
X125895863Y-111823980D02*
X125895863Y-111922677D01*
X126117932Y-111601911D02*
X125599772Y-111601911D01*
X125599772Y-111601911D02*
X126117932Y-111305820D01*
X126117932Y-111305820D02*
X125599772Y-111305820D01*
X126117932Y-111059077D02*
X125599772Y-111059077D01*
X125599772Y-111059077D02*
X125599772Y-110935706D01*
X125599772Y-110935706D02*
X125624446Y-110861683D01*
X125624446Y-110861683D02*
X125673795Y-110812334D01*
X125673795Y-110812334D02*
X125723143Y-110787660D01*
X125723143Y-110787660D02*
X125821840Y-110762986D01*
X125821840Y-110762986D02*
X125895863Y-110762986D01*
X125895863Y-110762986D02*
X125994560Y-110787660D01*
X125994560Y-110787660D02*
X126043909Y-110812334D01*
X126043909Y-110812334D02*
X126093258Y-110861683D01*
X126093258Y-110861683D02*
X126117932Y-110935706D01*
X126117932Y-110935706D02*
X126117932Y-111059077D01*
X152695605Y-92317272D02*
X152991697Y-92317272D01*
X152843651Y-92835432D02*
X152843651Y-92317272D01*
X153164417Y-92835432D02*
X153164417Y-92489992D01*
X153164417Y-92588689D02*
X153189091Y-92539340D01*
X153189091Y-92539340D02*
X153213766Y-92514666D01*
X153213766Y-92514666D02*
X153263114Y-92489992D01*
X153263114Y-92489992D02*
X153312463Y-92489992D01*
X153361812Y-92884780D02*
X153756600Y-92884780D01*
X153879972Y-92835432D02*
X153879972Y-92317272D01*
X153879972Y-92317272D02*
X154003343Y-92317272D01*
X154003343Y-92317272D02*
X154077366Y-92341946D01*
X154077366Y-92341946D02*
X154126715Y-92391295D01*
X154126715Y-92391295D02*
X154151389Y-92440643D01*
X154151389Y-92440643D02*
X154176063Y-92539340D01*
X154176063Y-92539340D02*
X154176063Y-92613363D01*
X154176063Y-92613363D02*
X154151389Y-92712060D01*
X154151389Y-92712060D02*
X154126715Y-92761409D01*
X154126715Y-92761409D02*
X154077366Y-92810758D01*
X154077366Y-92810758D02*
X154003343Y-92835432D01*
X154003343Y-92835432D02*
X153879972Y-92835432D01*
X154373458Y-92687386D02*
X154620201Y-92687386D01*
X154324109Y-92835432D02*
X154496829Y-92317272D01*
X154496829Y-92317272D02*
X154669549Y-92835432D01*
X154768246Y-92317272D02*
X155064338Y-92317272D01*
X154916292Y-92835432D02*
X154916292Y-92317272D01*
X155212384Y-92687386D02*
X155459127Y-92687386D01*
X155163035Y-92835432D02*
X155335755Y-92317272D01*
X155335755Y-92317272D02*
X155508475Y-92835432D01*
X147795605Y-103217272D02*
X148091697Y-103217272D01*
X147943651Y-103735432D02*
X147943651Y-103217272D01*
X148215068Y-103217272D02*
X148560508Y-103735432D01*
X148560508Y-103217272D02*
X148215068Y-103735432D01*
X149399435Y-103217272D02*
X149152692Y-103217272D01*
X149152692Y-103217272D02*
X149128018Y-103464015D01*
X149128018Y-103464015D02*
X149152692Y-103439340D01*
X149152692Y-103439340D02*
X149202041Y-103414666D01*
X149202041Y-103414666D02*
X149325412Y-103414666D01*
X149325412Y-103414666D02*
X149374761Y-103439340D01*
X149374761Y-103439340D02*
X149399435Y-103464015D01*
X149399435Y-103464015D02*
X149424109Y-103513363D01*
X149424109Y-103513363D02*
X149424109Y-103636735D01*
X149424109Y-103636735D02*
X149399435Y-103686083D01*
X149399435Y-103686083D02*
X149374761Y-103710758D01*
X149374761Y-103710758D02*
X149325412Y-103735432D01*
X149325412Y-103735432D02*
X149202041Y-103735432D01*
X149202041Y-103735432D02*
X149152692Y-103710758D01*
X149152692Y-103710758D02*
X149128018Y-103686083D01*
X126117932Y-107120071D02*
X125599772Y-107120071D01*
X125599772Y-107120071D02*
X126117932Y-106823980D01*
X126117932Y-106823980D02*
X125599772Y-106823980D01*
X125599772Y-106577237D02*
X126019235Y-106577237D01*
X126019235Y-106577237D02*
X126068583Y-106552563D01*
X126068583Y-106552563D02*
X126093258Y-106527889D01*
X126093258Y-106527889D02*
X126117932Y-106478540D01*
X126117932Y-106478540D02*
X126117932Y-106379843D01*
X126117932Y-106379843D02*
X126093258Y-106330494D01*
X126093258Y-106330494D02*
X126068583Y-106305820D01*
X126068583Y-106305820D02*
X126019235Y-106281146D01*
X126019235Y-106281146D02*
X125599772Y-106281146D01*
X126117932Y-106034403D02*
X125599772Y-106034403D01*
X125599772Y-106034403D02*
X125969886Y-105861683D01*
X125969886Y-105861683D02*
X125599772Y-105688963D01*
X125599772Y-105688963D02*
X126117932Y-105688963D01*
X164683385Y-96413285D02*
X164658711Y-96437960D01*
X164658711Y-96437960D02*
X164584688Y-96462634D01*
X164584688Y-96462634D02*
X164535340Y-96462634D01*
X164535340Y-96462634D02*
X164461317Y-96437960D01*
X164461317Y-96437960D02*
X164411968Y-96388611D01*
X164411968Y-96388611D02*
X164387294Y-96339262D01*
X164387294Y-96339262D02*
X164362620Y-96240565D01*
X164362620Y-96240565D02*
X164362620Y-96166542D01*
X164362620Y-96166542D02*
X164387294Y-96067845D01*
X164387294Y-96067845D02*
X164411968Y-96018497D01*
X164411968Y-96018497D02*
X164461317Y-95969148D01*
X164461317Y-95969148D02*
X164535340Y-95944474D01*
X164535340Y-95944474D02*
X164584688Y-95944474D01*
X164584688Y-95944474D02*
X164658711Y-95969148D01*
X164658711Y-95969148D02*
X164683385Y-95993822D01*
X165176871Y-96462634D02*
X164880780Y-96462634D01*
X165028825Y-96462634D02*
X165028825Y-95944474D01*
X165028825Y-95944474D02*
X164979477Y-96018497D01*
X164979477Y-96018497D02*
X164930128Y-96067845D01*
X164930128Y-96067845D02*
X164880780Y-96092520D01*
X127116371Y-102435432D02*
X126869628Y-102435432D01*
X126869628Y-102435432D02*
X126869628Y-101917272D01*
X127289091Y-102164015D02*
X127461811Y-102164015D01*
X127535834Y-102435432D02*
X127289091Y-102435432D01*
X127289091Y-102435432D02*
X127289091Y-101917272D01*
X127289091Y-101917272D02*
X127535834Y-101917272D01*
X127757902Y-102435432D02*
X127757902Y-101917272D01*
X127757902Y-101917272D02*
X127881273Y-101917272D01*
X127881273Y-101917272D02*
X127955296Y-101941946D01*
X127955296Y-101941946D02*
X128004645Y-101991295D01*
X128004645Y-101991295D02*
X128029319Y-102040643D01*
X128029319Y-102040643D02*
X128053993Y-102139340D01*
X128053993Y-102139340D02*
X128053993Y-102213363D01*
X128053993Y-102213363D02*
X128029319Y-102312060D01*
X128029319Y-102312060D02*
X128004645Y-102361409D01*
X128004645Y-102361409D02*
X127955296Y-102410758D01*
X127955296Y-102410758D02*
X127881273Y-102435432D01*
X127881273Y-102435432D02*
X127757902Y-102435432D01*
X128251388Y-102410758D02*
X128300736Y-102435432D01*
X128300736Y-102435432D02*
X128399433Y-102435432D01*
X128399433Y-102435432D02*
X128448782Y-102410758D01*
X128448782Y-102410758D02*
X128473456Y-102361409D01*
X128473456Y-102361409D02*
X128473456Y-102336735D01*
X128473456Y-102336735D02*
X128448782Y-102287386D01*
X128448782Y-102287386D02*
X128399433Y-102262712D01*
X128399433Y-102262712D02*
X128325411Y-102262712D01*
X128325411Y-102262712D02*
X128276062Y-102238038D01*
X128276062Y-102238038D02*
X128251388Y-102188689D01*
X128251388Y-102188689D02*
X128251388Y-102164015D01*
X128251388Y-102164015D02*
X128276062Y-102114666D01*
X128276062Y-102114666D02*
X128325411Y-102089992D01*
X128325411Y-102089992D02*
X128399433Y-102089992D01*
X128399433Y-102089992D02*
X128448782Y-102114666D01*
X136969628Y-82735432D02*
X136969628Y-82217272D01*
X136969628Y-82217272D02*
X137092999Y-82217272D01*
X137092999Y-82217272D02*
X137167022Y-82241946D01*
X137167022Y-82241946D02*
X137216371Y-82291295D01*
X137216371Y-82291295D02*
X137241045Y-82340643D01*
X137241045Y-82340643D02*
X137265719Y-82439340D01*
X137265719Y-82439340D02*
X137265719Y-82513363D01*
X137265719Y-82513363D02*
X137241045Y-82612060D01*
X137241045Y-82612060D02*
X137216371Y-82661409D01*
X137216371Y-82661409D02*
X137167022Y-82710758D01*
X137167022Y-82710758D02*
X137092999Y-82735432D01*
X137092999Y-82735432D02*
X136969628Y-82735432D01*
X137487788Y-82538038D02*
X137882577Y-82538038D01*
X137685182Y-82735432D02*
X137685182Y-82340643D01*
D12*
X160138909Y-112768591D02*
X160405972Y-112768591D01*
X160085496Y-112928829D02*
X160272440Y-112367997D01*
X160272440Y-112367997D02*
X160459384Y-112928829D01*
X160619622Y-112768591D02*
X160886685Y-112768591D01*
X160566209Y-112928829D02*
X160753153Y-112367997D01*
X160753153Y-112367997D02*
X160940097Y-112928829D01*
X161233866Y-112367997D02*
X161287279Y-112367997D01*
X161287279Y-112367997D02*
X161340691Y-112394703D01*
X161340691Y-112394703D02*
X161367398Y-112421409D01*
X161367398Y-112421409D02*
X161394104Y-112474822D01*
X161394104Y-112474822D02*
X161420810Y-112581647D01*
X161420810Y-112581647D02*
X161420810Y-112715179D01*
X161420810Y-112715179D02*
X161394104Y-112822004D01*
X161394104Y-112822004D02*
X161367398Y-112875416D01*
X161367398Y-112875416D02*
X161340691Y-112902123D01*
X161340691Y-112902123D02*
X161287279Y-112928829D01*
X161287279Y-112928829D02*
X161233866Y-112928829D01*
X161233866Y-112928829D02*
X161180454Y-112902123D01*
X161180454Y-112902123D02*
X161153747Y-112875416D01*
X161153747Y-112875416D02*
X161127041Y-112822004D01*
X161127041Y-112822004D02*
X161100335Y-112715179D01*
X161100335Y-112715179D02*
X161100335Y-112581647D01*
X161100335Y-112581647D02*
X161127041Y-112474822D01*
X161127041Y-112474822D02*
X161153747Y-112421409D01*
X161153747Y-112421409D02*
X161180454Y-112394703D01*
X161180454Y-112394703D02*
X161233866Y-112367997D01*
X161954936Y-112928829D02*
X161634461Y-112928829D01*
X161794698Y-112928829D02*
X161794698Y-112367997D01*
X161794698Y-112367997D02*
X161741286Y-112448116D01*
X161741286Y-112448116D02*
X161687873Y-112501528D01*
X161687873Y-112501528D02*
X161634461Y-112528235D01*
X162382237Y-112635060D02*
X162462356Y-112661766D01*
X162462356Y-112661766D02*
X162489062Y-112688472D01*
X162489062Y-112688472D02*
X162515768Y-112741885D01*
X162515768Y-112741885D02*
X162515768Y-112822004D01*
X162515768Y-112822004D02*
X162489062Y-112875416D01*
X162489062Y-112875416D02*
X162462356Y-112902123D01*
X162462356Y-112902123D02*
X162408943Y-112928829D01*
X162408943Y-112928829D02*
X162195293Y-112928829D01*
X162195293Y-112928829D02*
X162195293Y-112367997D01*
X162195293Y-112367997D02*
X162382237Y-112367997D01*
X162382237Y-112367997D02*
X162435650Y-112394703D01*
X162435650Y-112394703D02*
X162462356Y-112421409D01*
X162462356Y-112421409D02*
X162489062Y-112474822D01*
X162489062Y-112474822D02*
X162489062Y-112528235D01*
X162489062Y-112528235D02*
X162462356Y-112581647D01*
X162462356Y-112581647D02*
X162435650Y-112608353D01*
X162435650Y-112608353D02*
X162382237Y-112635060D01*
X162382237Y-112635060D02*
X162195293Y-112635060D01*
X162756125Y-112715179D02*
X163183426Y-112715179D01*
X163423782Y-112902123D02*
X163503901Y-112928829D01*
X163503901Y-112928829D02*
X163637432Y-112928829D01*
X163637432Y-112928829D02*
X163690845Y-112902123D01*
X163690845Y-112902123D02*
X163717551Y-112875416D01*
X163717551Y-112875416D02*
X163744257Y-112822004D01*
X163744257Y-112822004D02*
X163744257Y-112768591D01*
X163744257Y-112768591D02*
X163717551Y-112715179D01*
X163717551Y-112715179D02*
X163690845Y-112688472D01*
X163690845Y-112688472D02*
X163637432Y-112661766D01*
X163637432Y-112661766D02*
X163530607Y-112635060D01*
X163530607Y-112635060D02*
X163477194Y-112608353D01*
X163477194Y-112608353D02*
X163450488Y-112581647D01*
X163450488Y-112581647D02*
X163423782Y-112528235D01*
X163423782Y-112528235D02*
X163423782Y-112474822D01*
X163423782Y-112474822D02*
X163450488Y-112421409D01*
X163450488Y-112421409D02*
X163477194Y-112394703D01*
X163477194Y-112394703D02*
X163530607Y-112367997D01*
X163530607Y-112367997D02*
X163664138Y-112367997D01*
X163664138Y-112367997D02*
X163744257Y-112394703D01*
X164091439Y-112367997D02*
X164144852Y-112367997D01*
X164144852Y-112367997D02*
X164198264Y-112394703D01*
X164198264Y-112394703D02*
X164224971Y-112421409D01*
X164224971Y-112421409D02*
X164251677Y-112474822D01*
X164251677Y-112474822D02*
X164278383Y-112581647D01*
X164278383Y-112581647D02*
X164278383Y-112715179D01*
X164278383Y-112715179D02*
X164251677Y-112822004D01*
X164251677Y-112822004D02*
X164224971Y-112875416D01*
X164224971Y-112875416D02*
X164198264Y-112902123D01*
X164198264Y-112902123D02*
X164144852Y-112928829D01*
X164144852Y-112928829D02*
X164091439Y-112928829D01*
X164091439Y-112928829D02*
X164038027Y-112902123D01*
X164038027Y-112902123D02*
X164011320Y-112875416D01*
X164011320Y-112875416D02*
X163984614Y-112822004D01*
X163984614Y-112822004D02*
X163957908Y-112715179D01*
X163957908Y-112715179D02*
X163957908Y-112581647D01*
X163957908Y-112581647D02*
X163984614Y-112474822D01*
X163984614Y-112474822D02*
X164011320Y-112421409D01*
X164011320Y-112421409D02*
X164038027Y-112394703D01*
X164038027Y-112394703D02*
X164091439Y-112367997D01*
X164759097Y-112554941D02*
X164759097Y-112928829D01*
X164625565Y-112341291D02*
X164492034Y-112741885D01*
X164492034Y-112741885D02*
X164839215Y-112741885D01*
X165159691Y-112367997D02*
X165213104Y-112367997D01*
X165213104Y-112367997D02*
X165266516Y-112394703D01*
X165266516Y-112394703D02*
X165293223Y-112421409D01*
X165293223Y-112421409D02*
X165319929Y-112474822D01*
X165319929Y-112474822D02*
X165346635Y-112581647D01*
X165346635Y-112581647D02*
X165346635Y-112715179D01*
X165346635Y-112715179D02*
X165319929Y-112822004D01*
X165319929Y-112822004D02*
X165293223Y-112875416D01*
X165293223Y-112875416D02*
X165266516Y-112902123D01*
X165266516Y-112902123D02*
X165213104Y-112928829D01*
X165213104Y-112928829D02*
X165159691Y-112928829D01*
X165159691Y-112928829D02*
X165106279Y-112902123D01*
X165106279Y-112902123D02*
X165079572Y-112875416D01*
X165079572Y-112875416D02*
X165052866Y-112822004D01*
X165052866Y-112822004D02*
X165026160Y-112715179D01*
X165026160Y-112715179D02*
X165026160Y-112581647D01*
X165026160Y-112581647D02*
X165052866Y-112474822D01*
X165052866Y-112474822D02*
X165079572Y-112421409D01*
X165079572Y-112421409D02*
X165106279Y-112394703D01*
X165106279Y-112394703D02*
X165159691Y-112367997D01*
D13*
X148685592Y-116322139D02*
X149433368Y-116322139D01*
X149059480Y-117630747D02*
X149059480Y-116322139D01*
X149869571Y-117630747D02*
X149869571Y-116322139D01*
X150430403Y-117630747D02*
X150430403Y-116945286D01*
X150430403Y-116945286D02*
X150368088Y-116820657D01*
X150368088Y-116820657D02*
X150243459Y-116758342D01*
X150243459Y-116758342D02*
X150056515Y-116758342D01*
X150056515Y-116758342D02*
X149931886Y-116820657D01*
X149931886Y-116820657D02*
X149869571Y-116882971D01*
X151053550Y-117630747D02*
X151053550Y-116758342D01*
X151053550Y-116322139D02*
X150991235Y-116384454D01*
X150991235Y-116384454D02*
X151053550Y-116446769D01*
X151053550Y-116446769D02*
X151115865Y-116384454D01*
X151115865Y-116384454D02*
X151053550Y-116322139D01*
X151053550Y-116322139D02*
X151053550Y-116446769D01*
X151676697Y-116758342D02*
X151676697Y-117630747D01*
X151676697Y-116882971D02*
X151739012Y-116820657D01*
X151739012Y-116820657D02*
X151863641Y-116758342D01*
X151863641Y-116758342D02*
X152050585Y-116758342D01*
X152050585Y-116758342D02*
X152175214Y-116820657D01*
X152175214Y-116820657D02*
X152237529Y-116945286D01*
X152237529Y-116945286D02*
X152237529Y-117630747D01*
X152860676Y-117630747D02*
X152860676Y-116322139D01*
X152985305Y-117132230D02*
X153359193Y-117630747D01*
X153359193Y-116758342D02*
X152860676Y-117256859D01*
X153920025Y-116758342D02*
X153920025Y-118066950D01*
X153920025Y-116820657D02*
X154044654Y-116758342D01*
X154044654Y-116758342D02*
X154293913Y-116758342D01*
X154293913Y-116758342D02*
X154418542Y-116820657D01*
X154418542Y-116820657D02*
X154480857Y-116882971D01*
X154480857Y-116882971D02*
X154543172Y-117007601D01*
X154543172Y-117007601D02*
X154543172Y-117381489D01*
X154543172Y-117381489D02*
X154480857Y-117506118D01*
X154480857Y-117506118D02*
X154418542Y-117568433D01*
X154418542Y-117568433D02*
X154293913Y-117630747D01*
X154293913Y-117630747D02*
X154044654Y-117630747D01*
X154044654Y-117630747D02*
X153920025Y-117568433D01*
X155664836Y-117630747D02*
X155664836Y-116945286D01*
X155664836Y-116945286D02*
X155602521Y-116820657D01*
X155602521Y-116820657D02*
X155477892Y-116758342D01*
X155477892Y-116758342D02*
X155228633Y-116758342D01*
X155228633Y-116758342D02*
X155104004Y-116820657D01*
X155664836Y-117568433D02*
X155540207Y-117630747D01*
X155540207Y-117630747D02*
X155228633Y-117630747D01*
X155228633Y-117630747D02*
X155104004Y-117568433D01*
X155104004Y-117568433D02*
X155041689Y-117443803D01*
X155041689Y-117443803D02*
X155041689Y-117319174D01*
X155041689Y-117319174D02*
X155104004Y-117194545D01*
X155104004Y-117194545D02*
X155228633Y-117132230D01*
X155228633Y-117132230D02*
X155540207Y-117132230D01*
X155540207Y-117132230D02*
X155664836Y-117069915D01*
X156848815Y-117630747D02*
X156848815Y-116322139D01*
X156848815Y-117568433D02*
X156724186Y-117630747D01*
X156724186Y-117630747D02*
X156474927Y-117630747D01*
X156474927Y-117630747D02*
X156350298Y-117568433D01*
X156350298Y-117568433D02*
X156287983Y-117506118D01*
X156287983Y-117506118D02*
X156225668Y-117381489D01*
X156225668Y-117381489D02*
X156225668Y-117007601D01*
X156225668Y-117007601D02*
X156287983Y-116882971D01*
X156287983Y-116882971D02*
X156350298Y-116820657D01*
X156350298Y-116820657D02*
X156474927Y-116758342D01*
X156474927Y-116758342D02*
X156724186Y-116758342D01*
X156724186Y-116758342D02*
X156848815Y-116820657D01*
X158468997Y-117630747D02*
X158468997Y-116322139D01*
X159216773Y-117630747D02*
X158655941Y-116882971D01*
X159216773Y-116322139D02*
X158468997Y-117069915D01*
X160276122Y-117568433D02*
X160151493Y-117630747D01*
X160151493Y-117630747D02*
X159902234Y-117630747D01*
X159902234Y-117630747D02*
X159777605Y-117568433D01*
X159777605Y-117568433D02*
X159715290Y-117443803D01*
X159715290Y-117443803D02*
X159715290Y-116945286D01*
X159715290Y-116945286D02*
X159777605Y-116820657D01*
X159777605Y-116820657D02*
X159902234Y-116758342D01*
X159902234Y-116758342D02*
X160151493Y-116758342D01*
X160151493Y-116758342D02*
X160276122Y-116820657D01*
X160276122Y-116820657D02*
X160338437Y-116945286D01*
X160338437Y-116945286D02*
X160338437Y-117069915D01*
X160338437Y-117069915D02*
X159715290Y-117194545D01*
X160774640Y-116758342D02*
X161086213Y-117630747D01*
X161397786Y-116758342D02*
X161086213Y-117630747D01*
X161086213Y-117630747D02*
X160961584Y-117942321D01*
X160961584Y-117942321D02*
X160899269Y-118004635D01*
X160899269Y-118004635D02*
X160774640Y-118066950D01*
X161896304Y-117630747D02*
X161896304Y-116322139D01*
X161896304Y-116820657D02*
X162020933Y-116758342D01*
X162020933Y-116758342D02*
X162270192Y-116758342D01*
X162270192Y-116758342D02*
X162394821Y-116820657D01*
X162394821Y-116820657D02*
X162457136Y-116882971D01*
X162457136Y-116882971D02*
X162519451Y-117007601D01*
X162519451Y-117007601D02*
X162519451Y-117381489D01*
X162519451Y-117381489D02*
X162457136Y-117506118D01*
X162457136Y-117506118D02*
X162394821Y-117568433D01*
X162394821Y-117568433D02*
X162270192Y-117630747D01*
X162270192Y-117630747D02*
X162020933Y-117630747D01*
X162020933Y-117630747D02*
X161896304Y-117568433D01*
X163267227Y-117630747D02*
X163142598Y-117568433D01*
X163142598Y-117568433D02*
X163080283Y-117506118D01*
X163080283Y-117506118D02*
X163017968Y-117381489D01*
X163017968Y-117381489D02*
X163017968Y-117007601D01*
X163017968Y-117007601D02*
X163080283Y-116882971D01*
X163080283Y-116882971D02*
X163142598Y-116820657D01*
X163142598Y-116820657D02*
X163267227Y-116758342D01*
X163267227Y-116758342D02*
X163454171Y-116758342D01*
X163454171Y-116758342D02*
X163578800Y-116820657D01*
X163578800Y-116820657D02*
X163641115Y-116882971D01*
X163641115Y-116882971D02*
X163703430Y-117007601D01*
X163703430Y-117007601D02*
X163703430Y-117381489D01*
X163703430Y-117381489D02*
X163641115Y-117506118D01*
X163641115Y-117506118D02*
X163578800Y-117568433D01*
X163578800Y-117568433D02*
X163454171Y-117630747D01*
X163454171Y-117630747D02*
X163267227Y-117630747D01*
X164825094Y-117630747D02*
X164825094Y-116945286D01*
X164825094Y-116945286D02*
X164762779Y-116820657D01*
X164762779Y-116820657D02*
X164638150Y-116758342D01*
X164638150Y-116758342D02*
X164388891Y-116758342D01*
X164388891Y-116758342D02*
X164264262Y-116820657D01*
X164825094Y-117568433D02*
X164700465Y-117630747D01*
X164700465Y-117630747D02*
X164388891Y-117630747D01*
X164388891Y-117630747D02*
X164264262Y-117568433D01*
X164264262Y-117568433D02*
X164201947Y-117443803D01*
X164201947Y-117443803D02*
X164201947Y-117319174D01*
X164201947Y-117319174D02*
X164264262Y-117194545D01*
X164264262Y-117194545D02*
X164388891Y-117132230D01*
X164388891Y-117132230D02*
X164700465Y-117132230D01*
X164700465Y-117132230D02*
X164825094Y-117069915D01*
X165448241Y-117630747D02*
X165448241Y-116758342D01*
X165448241Y-117007601D02*
X165510556Y-116882971D01*
X165510556Y-116882971D02*
X165572870Y-116820657D01*
X165572870Y-116820657D02*
X165697500Y-116758342D01*
X165697500Y-116758342D02*
X165822129Y-116758342D01*
X166819164Y-117630747D02*
X166819164Y-116322139D01*
X166819164Y-117568433D02*
X166694535Y-117630747D01*
X166694535Y-117630747D02*
X166445276Y-117630747D01*
X166445276Y-117630747D02*
X166320647Y-117568433D01*
X166320647Y-117568433D02*
X166258332Y-117506118D01*
X166258332Y-117506118D02*
X166196017Y-117381489D01*
X166196017Y-117381489D02*
X166196017Y-117007601D01*
X166196017Y-117007601D02*
X166258332Y-116882971D01*
X166258332Y-116882971D02*
X166320647Y-116820657D01*
X166320647Y-116820657D02*
X166445276Y-116758342D01*
X166445276Y-116758342D02*
X166694535Y-116758342D01*
X166694535Y-116758342D02*
X166819164Y-116820657D01*
X148872536Y-118428925D02*
X148872536Y-119488275D01*
X148872536Y-119488275D02*
X148934851Y-119612904D01*
X148934851Y-119612904D02*
X148997165Y-119675219D01*
X148997165Y-119675219D02*
X149121795Y-119737533D01*
X149121795Y-119737533D02*
X149371053Y-119737533D01*
X149371053Y-119737533D02*
X149495683Y-119675219D01*
X149495683Y-119675219D02*
X149557997Y-119612904D01*
X149557997Y-119612904D02*
X149620312Y-119488275D01*
X149620312Y-119488275D02*
X149620312Y-118428925D01*
X150181144Y-119675219D02*
X150368088Y-119737533D01*
X150368088Y-119737533D02*
X150679662Y-119737533D01*
X150679662Y-119737533D02*
X150804291Y-119675219D01*
X150804291Y-119675219D02*
X150866606Y-119612904D01*
X150866606Y-119612904D02*
X150928920Y-119488275D01*
X150928920Y-119488275D02*
X150928920Y-119363645D01*
X150928920Y-119363645D02*
X150866606Y-119239016D01*
X150866606Y-119239016D02*
X150804291Y-119176701D01*
X150804291Y-119176701D02*
X150679662Y-119114387D01*
X150679662Y-119114387D02*
X150430403Y-119052072D01*
X150430403Y-119052072D02*
X150305774Y-118989757D01*
X150305774Y-118989757D02*
X150243459Y-118927443D01*
X150243459Y-118927443D02*
X150181144Y-118802813D01*
X150181144Y-118802813D02*
X150181144Y-118678184D01*
X150181144Y-118678184D02*
X150243459Y-118553555D01*
X150243459Y-118553555D02*
X150305774Y-118491240D01*
X150305774Y-118491240D02*
X150430403Y-118428925D01*
X150430403Y-118428925D02*
X150741976Y-118428925D01*
X150741976Y-118428925D02*
X150928920Y-118491240D01*
X151925955Y-119052072D02*
X152112899Y-119114387D01*
X152112899Y-119114387D02*
X152175213Y-119176701D01*
X152175213Y-119176701D02*
X152237528Y-119301331D01*
X152237528Y-119301331D02*
X152237528Y-119488275D01*
X152237528Y-119488275D02*
X152175213Y-119612904D01*
X152175213Y-119612904D02*
X152112899Y-119675219D01*
X152112899Y-119675219D02*
X151988269Y-119737533D01*
X151988269Y-119737533D02*
X151489752Y-119737533D01*
X151489752Y-119737533D02*
X151489752Y-118428925D01*
X151489752Y-118428925D02*
X151925955Y-118428925D01*
X151925955Y-118428925D02*
X152050584Y-118491240D01*
X152050584Y-118491240D02*
X152112899Y-118553555D01*
X152112899Y-118553555D02*
X152175213Y-118678184D01*
X152175213Y-118678184D02*
X152175213Y-118802813D01*
X152175213Y-118802813D02*
X152112899Y-118927443D01*
X152112899Y-118927443D02*
X152050584Y-118989757D01*
X152050584Y-118989757D02*
X151925955Y-119052072D01*
X151925955Y-119052072D02*
X151489752Y-119052072D01*
X154356227Y-119675219D02*
X154231598Y-119737533D01*
X154231598Y-119737533D02*
X153982339Y-119737533D01*
X153982339Y-119737533D02*
X153857710Y-119675219D01*
X153857710Y-119675219D02*
X153795395Y-119612904D01*
X153795395Y-119612904D02*
X153733080Y-119488275D01*
X153733080Y-119488275D02*
X153733080Y-119114387D01*
X153733080Y-119114387D02*
X153795395Y-118989757D01*
X153795395Y-118989757D02*
X153857710Y-118927443D01*
X153857710Y-118927443D02*
X153982339Y-118865128D01*
X153982339Y-118865128D02*
X154231598Y-118865128D01*
X154231598Y-118865128D02*
X154356227Y-118927443D01*
X155104003Y-119737533D02*
X154979374Y-119675219D01*
X154979374Y-119675219D02*
X154917059Y-119612904D01*
X154917059Y-119612904D02*
X154854744Y-119488275D01*
X154854744Y-119488275D02*
X154854744Y-119114387D01*
X154854744Y-119114387D02*
X154917059Y-118989757D01*
X154917059Y-118989757D02*
X154979374Y-118927443D01*
X154979374Y-118927443D02*
X155104003Y-118865128D01*
X155104003Y-118865128D02*
X155290947Y-118865128D01*
X155290947Y-118865128D02*
X155415576Y-118927443D01*
X155415576Y-118927443D02*
X155477891Y-118989757D01*
X155477891Y-118989757D02*
X155540206Y-119114387D01*
X155540206Y-119114387D02*
X155540206Y-119488275D01*
X155540206Y-119488275D02*
X155477891Y-119612904D01*
X155477891Y-119612904D02*
X155415576Y-119675219D01*
X155415576Y-119675219D02*
X155290947Y-119737533D01*
X155290947Y-119737533D02*
X155104003Y-119737533D01*
X156101038Y-118865128D02*
X156101038Y-119737533D01*
X156101038Y-118989757D02*
X156163353Y-118927443D01*
X156163353Y-118927443D02*
X156287982Y-118865128D01*
X156287982Y-118865128D02*
X156474926Y-118865128D01*
X156474926Y-118865128D02*
X156599555Y-118927443D01*
X156599555Y-118927443D02*
X156661870Y-119052072D01*
X156661870Y-119052072D02*
X156661870Y-119737533D01*
X157098073Y-118865128D02*
X157596590Y-118865128D01*
X157285017Y-118428925D02*
X157285017Y-119550589D01*
X157285017Y-119550589D02*
X157347332Y-119675219D01*
X157347332Y-119675219D02*
X157471961Y-119737533D01*
X157471961Y-119737533D02*
X157596590Y-119737533D01*
X158032793Y-119737533D02*
X158032793Y-118865128D01*
X158032793Y-119114387D02*
X158095108Y-118989757D01*
X158095108Y-118989757D02*
X158157422Y-118927443D01*
X158157422Y-118927443D02*
X158282052Y-118865128D01*
X158282052Y-118865128D02*
X158406681Y-118865128D01*
X159029828Y-119737533D02*
X158905199Y-119675219D01*
X158905199Y-119675219D02*
X158842884Y-119612904D01*
X158842884Y-119612904D02*
X158780569Y-119488275D01*
X158780569Y-119488275D02*
X158780569Y-119114387D01*
X158780569Y-119114387D02*
X158842884Y-118989757D01*
X158842884Y-118989757D02*
X158905199Y-118927443D01*
X158905199Y-118927443D02*
X159029828Y-118865128D01*
X159029828Y-118865128D02*
X159216772Y-118865128D01*
X159216772Y-118865128D02*
X159341401Y-118927443D01*
X159341401Y-118927443D02*
X159403716Y-118989757D01*
X159403716Y-118989757D02*
X159466031Y-119114387D01*
X159466031Y-119114387D02*
X159466031Y-119488275D01*
X159466031Y-119488275D02*
X159403716Y-119612904D01*
X159403716Y-119612904D02*
X159341401Y-119675219D01*
X159341401Y-119675219D02*
X159216772Y-119737533D01*
X159216772Y-119737533D02*
X159029828Y-119737533D01*
X160213807Y-119737533D02*
X160089178Y-119675219D01*
X160089178Y-119675219D02*
X160026863Y-119550589D01*
X160026863Y-119550589D02*
X160026863Y-118428925D01*
X160899268Y-119737533D02*
X160774639Y-119675219D01*
X160774639Y-119675219D02*
X160712324Y-119550589D01*
X160712324Y-119550589D02*
X160712324Y-118428925D01*
X161896302Y-119675219D02*
X161771673Y-119737533D01*
X161771673Y-119737533D02*
X161522414Y-119737533D01*
X161522414Y-119737533D02*
X161397785Y-119675219D01*
X161397785Y-119675219D02*
X161335470Y-119550589D01*
X161335470Y-119550589D02*
X161335470Y-119052072D01*
X161335470Y-119052072D02*
X161397785Y-118927443D01*
X161397785Y-118927443D02*
X161522414Y-118865128D01*
X161522414Y-118865128D02*
X161771673Y-118865128D01*
X161771673Y-118865128D02*
X161896302Y-118927443D01*
X161896302Y-118927443D02*
X161958617Y-119052072D01*
X161958617Y-119052072D02*
X161958617Y-119176701D01*
X161958617Y-119176701D02*
X161335470Y-119301331D01*
X162519449Y-119737533D02*
X162519449Y-118865128D01*
X162519449Y-119114387D02*
X162581764Y-118989757D01*
X162581764Y-118989757D02*
X162644078Y-118927443D01*
X162644078Y-118927443D02*
X162768708Y-118865128D01*
X162768708Y-118865128D02*
X162893337Y-118865128D01*
X164139631Y-118865128D02*
X164638148Y-118865128D01*
X164326575Y-118428925D02*
X164326575Y-119550589D01*
X164326575Y-119550589D02*
X164388890Y-119675219D01*
X164388890Y-119675219D02*
X164513519Y-119737533D01*
X164513519Y-119737533D02*
X164638148Y-119737533D01*
X165074351Y-119737533D02*
X165074351Y-118428925D01*
X165635183Y-119737533D02*
X165635183Y-119052072D01*
X165635183Y-119052072D02*
X165572868Y-118927443D01*
X165572868Y-118927443D02*
X165448239Y-118865128D01*
X165448239Y-118865128D02*
X165261295Y-118865128D01*
X165261295Y-118865128D02*
X165136666Y-118927443D01*
X165136666Y-118927443D02*
X165074351Y-118989757D01*
X166258330Y-119737533D02*
X166258330Y-118865128D01*
X166258330Y-118428925D02*
X166196015Y-118491240D01*
X166196015Y-118491240D02*
X166258330Y-118553555D01*
X166258330Y-118553555D02*
X166320645Y-118491240D01*
X166320645Y-118491240D02*
X166258330Y-118428925D01*
X166258330Y-118428925D02*
X166258330Y-118553555D01*
X166881477Y-118865128D02*
X166881477Y-119737533D01*
X166881477Y-118989757D02*
X166943792Y-118927443D01*
X166943792Y-118927443D02*
X167068421Y-118865128D01*
X167068421Y-118865128D02*
X167255365Y-118865128D01*
X167255365Y-118865128D02*
X167379994Y-118927443D01*
X167379994Y-118927443D02*
X167442309Y-119052072D01*
X167442309Y-119052072D02*
X167442309Y-119737533D01*
X168626288Y-118865128D02*
X168626288Y-119924477D01*
X168626288Y-119924477D02*
X168563973Y-120049107D01*
X168563973Y-120049107D02*
X168501659Y-120111421D01*
X168501659Y-120111421D02*
X168377029Y-120173736D01*
X168377029Y-120173736D02*
X168190085Y-120173736D01*
X168190085Y-120173736D02*
X168065456Y-120111421D01*
X168626288Y-119675219D02*
X168501659Y-119737533D01*
X168501659Y-119737533D02*
X168252400Y-119737533D01*
X168252400Y-119737533D02*
X168127771Y-119675219D01*
X168127771Y-119675219D02*
X168065456Y-119612904D01*
X168065456Y-119612904D02*
X168003141Y-119488275D01*
X168003141Y-119488275D02*
X168003141Y-119114387D01*
X168003141Y-119114387D02*
X168065456Y-118989757D01*
X168065456Y-118989757D02*
X168127771Y-118927443D01*
X168127771Y-118927443D02*
X168252400Y-118865128D01*
X168252400Y-118865128D02*
X168501659Y-118865128D01*
X168501659Y-118865128D02*
X168626288Y-118927443D01*
D11*
X160095605Y-92617272D02*
X160391697Y-92617272D01*
X160243651Y-93135432D02*
X160243651Y-92617272D01*
X160564417Y-93135432D02*
X160564417Y-92789992D01*
X160564417Y-92888689D02*
X160589091Y-92839340D01*
X160589091Y-92839340D02*
X160613766Y-92814666D01*
X160613766Y-92814666D02*
X160663114Y-92789992D01*
X160663114Y-92789992D02*
X160712463Y-92789992D01*
X160761812Y-93184780D02*
X161156600Y-93184780D01*
X161576063Y-93086083D02*
X161551389Y-93110758D01*
X161551389Y-93110758D02*
X161477366Y-93135432D01*
X161477366Y-93135432D02*
X161428018Y-93135432D01*
X161428018Y-93135432D02*
X161353995Y-93110758D01*
X161353995Y-93110758D02*
X161304646Y-93061409D01*
X161304646Y-93061409D02*
X161279972Y-93012060D01*
X161279972Y-93012060D02*
X161255298Y-92913363D01*
X161255298Y-92913363D02*
X161255298Y-92839340D01*
X161255298Y-92839340D02*
X161279972Y-92740643D01*
X161279972Y-92740643D02*
X161304646Y-92691295D01*
X161304646Y-92691295D02*
X161353995Y-92641946D01*
X161353995Y-92641946D02*
X161428018Y-92617272D01*
X161428018Y-92617272D02*
X161477366Y-92617272D01*
X161477366Y-92617272D02*
X161551389Y-92641946D01*
X161551389Y-92641946D02*
X161576063Y-92666620D01*
X162044875Y-93135432D02*
X161798132Y-93135432D01*
X161798132Y-93135432D02*
X161798132Y-92617272D01*
X162217595Y-93135432D02*
X162217595Y-92617272D01*
X162513686Y-93135432D02*
X162291618Y-92839340D01*
X162513686Y-92617272D02*
X162217595Y-92913363D01*
X125599772Y-104269420D02*
X125599772Y-103948654D01*
X125599772Y-103948654D02*
X125797166Y-104121374D01*
X125797166Y-104121374D02*
X125797166Y-104047351D01*
X125797166Y-104047351D02*
X125821840Y-103998003D01*
X125821840Y-103998003D02*
X125846515Y-103973328D01*
X125846515Y-103973328D02*
X125895863Y-103948654D01*
X125895863Y-103948654D02*
X126019235Y-103948654D01*
X126019235Y-103948654D02*
X126068583Y-103973328D01*
X126068583Y-103973328D02*
X126093258Y-103998003D01*
X126093258Y-103998003D02*
X126117932Y-104047351D01*
X126117932Y-104047351D02*
X126117932Y-104195397D01*
X126117932Y-104195397D02*
X126093258Y-104244745D01*
X126093258Y-104244745D02*
X126068583Y-104269420D01*
X125599772Y-103800608D02*
X126117932Y-103627888D01*
X126117932Y-103627888D02*
X125599772Y-103455168D01*
X153465719Y-127486083D02*
X153441045Y-127510758D01*
X153441045Y-127510758D02*
X153367022Y-127535432D01*
X153367022Y-127535432D02*
X153317674Y-127535432D01*
X153317674Y-127535432D02*
X153243651Y-127510758D01*
X153243651Y-127510758D02*
X153194302Y-127461409D01*
X153194302Y-127461409D02*
X153169628Y-127412060D01*
X153169628Y-127412060D02*
X153144954Y-127313363D01*
X153144954Y-127313363D02*
X153144954Y-127239340D01*
X153144954Y-127239340D02*
X153169628Y-127140643D01*
X153169628Y-127140643D02*
X153194302Y-127091295D01*
X153194302Y-127091295D02*
X153243651Y-127041946D01*
X153243651Y-127041946D02*
X153317674Y-127017272D01*
X153317674Y-127017272D02*
X153367022Y-127017272D01*
X153367022Y-127017272D02*
X153441045Y-127041946D01*
X153441045Y-127041946D02*
X153465719Y-127066620D01*
X153934531Y-127535432D02*
X153687788Y-127535432D01*
X153687788Y-127535432D02*
X153687788Y-127017272D01*
X154205948Y-127017272D02*
X154304645Y-127017272D01*
X154304645Y-127017272D02*
X154353994Y-127041946D01*
X154353994Y-127041946D02*
X154403342Y-127091295D01*
X154403342Y-127091295D02*
X154428017Y-127189992D01*
X154428017Y-127189992D02*
X154428017Y-127362712D01*
X154428017Y-127362712D02*
X154403342Y-127461409D01*
X154403342Y-127461409D02*
X154353994Y-127510758D01*
X154353994Y-127510758D02*
X154304645Y-127535432D01*
X154304645Y-127535432D02*
X154205948Y-127535432D01*
X154205948Y-127535432D02*
X154156600Y-127510758D01*
X154156600Y-127510758D02*
X154107251Y-127461409D01*
X154107251Y-127461409D02*
X154082577Y-127362712D01*
X154082577Y-127362712D02*
X154082577Y-127189992D01*
X154082577Y-127189992D02*
X154107251Y-127091295D01*
X154107251Y-127091295D02*
X154156600Y-127041946D01*
X154156600Y-127041946D02*
X154205948Y-127017272D01*
X154946176Y-127486083D02*
X154921502Y-127510758D01*
X154921502Y-127510758D02*
X154847479Y-127535432D01*
X154847479Y-127535432D02*
X154798131Y-127535432D01*
X154798131Y-127535432D02*
X154724108Y-127510758D01*
X154724108Y-127510758D02*
X154674759Y-127461409D01*
X154674759Y-127461409D02*
X154650085Y-127412060D01*
X154650085Y-127412060D02*
X154625411Y-127313363D01*
X154625411Y-127313363D02*
X154625411Y-127239340D01*
X154625411Y-127239340D02*
X154650085Y-127140643D01*
X154650085Y-127140643D02*
X154674759Y-127091295D01*
X154674759Y-127091295D02*
X154724108Y-127041946D01*
X154724108Y-127041946D02*
X154798131Y-127017272D01*
X154798131Y-127017272D02*
X154847479Y-127017272D01*
X154847479Y-127017272D02*
X154921502Y-127041946D01*
X154921502Y-127041946D02*
X154946176Y-127066620D01*
X155168245Y-127535432D02*
X155168245Y-127017272D01*
X155464336Y-127535432D02*
X155242268Y-127239340D01*
X155464336Y-127017272D02*
X155168245Y-127313363D01*
X126068583Y-109523980D02*
X126093258Y-109548654D01*
X126093258Y-109548654D02*
X126117932Y-109622677D01*
X126117932Y-109622677D02*
X126117932Y-109672025D01*
X126117932Y-109672025D02*
X126093258Y-109746048D01*
X126093258Y-109746048D02*
X126043909Y-109795397D01*
X126043909Y-109795397D02*
X125994560Y-109820071D01*
X125994560Y-109820071D02*
X125895863Y-109844745D01*
X125895863Y-109844745D02*
X125821840Y-109844745D01*
X125821840Y-109844745D02*
X125723143Y-109820071D01*
X125723143Y-109820071D02*
X125673795Y-109795397D01*
X125673795Y-109795397D02*
X125624446Y-109746048D01*
X125624446Y-109746048D02*
X125599772Y-109672025D01*
X125599772Y-109672025D02*
X125599772Y-109622677D01*
X125599772Y-109622677D02*
X125624446Y-109548654D01*
X125624446Y-109548654D02*
X125649120Y-109523980D01*
X125969886Y-109326585D02*
X125969886Y-109079843D01*
X126117932Y-109375934D02*
X125599772Y-109203214D01*
X125599772Y-109203214D02*
X126117932Y-109030494D01*
X126117932Y-108857774D02*
X125599772Y-108857774D01*
X125599772Y-108857774D02*
X125599772Y-108660380D01*
X125599772Y-108660380D02*
X125624446Y-108611031D01*
X125624446Y-108611031D02*
X125649120Y-108586357D01*
X125649120Y-108586357D02*
X125698469Y-108561683D01*
X125698469Y-108561683D02*
X125772492Y-108561683D01*
X125772492Y-108561683D02*
X125821840Y-108586357D01*
X125821840Y-108586357D02*
X125846515Y-108611031D01*
X125846515Y-108611031D02*
X125871189Y-108660380D01*
X125871189Y-108660380D02*
X125871189Y-108857774D01*
X126093258Y-108364288D02*
X126117932Y-108290266D01*
X126117932Y-108290266D02*
X126117932Y-108166894D01*
X126117932Y-108166894D02*
X126093258Y-108117546D01*
X126093258Y-108117546D02*
X126068583Y-108092871D01*
X126068583Y-108092871D02*
X126019235Y-108068197D01*
X126019235Y-108068197D02*
X125969886Y-108068197D01*
X125969886Y-108068197D02*
X125920538Y-108092871D01*
X125920538Y-108092871D02*
X125895863Y-108117546D01*
X125895863Y-108117546D02*
X125871189Y-108166894D01*
X125871189Y-108166894D02*
X125846515Y-108265591D01*
X125846515Y-108265591D02*
X125821840Y-108314940D01*
X125821840Y-108314940D02*
X125797166Y-108339614D01*
X125797166Y-108339614D02*
X125747818Y-108364288D01*
X125747818Y-108364288D02*
X125698469Y-108364288D01*
X125698469Y-108364288D02*
X125649120Y-108339614D01*
X125649120Y-108339614D02*
X125624446Y-108314940D01*
X125624446Y-108314940D02*
X125599772Y-108265591D01*
X125599772Y-108265591D02*
X125599772Y-108142220D01*
X125599772Y-108142220D02*
X125624446Y-108068197D01*
X146665719Y-123586083D02*
X146641045Y-123610758D01*
X146641045Y-123610758D02*
X146567022Y-123635432D01*
X146567022Y-123635432D02*
X146517674Y-123635432D01*
X146517674Y-123635432D02*
X146443651Y-123610758D01*
X146443651Y-123610758D02*
X146394302Y-123561409D01*
X146394302Y-123561409D02*
X146369628Y-123512060D01*
X146369628Y-123512060D02*
X146344954Y-123413363D01*
X146344954Y-123413363D02*
X146344954Y-123339340D01*
X146344954Y-123339340D02*
X146369628Y-123240643D01*
X146369628Y-123240643D02*
X146394302Y-123191295D01*
X146394302Y-123191295D02*
X146443651Y-123141946D01*
X146443651Y-123141946D02*
X146517674Y-123117272D01*
X146517674Y-123117272D02*
X146567022Y-123117272D01*
X146567022Y-123117272D02*
X146641045Y-123141946D01*
X146641045Y-123141946D02*
X146665719Y-123166620D01*
X146838439Y-123117272D02*
X147159205Y-123117272D01*
X147159205Y-123117272D02*
X146986485Y-123314666D01*
X146986485Y-123314666D02*
X147060508Y-123314666D01*
X147060508Y-123314666D02*
X147109857Y-123339340D01*
X147109857Y-123339340D02*
X147134531Y-123364015D01*
X147134531Y-123364015D02*
X147159205Y-123413363D01*
X147159205Y-123413363D02*
X147159205Y-123536735D01*
X147159205Y-123536735D02*
X147134531Y-123586083D01*
X147134531Y-123586083D02*
X147109857Y-123610758D01*
X147109857Y-123610758D02*
X147060508Y-123635432D01*
X147060508Y-123635432D02*
X146912462Y-123635432D01*
X146912462Y-123635432D02*
X146863114Y-123610758D01*
X146863114Y-123610758D02*
X146838439Y-123586083D01*
X161565719Y-123586083D02*
X161541045Y-123610758D01*
X161541045Y-123610758D02*
X161467022Y-123635432D01*
X161467022Y-123635432D02*
X161417674Y-123635432D01*
X161417674Y-123635432D02*
X161343651Y-123610758D01*
X161343651Y-123610758D02*
X161294302Y-123561409D01*
X161294302Y-123561409D02*
X161269628Y-123512060D01*
X161269628Y-123512060D02*
X161244954Y-123413363D01*
X161244954Y-123413363D02*
X161244954Y-123339340D01*
X161244954Y-123339340D02*
X161269628Y-123240643D01*
X161269628Y-123240643D02*
X161294302Y-123191295D01*
X161294302Y-123191295D02*
X161343651Y-123141946D01*
X161343651Y-123141946D02*
X161417674Y-123117272D01*
X161417674Y-123117272D02*
X161467022Y-123117272D01*
X161467022Y-123117272D02*
X161541045Y-123141946D01*
X161541045Y-123141946D02*
X161565719Y-123166620D01*
X161763114Y-123166620D02*
X161787788Y-123141946D01*
X161787788Y-123141946D02*
X161837137Y-123117272D01*
X161837137Y-123117272D02*
X161960508Y-123117272D01*
X161960508Y-123117272D02*
X162009857Y-123141946D01*
X162009857Y-123141946D02*
X162034531Y-123166620D01*
X162034531Y-123166620D02*
X162059205Y-123215969D01*
X162059205Y-123215969D02*
X162059205Y-123265318D01*
X162059205Y-123265318D02*
X162034531Y-123339340D01*
X162034531Y-123339340D02*
X161738439Y-123635432D01*
X161738439Y-123635432D02*
X162059205Y-123635432D01*
X158565719Y-127535432D02*
X158392999Y-127288689D01*
X158269628Y-127535432D02*
X158269628Y-127017272D01*
X158269628Y-127017272D02*
X158467022Y-127017272D01*
X158467022Y-127017272D02*
X158516371Y-127041946D01*
X158516371Y-127041946D02*
X158541045Y-127066620D01*
X158541045Y-127066620D02*
X158565719Y-127115969D01*
X158565719Y-127115969D02*
X158565719Y-127189992D01*
X158565719Y-127189992D02*
X158541045Y-127239340D01*
X158541045Y-127239340D02*
X158516371Y-127264015D01*
X158516371Y-127264015D02*
X158467022Y-127288689D01*
X158467022Y-127288689D02*
X158269628Y-127288689D01*
X158787788Y-127264015D02*
X158960508Y-127264015D01*
X159034531Y-127535432D02*
X158787788Y-127535432D01*
X158787788Y-127535432D02*
X158787788Y-127017272D01*
X158787788Y-127017272D02*
X159034531Y-127017272D01*
X159231925Y-127510758D02*
X159305948Y-127535432D01*
X159305948Y-127535432D02*
X159429319Y-127535432D01*
X159429319Y-127535432D02*
X159478668Y-127510758D01*
X159478668Y-127510758D02*
X159503342Y-127486083D01*
X159503342Y-127486083D02*
X159528016Y-127436735D01*
X159528016Y-127436735D02*
X159528016Y-127387386D01*
X159528016Y-127387386D02*
X159503342Y-127338038D01*
X159503342Y-127338038D02*
X159478668Y-127313363D01*
X159478668Y-127313363D02*
X159429319Y-127288689D01*
X159429319Y-127288689D02*
X159330622Y-127264015D01*
X159330622Y-127264015D02*
X159281273Y-127239340D01*
X159281273Y-127239340D02*
X159256599Y-127214666D01*
X159256599Y-127214666D02*
X159231925Y-127165318D01*
X159231925Y-127165318D02*
X159231925Y-127115969D01*
X159231925Y-127115969D02*
X159256599Y-127066620D01*
X159256599Y-127066620D02*
X159281273Y-127041946D01*
X159281273Y-127041946D02*
X159330622Y-127017272D01*
X159330622Y-127017272D02*
X159453993Y-127017272D01*
X159453993Y-127017272D02*
X159528016Y-127041946D01*
X159750085Y-127264015D02*
X159922805Y-127264015D01*
X159996828Y-127535432D02*
X159750085Y-127535432D01*
X159750085Y-127535432D02*
X159750085Y-127017272D01*
X159750085Y-127017272D02*
X159996828Y-127017272D01*
X160144873Y-127017272D02*
X160440965Y-127017272D01*
X160292919Y-127535432D02*
X160292919Y-127017272D01*
X160613685Y-127338038D02*
X161008474Y-127338038D01*
X150769628Y-127535432D02*
X150769628Y-127017272D01*
X150769628Y-127017272D02*
X150892999Y-127017272D01*
X150892999Y-127017272D02*
X150967022Y-127041946D01*
X150967022Y-127041946D02*
X151016371Y-127091295D01*
X151016371Y-127091295D02*
X151041045Y-127140643D01*
X151041045Y-127140643D02*
X151065719Y-127239340D01*
X151065719Y-127239340D02*
X151065719Y-127313363D01*
X151065719Y-127313363D02*
X151041045Y-127412060D01*
X151041045Y-127412060D02*
X151016371Y-127461409D01*
X151016371Y-127461409D02*
X150967022Y-127510758D01*
X150967022Y-127510758D02*
X150892999Y-127535432D01*
X150892999Y-127535432D02*
X150769628Y-127535432D01*
X151263114Y-127387386D02*
X151509857Y-127387386D01*
X151213765Y-127535432D02*
X151386485Y-127017272D01*
X151386485Y-127017272D02*
X151559205Y-127535432D01*
X151657902Y-127017272D02*
X151953994Y-127017272D01*
X151805948Y-127535432D02*
X151805948Y-127017272D01*
X152102040Y-127387386D02*
X152348783Y-127387386D01*
X152052691Y-127535432D02*
X152225411Y-127017272D01*
X152225411Y-127017272D02*
X152398131Y-127535432D01*
X168865719Y-96435432D02*
X168692999Y-96188689D01*
X168569628Y-96435432D02*
X168569628Y-95917272D01*
X168569628Y-95917272D02*
X168767022Y-95917272D01*
X168767022Y-95917272D02*
X168816371Y-95941946D01*
X168816371Y-95941946D02*
X168841045Y-95966620D01*
X168841045Y-95966620D02*
X168865719Y-96015969D01*
X168865719Y-96015969D02*
X168865719Y-96089992D01*
X168865719Y-96089992D02*
X168841045Y-96139340D01*
X168841045Y-96139340D02*
X168816371Y-96164015D01*
X168816371Y-96164015D02*
X168767022Y-96188689D01*
X168767022Y-96188689D02*
X168569628Y-96188689D01*
X169087788Y-96164015D02*
X169260508Y-96164015D01*
X169334531Y-96435432D02*
X169087788Y-96435432D01*
X169087788Y-96435432D02*
X169087788Y-95917272D01*
X169087788Y-95917272D02*
X169334531Y-95917272D01*
X169531925Y-96410758D02*
X169605948Y-96435432D01*
X169605948Y-96435432D02*
X169729319Y-96435432D01*
X169729319Y-96435432D02*
X169778668Y-96410758D01*
X169778668Y-96410758D02*
X169803342Y-96386083D01*
X169803342Y-96386083D02*
X169828016Y-96336735D01*
X169828016Y-96336735D02*
X169828016Y-96287386D01*
X169828016Y-96287386D02*
X169803342Y-96238038D01*
X169803342Y-96238038D02*
X169778668Y-96213363D01*
X169778668Y-96213363D02*
X169729319Y-96188689D01*
X169729319Y-96188689D02*
X169630622Y-96164015D01*
X169630622Y-96164015D02*
X169581273Y-96139340D01*
X169581273Y-96139340D02*
X169556599Y-96114666D01*
X169556599Y-96114666D02*
X169531925Y-96065318D01*
X169531925Y-96065318D02*
X169531925Y-96015969D01*
X169531925Y-96015969D02*
X169556599Y-95966620D01*
X169556599Y-95966620D02*
X169581273Y-95941946D01*
X169581273Y-95941946D02*
X169630622Y-95917272D01*
X169630622Y-95917272D02*
X169753993Y-95917272D01*
X169753993Y-95917272D02*
X169828016Y-95941946D01*
X170050085Y-96164015D02*
X170222805Y-96164015D01*
X170296828Y-96435432D02*
X170050085Y-96435432D01*
X170050085Y-96435432D02*
X170050085Y-95917272D01*
X170050085Y-95917272D02*
X170296828Y-95917272D01*
X170444873Y-95917272D02*
X170740965Y-95917272D01*
X170592919Y-96435432D02*
X170592919Y-95917272D01*
X170913685Y-96238038D02*
X171308474Y-96238038D01*
X171111079Y-96435432D02*
X171111079Y-96040643D01*
X142016371Y-82217272D02*
X141769628Y-82217272D01*
X141769628Y-82217272D02*
X141744954Y-82464015D01*
X141744954Y-82464015D02*
X141769628Y-82439340D01*
X141769628Y-82439340D02*
X141818977Y-82414666D01*
X141818977Y-82414666D02*
X141942348Y-82414666D01*
X141942348Y-82414666D02*
X141991697Y-82439340D01*
X141991697Y-82439340D02*
X142016371Y-82464015D01*
X142016371Y-82464015D02*
X142041045Y-82513363D01*
X142041045Y-82513363D02*
X142041045Y-82636735D01*
X142041045Y-82636735D02*
X142016371Y-82686083D01*
X142016371Y-82686083D02*
X141991697Y-82710758D01*
X141991697Y-82710758D02*
X141942348Y-82735432D01*
X141942348Y-82735432D02*
X141818977Y-82735432D01*
X141818977Y-82735432D02*
X141769628Y-82710758D01*
X141769628Y-82710758D02*
X141744954Y-82686083D01*
X142189091Y-82217272D02*
X142361811Y-82735432D01*
X142361811Y-82735432D02*
X142534531Y-82217272D01*
X140165719Y-123686083D02*
X140141045Y-123710758D01*
X140141045Y-123710758D02*
X140067022Y-123735432D01*
X140067022Y-123735432D02*
X140017674Y-123735432D01*
X140017674Y-123735432D02*
X139943651Y-123710758D01*
X139943651Y-123710758D02*
X139894302Y-123661409D01*
X139894302Y-123661409D02*
X139869628Y-123612060D01*
X139869628Y-123612060D02*
X139844954Y-123513363D01*
X139844954Y-123513363D02*
X139844954Y-123439340D01*
X139844954Y-123439340D02*
X139869628Y-123340643D01*
X139869628Y-123340643D02*
X139894302Y-123291295D01*
X139894302Y-123291295D02*
X139943651Y-123241946D01*
X139943651Y-123241946D02*
X140017674Y-123217272D01*
X140017674Y-123217272D02*
X140067022Y-123217272D01*
X140067022Y-123217272D02*
X140141045Y-123241946D01*
X140141045Y-123241946D02*
X140165719Y-123266620D01*
X140609857Y-123389992D02*
X140609857Y-123735432D01*
X140486485Y-123192598D02*
X140363114Y-123562712D01*
X140363114Y-123562712D02*
X140683879Y-123562712D01*
X155699772Y-99321374D02*
X155699772Y-99222677D01*
X155699772Y-99222677D02*
X155724446Y-99173328D01*
X155724446Y-99173328D02*
X155773795Y-99123980D01*
X155773795Y-99123980D02*
X155872492Y-99099305D01*
X155872492Y-99099305D02*
X156045212Y-99099305D01*
X156045212Y-99099305D02*
X156143909Y-99123980D01*
X156143909Y-99123980D02*
X156193258Y-99173328D01*
X156193258Y-99173328D02*
X156217932Y-99222677D01*
X156217932Y-99222677D02*
X156217932Y-99321374D01*
X156217932Y-99321374D02*
X156193258Y-99370723D01*
X156193258Y-99370723D02*
X156143909Y-99420071D01*
X156143909Y-99420071D02*
X156045212Y-99444745D01*
X156045212Y-99444745D02*
X155872492Y-99444745D01*
X155872492Y-99444745D02*
X155773795Y-99420071D01*
X155773795Y-99420071D02*
X155724446Y-99370723D01*
X155724446Y-99370723D02*
X155699772Y-99321374D01*
X156217932Y-98877237D02*
X155699772Y-98877237D01*
X155699772Y-98877237D02*
X156217932Y-98581146D01*
X156217932Y-98581146D02*
X155699772Y-98581146D01*
X156193258Y-97964288D02*
X156217932Y-97890266D01*
X156217932Y-97890266D02*
X156217932Y-97766894D01*
X156217932Y-97766894D02*
X156193258Y-97717546D01*
X156193258Y-97717546D02*
X156168583Y-97692871D01*
X156168583Y-97692871D02*
X156119235Y-97668197D01*
X156119235Y-97668197D02*
X156069886Y-97668197D01*
X156069886Y-97668197D02*
X156020538Y-97692871D01*
X156020538Y-97692871D02*
X155995863Y-97717546D01*
X155995863Y-97717546D02*
X155971189Y-97766894D01*
X155971189Y-97766894D02*
X155946515Y-97865591D01*
X155946515Y-97865591D02*
X155921840Y-97914940D01*
X155921840Y-97914940D02*
X155897166Y-97939614D01*
X155897166Y-97939614D02*
X155847818Y-97964288D01*
X155847818Y-97964288D02*
X155798469Y-97964288D01*
X155798469Y-97964288D02*
X155749120Y-97939614D01*
X155749120Y-97939614D02*
X155724446Y-97914940D01*
X155724446Y-97914940D02*
X155699772Y-97865591D01*
X155699772Y-97865591D02*
X155699772Y-97742220D01*
X155699772Y-97742220D02*
X155724446Y-97668197D01*
X155699772Y-97495477D02*
X156217932Y-97372105D01*
X156217932Y-97372105D02*
X155847818Y-97273408D01*
X155847818Y-97273408D02*
X156217932Y-97174711D01*
X156217932Y-97174711D02*
X155699772Y-97051340D01*
X134241045Y-82241946D02*
X134191697Y-82217272D01*
X134191697Y-82217272D02*
X134117674Y-82217272D01*
X134117674Y-82217272D02*
X134043651Y-82241946D01*
X134043651Y-82241946D02*
X133994302Y-82291295D01*
X133994302Y-82291295D02*
X133969628Y-82340643D01*
X133969628Y-82340643D02*
X133944954Y-82439340D01*
X133944954Y-82439340D02*
X133944954Y-82513363D01*
X133944954Y-82513363D02*
X133969628Y-82612060D01*
X133969628Y-82612060D02*
X133994302Y-82661409D01*
X133994302Y-82661409D02*
X134043651Y-82710758D01*
X134043651Y-82710758D02*
X134117674Y-82735432D01*
X134117674Y-82735432D02*
X134167022Y-82735432D01*
X134167022Y-82735432D02*
X134241045Y-82710758D01*
X134241045Y-82710758D02*
X134265719Y-82686083D01*
X134265719Y-82686083D02*
X134265719Y-82513363D01*
X134265719Y-82513363D02*
X134167022Y-82513363D01*
X134487788Y-82735432D02*
X134487788Y-82217272D01*
X134487788Y-82217272D02*
X134783879Y-82735432D01*
X134783879Y-82735432D02*
X134783879Y-82217272D01*
X135030622Y-82735432D02*
X135030622Y-82217272D01*
X135030622Y-82217272D02*
X135153993Y-82217272D01*
X135153993Y-82217272D02*
X135228016Y-82241946D01*
X135228016Y-82241946D02*
X135277365Y-82291295D01*
X135277365Y-82291295D02*
X135302039Y-82340643D01*
X135302039Y-82340643D02*
X135326713Y-82439340D01*
X135326713Y-82439340D02*
X135326713Y-82513363D01*
X135326713Y-82513363D02*
X135302039Y-82612060D01*
X135302039Y-82612060D02*
X135277365Y-82661409D01*
X135277365Y-82661409D02*
X135228016Y-82710758D01*
X135228016Y-82710758D02*
X135153993Y-82735432D01*
X135153993Y-82735432D02*
X135030622Y-82735432D01*
D14*
X160348492Y-94580798D02*
X160348492Y-94946558D01*
X160348492Y-94946558D02*
X160324108Y-95019710D01*
X160324108Y-95019710D02*
X160275340Y-95068478D01*
X160275340Y-95068478D02*
X160202188Y-95092862D01*
X160202188Y-95092862D02*
X160153420Y-95092862D01*
X160616716Y-95092862D02*
X160714252Y-95092862D01*
X160714252Y-95092862D02*
X160763020Y-95068478D01*
X160763020Y-95068478D02*
X160787404Y-95044094D01*
X160787404Y-95044094D02*
X160836172Y-94970942D01*
X160836172Y-94970942D02*
X160860556Y-94873406D01*
X160860556Y-94873406D02*
X160860556Y-94678334D01*
X160860556Y-94678334D02*
X160836172Y-94629566D01*
X160836172Y-94629566D02*
X160811788Y-94605182D01*
X160811788Y-94605182D02*
X160763020Y-94580798D01*
X160763020Y-94580798D02*
X160665484Y-94580798D01*
X160665484Y-94580798D02*
X160616716Y-94605182D01*
X160616716Y-94605182D02*
X160592332Y-94629566D01*
X160592332Y-94629566D02*
X160567948Y-94678334D01*
X160567948Y-94678334D02*
X160567948Y-94800254D01*
X160567948Y-94800254D02*
X160592332Y-94849022D01*
X160592332Y-94849022D02*
X160616716Y-94873406D01*
X160616716Y-94873406D02*
X160665484Y-94897790D01*
X160665484Y-94897790D02*
X160763020Y-94897790D01*
X160763020Y-94897790D02*
X160811788Y-94873406D01*
X160811788Y-94873406D02*
X160836172Y-94849022D01*
X160836172Y-94849022D02*
X160860556Y-94800254D01*
X133107332Y-126894744D02*
X133058564Y-126870360D01*
X133058564Y-126870360D02*
X133009796Y-126821592D01*
X133009796Y-126821592D02*
X132936644Y-126748440D01*
X132936644Y-126748440D02*
X132887876Y-126724056D01*
X132887876Y-126724056D02*
X132839108Y-126724056D01*
X132863492Y-126845976D02*
X132814724Y-126821592D01*
X132814724Y-126821592D02*
X132765956Y-126772824D01*
X132765956Y-126772824D02*
X132741572Y-126675288D01*
X132741572Y-126675288D02*
X132741572Y-126504600D01*
X132741572Y-126504600D02*
X132765956Y-126407064D01*
X132765956Y-126407064D02*
X132814724Y-126358296D01*
X132814724Y-126358296D02*
X132863492Y-126333912D01*
X132863492Y-126333912D02*
X132961028Y-126333912D01*
X132961028Y-126333912D02*
X133009796Y-126358296D01*
X133009796Y-126358296D02*
X133058564Y-126407064D01*
X133058564Y-126407064D02*
X133082948Y-126504600D01*
X133082948Y-126504600D02*
X133082948Y-126675288D01*
X133082948Y-126675288D02*
X133058564Y-126772824D01*
X133058564Y-126772824D02*
X133009796Y-126821592D01*
X133009796Y-126821592D02*
X132961028Y-126845976D01*
X132961028Y-126845976D02*
X132863492Y-126845976D01*
X133521860Y-126504600D02*
X133521860Y-126845976D01*
X133399940Y-126309528D02*
X133278020Y-126675288D01*
X133278020Y-126675288D02*
X133595012Y-126675288D01*
X150467332Y-89433630D02*
X150418564Y-89409246D01*
X150418564Y-89409246D02*
X150369796Y-89360478D01*
X150369796Y-89360478D02*
X150296644Y-89287326D01*
X150296644Y-89287326D02*
X150247876Y-89262942D01*
X150247876Y-89262942D02*
X150199108Y-89262942D01*
X150223492Y-89384862D02*
X150174724Y-89360478D01*
X150174724Y-89360478D02*
X150125956Y-89311710D01*
X150125956Y-89311710D02*
X150101572Y-89214174D01*
X150101572Y-89214174D02*
X150101572Y-89043486D01*
X150101572Y-89043486D02*
X150125956Y-88945950D01*
X150125956Y-88945950D02*
X150174724Y-88897182D01*
X150174724Y-88897182D02*
X150223492Y-88872798D01*
X150223492Y-88872798D02*
X150321028Y-88872798D01*
X150321028Y-88872798D02*
X150369796Y-88897182D01*
X150369796Y-88897182D02*
X150418564Y-88945950D01*
X150418564Y-88945950D02*
X150442948Y-89043486D01*
X150442948Y-89043486D02*
X150442948Y-89214174D01*
X150442948Y-89214174D02*
X150418564Y-89311710D01*
X150418564Y-89311710D02*
X150369796Y-89360478D01*
X150369796Y-89360478D02*
X150321028Y-89384862D01*
X150321028Y-89384862D02*
X150223492Y-89384862D01*
X150638020Y-88921566D02*
X150662404Y-88897182D01*
X150662404Y-88897182D02*
X150711172Y-88872798D01*
X150711172Y-88872798D02*
X150833092Y-88872798D01*
X150833092Y-88872798D02*
X150881860Y-88897182D01*
X150881860Y-88897182D02*
X150906244Y-88921566D01*
X150906244Y-88921566D02*
X150930628Y-88970334D01*
X150930628Y-88970334D02*
X150930628Y-89019102D01*
X150930628Y-89019102D02*
X150906244Y-89092254D01*
X150906244Y-89092254D02*
X150613636Y-89384862D01*
X150613636Y-89384862D02*
X150930628Y-89384862D01*
X169648492Y-92930798D02*
X169648492Y-93296558D01*
X169648492Y-93296558D02*
X169624108Y-93369710D01*
X169624108Y-93369710D02*
X169575340Y-93418478D01*
X169575340Y-93418478D02*
X169502188Y-93442862D01*
X169502188Y-93442862D02*
X169453420Y-93442862D01*
X169843564Y-92930798D02*
X170160556Y-92930798D01*
X170160556Y-92930798D02*
X169989868Y-93125870D01*
X169989868Y-93125870D02*
X170063020Y-93125870D01*
X170063020Y-93125870D02*
X170111788Y-93150254D01*
X170111788Y-93150254D02*
X170136172Y-93174638D01*
X170136172Y-93174638D02*
X170160556Y-93223406D01*
X170160556Y-93223406D02*
X170160556Y-93345326D01*
X170160556Y-93345326D02*
X170136172Y-93394094D01*
X170136172Y-93394094D02*
X170111788Y-93418478D01*
X170111788Y-93418478D02*
X170063020Y-93442862D01*
X170063020Y-93442862D02*
X169916716Y-93442862D01*
X169916716Y-93442862D02*
X169867948Y-93418478D01*
X169867948Y-93418478D02*
X169843564Y-93394094D01*
X134148492Y-84980798D02*
X134148492Y-85346558D01*
X134148492Y-85346558D02*
X134124108Y-85419710D01*
X134124108Y-85419710D02*
X134075340Y-85468478D01*
X134075340Y-85468478D02*
X134002188Y-85492862D01*
X134002188Y-85492862D02*
X133953420Y-85492862D01*
X134660556Y-85492862D02*
X134367948Y-85492862D01*
X134514252Y-85492862D02*
X134514252Y-84980798D01*
X134514252Y-84980798D02*
X134465484Y-85053950D01*
X134465484Y-85053950D02*
X134416716Y-85102718D01*
X134416716Y-85102718D02*
X134367948Y-85127102D01*
X134831244Y-84980798D02*
X135148236Y-84980798D01*
X135148236Y-84980798D02*
X134977548Y-85175870D01*
X134977548Y-85175870D02*
X135050700Y-85175870D01*
X135050700Y-85175870D02*
X135099468Y-85200254D01*
X135099468Y-85200254D02*
X135123852Y-85224638D01*
X135123852Y-85224638D02*
X135148236Y-85273406D01*
X135148236Y-85273406D02*
X135148236Y-85395326D01*
X135148236Y-85395326D02*
X135123852Y-85444094D01*
X135123852Y-85444094D02*
X135099468Y-85468478D01*
X135099468Y-85468478D02*
X135050700Y-85492862D01*
X135050700Y-85492862D02*
X134904396Y-85492862D01*
X134904396Y-85492862D02*
X134855628Y-85468478D01*
X134855628Y-85468478D02*
X134831244Y-85444094D01*
X154020756Y-84443862D02*
X153850068Y-84200022D01*
X153728148Y-84443862D02*
X153728148Y-83931798D01*
X153728148Y-83931798D02*
X153923220Y-83931798D01*
X153923220Y-83931798D02*
X153971988Y-83956182D01*
X153971988Y-83956182D02*
X153996372Y-83980566D01*
X153996372Y-83980566D02*
X154020756Y-84029334D01*
X154020756Y-84029334D02*
X154020756Y-84102486D01*
X154020756Y-84102486D02*
X153996372Y-84151254D01*
X153996372Y-84151254D02*
X153971988Y-84175638D01*
X153971988Y-84175638D02*
X153923220Y-84200022D01*
X153923220Y-84200022D02*
X153728148Y-84200022D01*
X154191444Y-83931798D02*
X154508436Y-83931798D01*
X154508436Y-83931798D02*
X154337748Y-84126870D01*
X154337748Y-84126870D02*
X154410900Y-84126870D01*
X154410900Y-84126870D02*
X154459668Y-84151254D01*
X154459668Y-84151254D02*
X154484052Y-84175638D01*
X154484052Y-84175638D02*
X154508436Y-84224406D01*
X154508436Y-84224406D02*
X154508436Y-84346326D01*
X154508436Y-84346326D02*
X154484052Y-84395094D01*
X154484052Y-84395094D02*
X154459668Y-84419478D01*
X154459668Y-84419478D02*
X154410900Y-84443862D01*
X154410900Y-84443862D02*
X154264596Y-84443862D01*
X154264596Y-84443862D02*
X154215828Y-84419478D01*
X154215828Y-84419478D02*
X154191444Y-84395094D01*
X163486916Y-123643862D02*
X163316228Y-123400022D01*
X163194308Y-123643862D02*
X163194308Y-123131798D01*
X163194308Y-123131798D02*
X163389380Y-123131798D01*
X163389380Y-123131798D02*
X163438148Y-123156182D01*
X163438148Y-123156182D02*
X163462532Y-123180566D01*
X163462532Y-123180566D02*
X163486916Y-123229334D01*
X163486916Y-123229334D02*
X163486916Y-123302486D01*
X163486916Y-123302486D02*
X163462532Y-123351254D01*
X163462532Y-123351254D02*
X163438148Y-123375638D01*
X163438148Y-123375638D02*
X163389380Y-123400022D01*
X163389380Y-123400022D02*
X163194308Y-123400022D01*
X163974596Y-123643862D02*
X163681988Y-123643862D01*
X163828292Y-123643862D02*
X163828292Y-123131798D01*
X163828292Y-123131798D02*
X163779524Y-123204950D01*
X163779524Y-123204950D02*
X163730756Y-123253718D01*
X163730756Y-123253718D02*
X163681988Y-123278102D01*
X164169668Y-123180566D02*
X164194052Y-123156182D01*
X164194052Y-123156182D02*
X164242820Y-123131798D01*
X164242820Y-123131798D02*
X164364740Y-123131798D01*
X164364740Y-123131798D02*
X164413508Y-123156182D01*
X164413508Y-123156182D02*
X164437892Y-123180566D01*
X164437892Y-123180566D02*
X164462276Y-123229334D01*
X164462276Y-123229334D02*
X164462276Y-123278102D01*
X164462276Y-123278102D02*
X164437892Y-123351254D01*
X164437892Y-123351254D02*
X164145284Y-123643862D01*
X164145284Y-123643862D02*
X164462276Y-123643862D01*
X159720756Y-88526976D02*
X159550068Y-88283136D01*
X159428148Y-88526976D02*
X159428148Y-88014912D01*
X159428148Y-88014912D02*
X159623220Y-88014912D01*
X159623220Y-88014912D02*
X159671988Y-88039296D01*
X159671988Y-88039296D02*
X159696372Y-88063680D01*
X159696372Y-88063680D02*
X159720756Y-88112448D01*
X159720756Y-88112448D02*
X159720756Y-88185600D01*
X159720756Y-88185600D02*
X159696372Y-88234368D01*
X159696372Y-88234368D02*
X159671988Y-88258752D01*
X159671988Y-88258752D02*
X159623220Y-88283136D01*
X159623220Y-88283136D02*
X159428148Y-88283136D01*
X159891444Y-88014912D02*
X160232820Y-88014912D01*
X160232820Y-88014912D02*
X160013364Y-88526976D01*
X136648492Y-84980798D02*
X136648492Y-85346558D01*
X136648492Y-85346558D02*
X136624108Y-85419710D01*
X136624108Y-85419710D02*
X136575340Y-85468478D01*
X136575340Y-85468478D02*
X136502188Y-85492862D01*
X136502188Y-85492862D02*
X136453420Y-85492862D01*
X137160556Y-85492862D02*
X136867948Y-85492862D01*
X137014252Y-85492862D02*
X137014252Y-84980798D01*
X137014252Y-84980798D02*
X136965484Y-85053950D01*
X136965484Y-85053950D02*
X136916716Y-85102718D01*
X136916716Y-85102718D02*
X136867948Y-85127102D01*
X137648236Y-85492862D02*
X137355628Y-85492862D01*
X137501932Y-85492862D02*
X137501932Y-84980798D01*
X137501932Y-84980798D02*
X137453164Y-85053950D01*
X137453164Y-85053950D02*
X137404396Y-85102718D01*
X137404396Y-85102718D02*
X137355628Y-85127102D01*
D15*
X162753900Y-95986276D02*
X162753900Y-96690625D01*
X162753900Y-96690625D02*
X162706944Y-96831495D01*
X162706944Y-96831495D02*
X162613030Y-96925409D01*
X162613030Y-96925409D02*
X162472161Y-96972365D01*
X162472161Y-96972365D02*
X162378247Y-96972365D01*
X163646076Y-96314972D02*
X163646076Y-96972365D01*
X163411293Y-95939320D02*
X163176510Y-96643669D01*
X163176510Y-96643669D02*
X163786946Y-96643669D01*
D11*
X158717932Y-108748654D02*
X158717932Y-109044745D01*
X158717932Y-108896700D02*
X158199772Y-108896700D01*
X158199772Y-108896700D02*
X158273795Y-108946048D01*
X158273795Y-108946048D02*
X158323143Y-108995397D01*
X158323143Y-108995397D02*
X158347818Y-109044745D01*
X158199772Y-99569420D02*
X158199772Y-99248654D01*
X158199772Y-99248654D02*
X158397166Y-99421374D01*
X158397166Y-99421374D02*
X158397166Y-99347351D01*
X158397166Y-99347351D02*
X158421840Y-99298003D01*
X158421840Y-99298003D02*
X158446515Y-99273328D01*
X158446515Y-99273328D02*
X158495863Y-99248654D01*
X158495863Y-99248654D02*
X158619235Y-99248654D01*
X158619235Y-99248654D02*
X158668583Y-99273328D01*
X158668583Y-99273328D02*
X158693258Y-99298003D01*
X158693258Y-99298003D02*
X158717932Y-99347351D01*
X158717932Y-99347351D02*
X158717932Y-99495397D01*
X158717932Y-99495397D02*
X158693258Y-99544745D01*
X158693258Y-99544745D02*
X158668583Y-99569420D01*
X158717932Y-99001911D02*
X158717932Y-98903214D01*
X158717932Y-98903214D02*
X158693258Y-98853865D01*
X158693258Y-98853865D02*
X158668583Y-98829191D01*
X158668583Y-98829191D02*
X158594560Y-98779842D01*
X158594560Y-98779842D02*
X158495863Y-98755168D01*
X158495863Y-98755168D02*
X158298469Y-98755168D01*
X158298469Y-98755168D02*
X158249120Y-98779842D01*
X158249120Y-98779842D02*
X158224446Y-98804517D01*
X158224446Y-98804517D02*
X158199772Y-98853865D01*
X158199772Y-98853865D02*
X158199772Y-98952562D01*
X158199772Y-98952562D02*
X158224446Y-99001911D01*
X158224446Y-99001911D02*
X158249120Y-99026585D01*
X158249120Y-99026585D02*
X158298469Y-99051259D01*
X158298469Y-99051259D02*
X158421840Y-99051259D01*
X158421840Y-99051259D02*
X158471189Y-99026585D01*
X158471189Y-99026585D02*
X158495863Y-99001911D01*
X158495863Y-99001911D02*
X158520538Y-98952562D01*
X158520538Y-98952562D02*
X158520538Y-98853865D01*
X158520538Y-98853865D02*
X158495863Y-98804517D01*
X158495863Y-98804517D02*
X158471189Y-98779842D01*
X158471189Y-98779842D02*
X158421840Y-98755168D01*
X166649120Y-109044745D02*
X166624446Y-109020071D01*
X166624446Y-109020071D02*
X166599772Y-108970723D01*
X166599772Y-108970723D02*
X166599772Y-108847351D01*
X166599772Y-108847351D02*
X166624446Y-108798003D01*
X166624446Y-108798003D02*
X166649120Y-108773328D01*
X166649120Y-108773328D02*
X166698469Y-108748654D01*
X166698469Y-108748654D02*
X166747818Y-108748654D01*
X166747818Y-108748654D02*
X166821840Y-108773328D01*
X166821840Y-108773328D02*
X167117932Y-109069420D01*
X167117932Y-109069420D02*
X167117932Y-108748654D01*
X166772492Y-99298003D02*
X167117932Y-99298003D01*
X166575098Y-99421374D02*
X166945212Y-99544745D01*
X166945212Y-99544745D02*
X166945212Y-99223980D01*
X166599772Y-98927888D02*
X166599772Y-98878539D01*
X166599772Y-98878539D02*
X166624446Y-98829191D01*
X166624446Y-98829191D02*
X166649120Y-98804517D01*
X166649120Y-98804517D02*
X166698469Y-98779842D01*
X166698469Y-98779842D02*
X166797166Y-98755168D01*
X166797166Y-98755168D02*
X166920538Y-98755168D01*
X166920538Y-98755168D02*
X167019235Y-98779842D01*
X167019235Y-98779842D02*
X167068583Y-98804517D01*
X167068583Y-98804517D02*
X167093258Y-98829191D01*
X167093258Y-98829191D02*
X167117932Y-98878539D01*
X167117932Y-98878539D02*
X167117932Y-98927888D01*
X167117932Y-98927888D02*
X167093258Y-98977237D01*
X167093258Y-98977237D02*
X167068583Y-99001911D01*
X167068583Y-99001911D02*
X167019235Y-99026585D01*
X167019235Y-99026585D02*
X166920538Y-99051259D01*
X166920538Y-99051259D02*
X166797166Y-99051259D01*
X166797166Y-99051259D02*
X166698469Y-99026585D01*
X166698469Y-99026585D02*
X166649120Y-99001911D01*
X166649120Y-99001911D02*
X166624446Y-98977237D01*
X166624446Y-98977237D02*
X166599772Y-98927888D01*
D14*
X157430756Y-88526976D02*
X157260068Y-88283136D01*
X157138148Y-88526976D02*
X157138148Y-88014912D01*
X157138148Y-88014912D02*
X157333220Y-88014912D01*
X157333220Y-88014912D02*
X157381988Y-88039296D01*
X157381988Y-88039296D02*
X157406372Y-88063680D01*
X157406372Y-88063680D02*
X157430756Y-88112448D01*
X157430756Y-88112448D02*
X157430756Y-88185600D01*
X157430756Y-88185600D02*
X157406372Y-88234368D01*
X157406372Y-88234368D02*
X157381988Y-88258752D01*
X157381988Y-88258752D02*
X157333220Y-88283136D01*
X157333220Y-88283136D02*
X157138148Y-88283136D01*
X157723364Y-88234368D02*
X157674596Y-88209984D01*
X157674596Y-88209984D02*
X157650212Y-88185600D01*
X157650212Y-88185600D02*
X157625828Y-88136832D01*
X157625828Y-88136832D02*
X157625828Y-88112448D01*
X157625828Y-88112448D02*
X157650212Y-88063680D01*
X157650212Y-88063680D02*
X157674596Y-88039296D01*
X157674596Y-88039296D02*
X157723364Y-88014912D01*
X157723364Y-88014912D02*
X157820900Y-88014912D01*
X157820900Y-88014912D02*
X157869668Y-88039296D01*
X157869668Y-88039296D02*
X157894052Y-88063680D01*
X157894052Y-88063680D02*
X157918436Y-88112448D01*
X157918436Y-88112448D02*
X157918436Y-88136832D01*
X157918436Y-88136832D02*
X157894052Y-88185600D01*
X157894052Y-88185600D02*
X157869668Y-88209984D01*
X157869668Y-88209984D02*
X157820900Y-88234368D01*
X157820900Y-88234368D02*
X157723364Y-88234368D01*
X157723364Y-88234368D02*
X157674596Y-88258752D01*
X157674596Y-88258752D02*
X157650212Y-88283136D01*
X157650212Y-88283136D02*
X157625828Y-88331904D01*
X157625828Y-88331904D02*
X157625828Y-88429440D01*
X157625828Y-88429440D02*
X157650212Y-88478208D01*
X157650212Y-88478208D02*
X157674596Y-88502592D01*
X157674596Y-88502592D02*
X157723364Y-88526976D01*
X157723364Y-88526976D02*
X157820900Y-88526976D01*
X157820900Y-88526976D02*
X157869668Y-88502592D01*
X157869668Y-88502592D02*
X157894052Y-88478208D01*
X157894052Y-88478208D02*
X157918436Y-88429440D01*
X157918436Y-88429440D02*
X157918436Y-88331904D01*
X157918436Y-88331904D02*
X157894052Y-88283136D01*
X157894052Y-88283136D02*
X157869668Y-88258752D01*
X157869668Y-88258752D02*
X157820900Y-88234368D01*
X129109476Y-96148944D02*
X128865636Y-96319632D01*
X129109476Y-96441552D02*
X128597412Y-96441552D01*
X128597412Y-96441552D02*
X128597412Y-96246480D01*
X128597412Y-96246480D02*
X128621796Y-96197712D01*
X128621796Y-96197712D02*
X128646180Y-96173328D01*
X128646180Y-96173328D02*
X128694948Y-96148944D01*
X128694948Y-96148944D02*
X128768100Y-96148944D01*
X128768100Y-96148944D02*
X128816868Y-96173328D01*
X128816868Y-96173328D02*
X128841252Y-96197712D01*
X128841252Y-96197712D02*
X128865636Y-96246480D01*
X128865636Y-96246480D02*
X128865636Y-96441552D01*
X129109476Y-95661264D02*
X129109476Y-95953872D01*
X129109476Y-95807568D02*
X128597412Y-95807568D01*
X128597412Y-95807568D02*
X128670564Y-95856336D01*
X128670564Y-95856336D02*
X128719332Y-95905104D01*
X128719332Y-95905104D02*
X128743716Y-95953872D01*
X154448492Y-93280798D02*
X154448492Y-93646558D01*
X154448492Y-93646558D02*
X154424108Y-93719710D01*
X154424108Y-93719710D02*
X154375340Y-93768478D01*
X154375340Y-93768478D02*
X154302188Y-93792862D01*
X154302188Y-93792862D02*
X154253420Y-93792862D01*
X154960556Y-93792862D02*
X154667948Y-93792862D01*
X154814252Y-93792862D02*
X154814252Y-93280798D01*
X154814252Y-93280798D02*
X154765484Y-93353950D01*
X154765484Y-93353950D02*
X154716716Y-93402718D01*
X154716716Y-93402718D02*
X154667948Y-93427102D01*
X155277548Y-93280798D02*
X155326316Y-93280798D01*
X155326316Y-93280798D02*
X155375084Y-93305182D01*
X155375084Y-93305182D02*
X155399468Y-93329566D01*
X155399468Y-93329566D02*
X155423852Y-93378334D01*
X155423852Y-93378334D02*
X155448236Y-93475870D01*
X155448236Y-93475870D02*
X155448236Y-93597790D01*
X155448236Y-93597790D02*
X155423852Y-93695326D01*
X155423852Y-93695326D02*
X155399468Y-93744094D01*
X155399468Y-93744094D02*
X155375084Y-93768478D01*
X155375084Y-93768478D02*
X155326316Y-93792862D01*
X155326316Y-93792862D02*
X155277548Y-93792862D01*
X155277548Y-93792862D02*
X155228780Y-93768478D01*
X155228780Y-93768478D02*
X155204396Y-93744094D01*
X155204396Y-93744094D02*
X155180012Y-93695326D01*
X155180012Y-93695326D02*
X155155628Y-93597790D01*
X155155628Y-93597790D02*
X155155628Y-93475870D01*
X155155628Y-93475870D02*
X155180012Y-93378334D01*
X155180012Y-93378334D02*
X155204396Y-93329566D01*
X155204396Y-93329566D02*
X155228780Y-93305182D01*
X155228780Y-93305182D02*
X155277548Y-93280798D01*
X148148492Y-123476798D02*
X148148492Y-123842558D01*
X148148492Y-123842558D02*
X148124108Y-123915710D01*
X148124108Y-123915710D02*
X148075340Y-123964478D01*
X148075340Y-123964478D02*
X148002188Y-123988862D01*
X148002188Y-123988862D02*
X147953420Y-123988862D01*
X148636172Y-123476798D02*
X148392332Y-123476798D01*
X148392332Y-123476798D02*
X148367948Y-123720638D01*
X148367948Y-123720638D02*
X148392332Y-123696254D01*
X148392332Y-123696254D02*
X148441100Y-123671870D01*
X148441100Y-123671870D02*
X148563020Y-123671870D01*
X148563020Y-123671870D02*
X148611788Y-123696254D01*
X148611788Y-123696254D02*
X148636172Y-123720638D01*
X148636172Y-123720638D02*
X148660556Y-123769406D01*
X148660556Y-123769406D02*
X148660556Y-123891326D01*
X148660556Y-123891326D02*
X148636172Y-123940094D01*
X148636172Y-123940094D02*
X148611788Y-123964478D01*
X148611788Y-123964478D02*
X148563020Y-123988862D01*
X148563020Y-123988862D02*
X148441100Y-123988862D01*
X148441100Y-123988862D02*
X148392332Y-123964478D01*
X148392332Y-123964478D02*
X148367948Y-123940094D01*
X154068492Y-99876798D02*
X154068492Y-100242558D01*
X154068492Y-100242558D02*
X154044108Y-100315710D01*
X154044108Y-100315710D02*
X153995340Y-100364478D01*
X153995340Y-100364478D02*
X153922188Y-100388862D01*
X153922188Y-100388862D02*
X153873420Y-100388862D01*
X154287948Y-99925566D02*
X154312332Y-99901182D01*
X154312332Y-99901182D02*
X154361100Y-99876798D01*
X154361100Y-99876798D02*
X154483020Y-99876798D01*
X154483020Y-99876798D02*
X154531788Y-99901182D01*
X154531788Y-99901182D02*
X154556172Y-99925566D01*
X154556172Y-99925566D02*
X154580556Y-99974334D01*
X154580556Y-99974334D02*
X154580556Y-100023102D01*
X154580556Y-100023102D02*
X154556172Y-100096254D01*
X154556172Y-100096254D02*
X154263564Y-100388862D01*
X154263564Y-100388862D02*
X154580556Y-100388862D01*
X169648492Y-87180798D02*
X169648492Y-87546558D01*
X169648492Y-87546558D02*
X169624108Y-87619710D01*
X169624108Y-87619710D02*
X169575340Y-87668478D01*
X169575340Y-87668478D02*
X169502188Y-87692862D01*
X169502188Y-87692862D02*
X169453420Y-87692862D01*
X169965484Y-87400254D02*
X169916716Y-87375870D01*
X169916716Y-87375870D02*
X169892332Y-87351486D01*
X169892332Y-87351486D02*
X169867948Y-87302718D01*
X169867948Y-87302718D02*
X169867948Y-87278334D01*
X169867948Y-87278334D02*
X169892332Y-87229566D01*
X169892332Y-87229566D02*
X169916716Y-87205182D01*
X169916716Y-87205182D02*
X169965484Y-87180798D01*
X169965484Y-87180798D02*
X170063020Y-87180798D01*
X170063020Y-87180798D02*
X170111788Y-87205182D01*
X170111788Y-87205182D02*
X170136172Y-87229566D01*
X170136172Y-87229566D02*
X170160556Y-87278334D01*
X170160556Y-87278334D02*
X170160556Y-87302718D01*
X170160556Y-87302718D02*
X170136172Y-87351486D01*
X170136172Y-87351486D02*
X170111788Y-87375870D01*
X170111788Y-87375870D02*
X170063020Y-87400254D01*
X170063020Y-87400254D02*
X169965484Y-87400254D01*
X169965484Y-87400254D02*
X169916716Y-87424638D01*
X169916716Y-87424638D02*
X169892332Y-87449022D01*
X169892332Y-87449022D02*
X169867948Y-87497790D01*
X169867948Y-87497790D02*
X169867948Y-87595326D01*
X169867948Y-87595326D02*
X169892332Y-87644094D01*
X169892332Y-87644094D02*
X169916716Y-87668478D01*
X169916716Y-87668478D02*
X169965484Y-87692862D01*
X169965484Y-87692862D02*
X170063020Y-87692862D01*
X170063020Y-87692862D02*
X170111788Y-87668478D01*
X170111788Y-87668478D02*
X170136172Y-87644094D01*
X170136172Y-87644094D02*
X170160556Y-87595326D01*
X170160556Y-87595326D02*
X170160556Y-87497790D01*
X170160556Y-87497790D02*
X170136172Y-87449022D01*
X170136172Y-87449022D02*
X170111788Y-87424638D01*
X170111788Y-87424638D02*
X170063020Y-87400254D01*
X169648492Y-98080798D02*
X169648492Y-98446558D01*
X169648492Y-98446558D02*
X169624108Y-98519710D01*
X169624108Y-98519710D02*
X169575340Y-98568478D01*
X169575340Y-98568478D02*
X169502188Y-98592862D01*
X169502188Y-98592862D02*
X169453420Y-98592862D01*
X169843564Y-98080798D02*
X170184940Y-98080798D01*
X170184940Y-98080798D02*
X169965484Y-98592862D01*
X166996916Y-91943862D02*
X166826228Y-91700022D01*
X166704308Y-91943862D02*
X166704308Y-91431798D01*
X166704308Y-91431798D02*
X166899380Y-91431798D01*
X166899380Y-91431798D02*
X166948148Y-91456182D01*
X166948148Y-91456182D02*
X166972532Y-91480566D01*
X166972532Y-91480566D02*
X166996916Y-91529334D01*
X166996916Y-91529334D02*
X166996916Y-91602486D01*
X166996916Y-91602486D02*
X166972532Y-91651254D01*
X166972532Y-91651254D02*
X166948148Y-91675638D01*
X166948148Y-91675638D02*
X166899380Y-91700022D01*
X166899380Y-91700022D02*
X166704308Y-91700022D01*
X167484596Y-91943862D02*
X167191988Y-91943862D01*
X167338292Y-91943862D02*
X167338292Y-91431798D01*
X167338292Y-91431798D02*
X167289524Y-91504950D01*
X167289524Y-91504950D02*
X167240756Y-91553718D01*
X167240756Y-91553718D02*
X167191988Y-91578102D01*
X167972276Y-91943862D02*
X167679668Y-91943862D01*
X167825972Y-91943862D02*
X167825972Y-91431798D01*
X167825972Y-91431798D02*
X167777204Y-91504950D01*
X167777204Y-91504950D02*
X167728436Y-91553718D01*
X167728436Y-91553718D02*
X167679668Y-91578102D01*
D16*
X140932773Y-98581718D02*
X140932773Y-99249375D01*
X139764373Y-98915546D02*
X140932773Y-98915546D01*
X140376392Y-99638842D02*
X140376392Y-100028309D01*
X139764373Y-100195223D02*
X139764373Y-99638842D01*
X139764373Y-99638842D02*
X140932773Y-99638842D01*
X140932773Y-99638842D02*
X140932773Y-100195223D01*
X140376392Y-100695966D02*
X140376392Y-101085433D01*
X139764373Y-101252347D02*
X139764373Y-100695966D01*
X139764373Y-100695966D02*
X140932773Y-100695966D01*
X140932773Y-100695966D02*
X140932773Y-101252347D01*
X139764373Y-101753090D02*
X140932773Y-101753090D01*
X140932773Y-101753090D02*
X139764373Y-102420747D01*
X139764373Y-102420747D02*
X140932773Y-102420747D01*
X139820012Y-102921490D02*
X139764373Y-103088404D01*
X139764373Y-103088404D02*
X139764373Y-103366595D01*
X139764373Y-103366595D02*
X139820012Y-103477871D01*
X139820012Y-103477871D02*
X139875650Y-103533509D01*
X139875650Y-103533509D02*
X139986926Y-103589147D01*
X139986926Y-103589147D02*
X140098202Y-103589147D01*
X140098202Y-103589147D02*
X140209478Y-103533509D01*
X140209478Y-103533509D02*
X140265116Y-103477871D01*
X140265116Y-103477871D02*
X140320754Y-103366595D01*
X140320754Y-103366595D02*
X140376392Y-103144042D01*
X140376392Y-103144042D02*
X140432031Y-103032766D01*
X140432031Y-103032766D02*
X140487669Y-102977128D01*
X140487669Y-102977128D02*
X140598945Y-102921490D01*
X140598945Y-102921490D02*
X140710221Y-102921490D01*
X140710221Y-102921490D02*
X140821497Y-102977128D01*
X140821497Y-102977128D02*
X140877135Y-103032766D01*
X140877135Y-103032766D02*
X140932773Y-103144042D01*
X140932773Y-103144042D02*
X140932773Y-103422233D01*
X140932773Y-103422233D02*
X140877135Y-103589147D01*
X140320754Y-104312442D02*
X139764373Y-104312442D01*
X140932773Y-103922976D02*
X140320754Y-104312442D01*
X140320754Y-104312442D02*
X140932773Y-104701909D01*
X140543307Y-106482329D02*
X139764373Y-106482329D01*
X140988412Y-106204138D02*
X140153840Y-105925948D01*
X140153840Y-105925948D02*
X140153840Y-106649243D01*
X139875650Y-107094348D02*
X139820012Y-107149986D01*
X139820012Y-107149986D02*
X139764373Y-107094348D01*
X139764373Y-107094348D02*
X139820012Y-107038710D01*
X139820012Y-107038710D02*
X139875650Y-107094348D01*
X139875650Y-107094348D02*
X139764373Y-107094348D01*
X140932773Y-107873281D02*
X140932773Y-107984558D01*
X140932773Y-107984558D02*
X140877135Y-108095834D01*
X140877135Y-108095834D02*
X140821497Y-108151472D01*
X140821497Y-108151472D02*
X140710221Y-108207110D01*
X140710221Y-108207110D02*
X140487669Y-108262748D01*
X140487669Y-108262748D02*
X140209478Y-108262748D01*
X140209478Y-108262748D02*
X139986926Y-108207110D01*
X139986926Y-108207110D02*
X139875650Y-108151472D01*
X139875650Y-108151472D02*
X139820012Y-108095834D01*
X139820012Y-108095834D02*
X139764373Y-107984558D01*
X139764373Y-107984558D02*
X139764373Y-107873281D01*
X139764373Y-107873281D02*
X139820012Y-107762005D01*
X139820012Y-107762005D02*
X139875650Y-107706367D01*
X139875650Y-107706367D02*
X139986926Y-107650729D01*
X139986926Y-107650729D02*
X140209478Y-107595091D01*
X140209478Y-107595091D02*
X140487669Y-107595091D01*
X140487669Y-107595091D02*
X140710221Y-107650729D01*
X140710221Y-107650729D02*
X140821497Y-107706367D01*
X140821497Y-107706367D02*
X140877135Y-107762005D01*
X140877135Y-107762005D02*
X140932773Y-107873281D01*
D14*
X126112332Y-112969912D02*
X126112332Y-113335672D01*
X126112332Y-113335672D02*
X126087948Y-113408824D01*
X126087948Y-113408824D02*
X126039180Y-113457592D01*
X126039180Y-113457592D02*
X125966028Y-113481976D01*
X125966028Y-113481976D02*
X125917260Y-113481976D01*
X126624396Y-113481976D02*
X126331788Y-113481976D01*
X126478092Y-113481976D02*
X126478092Y-112969912D01*
X126478092Y-112969912D02*
X126429324Y-113043064D01*
X126429324Y-113043064D02*
X126380556Y-113091832D01*
X126380556Y-113091832D02*
X126331788Y-113116216D01*
X126526362Y-119388944D02*
X126282522Y-119559632D01*
X126526362Y-119681552D02*
X126014298Y-119681552D01*
X126014298Y-119681552D02*
X126014298Y-119486480D01*
X126014298Y-119486480D02*
X126038682Y-119437712D01*
X126038682Y-119437712D02*
X126063066Y-119413328D01*
X126063066Y-119413328D02*
X126111834Y-119388944D01*
X126111834Y-119388944D02*
X126184986Y-119388944D01*
X126184986Y-119388944D02*
X126233754Y-119413328D01*
X126233754Y-119413328D02*
X126258138Y-119437712D01*
X126258138Y-119437712D02*
X126282522Y-119486480D01*
X126282522Y-119486480D02*
X126282522Y-119681552D01*
X126014298Y-118925648D02*
X126014298Y-119169488D01*
X126014298Y-119169488D02*
X126258138Y-119193872D01*
X126258138Y-119193872D02*
X126233754Y-119169488D01*
X126233754Y-119169488D02*
X126209370Y-119120720D01*
X126209370Y-119120720D02*
X126209370Y-118998800D01*
X126209370Y-118998800D02*
X126233754Y-118950032D01*
X126233754Y-118950032D02*
X126258138Y-118925648D01*
X126258138Y-118925648D02*
X126306906Y-118901264D01*
X126306906Y-118901264D02*
X126428826Y-118901264D01*
X126428826Y-118901264D02*
X126477594Y-118925648D01*
X126477594Y-118925648D02*
X126501978Y-118950032D01*
X126501978Y-118950032D02*
X126526362Y-118998800D01*
X126526362Y-118998800D02*
X126526362Y-119120720D01*
X126526362Y-119120720D02*
X126501978Y-119169488D01*
X126501978Y-119169488D02*
X126477594Y-119193872D01*
X149510756Y-84443862D02*
X149340068Y-84200022D01*
X149218148Y-84443862D02*
X149218148Y-83931798D01*
X149218148Y-83931798D02*
X149413220Y-83931798D01*
X149413220Y-83931798D02*
X149461988Y-83956182D01*
X149461988Y-83956182D02*
X149486372Y-83980566D01*
X149486372Y-83980566D02*
X149510756Y-84029334D01*
X149510756Y-84029334D02*
X149510756Y-84102486D01*
X149510756Y-84102486D02*
X149486372Y-84151254D01*
X149486372Y-84151254D02*
X149461988Y-84175638D01*
X149461988Y-84175638D02*
X149413220Y-84200022D01*
X149413220Y-84200022D02*
X149218148Y-84200022D01*
X149949668Y-84102486D02*
X149949668Y-84443862D01*
X149827748Y-83907414D02*
X149705828Y-84273174D01*
X149705828Y-84273174D02*
X150022820Y-84273174D01*
X154367332Y-89413630D02*
X154318564Y-89389246D01*
X154318564Y-89389246D02*
X154269796Y-89340478D01*
X154269796Y-89340478D02*
X154196644Y-89267326D01*
X154196644Y-89267326D02*
X154147876Y-89242942D01*
X154147876Y-89242942D02*
X154099108Y-89242942D01*
X154123492Y-89364862D02*
X154074724Y-89340478D01*
X154074724Y-89340478D02*
X154025956Y-89291710D01*
X154025956Y-89291710D02*
X154001572Y-89194174D01*
X154001572Y-89194174D02*
X154001572Y-89023486D01*
X154001572Y-89023486D02*
X154025956Y-88925950D01*
X154025956Y-88925950D02*
X154074724Y-88877182D01*
X154074724Y-88877182D02*
X154123492Y-88852798D01*
X154123492Y-88852798D02*
X154221028Y-88852798D01*
X154221028Y-88852798D02*
X154269796Y-88877182D01*
X154269796Y-88877182D02*
X154318564Y-88925950D01*
X154318564Y-88925950D02*
X154342948Y-89023486D01*
X154342948Y-89023486D02*
X154342948Y-89194174D01*
X154342948Y-89194174D02*
X154318564Y-89291710D01*
X154318564Y-89291710D02*
X154269796Y-89340478D01*
X154269796Y-89340478D02*
X154221028Y-89364862D01*
X154221028Y-89364862D02*
X154123492Y-89364862D01*
X154830628Y-89364862D02*
X154538020Y-89364862D01*
X154684324Y-89364862D02*
X154684324Y-88852798D01*
X154684324Y-88852798D02*
X154635556Y-88925950D01*
X154635556Y-88925950D02*
X154586788Y-88974718D01*
X154586788Y-88974718D02*
X154538020Y-88999102D01*
X144106916Y-123736976D02*
X143936228Y-123493136D01*
X143814308Y-123736976D02*
X143814308Y-123224912D01*
X143814308Y-123224912D02*
X144009380Y-123224912D01*
X144009380Y-123224912D02*
X144058148Y-123249296D01*
X144058148Y-123249296D02*
X144082532Y-123273680D01*
X144082532Y-123273680D02*
X144106916Y-123322448D01*
X144106916Y-123322448D02*
X144106916Y-123395600D01*
X144106916Y-123395600D02*
X144082532Y-123444368D01*
X144082532Y-123444368D02*
X144058148Y-123468752D01*
X144058148Y-123468752D02*
X144009380Y-123493136D01*
X144009380Y-123493136D02*
X143814308Y-123493136D01*
X144594596Y-123736976D02*
X144301988Y-123736976D01*
X144448292Y-123736976D02*
X144448292Y-123224912D01*
X144448292Y-123224912D02*
X144399524Y-123298064D01*
X144399524Y-123298064D02*
X144350756Y-123346832D01*
X144350756Y-123346832D02*
X144301988Y-123371216D01*
X144911588Y-123224912D02*
X144960356Y-123224912D01*
X144960356Y-123224912D02*
X145009124Y-123249296D01*
X145009124Y-123249296D02*
X145033508Y-123273680D01*
X145033508Y-123273680D02*
X145057892Y-123322448D01*
X145057892Y-123322448D02*
X145082276Y-123419984D01*
X145082276Y-123419984D02*
X145082276Y-123541904D01*
X145082276Y-123541904D02*
X145057892Y-123639440D01*
X145057892Y-123639440D02*
X145033508Y-123688208D01*
X145033508Y-123688208D02*
X145009124Y-123712592D01*
X145009124Y-123712592D02*
X144960356Y-123736976D01*
X144960356Y-123736976D02*
X144911588Y-123736976D01*
X144911588Y-123736976D02*
X144862820Y-123712592D01*
X144862820Y-123712592D02*
X144838436Y-123688208D01*
X144838436Y-123688208D02*
X144814052Y-123639440D01*
X144814052Y-123639440D02*
X144789668Y-123541904D01*
X144789668Y-123541904D02*
X144789668Y-123419984D01*
X144789668Y-123419984D02*
X144814052Y-123322448D01*
X144814052Y-123322448D02*
X144838436Y-123273680D01*
X144838436Y-123273680D02*
X144862820Y-123249296D01*
X144862820Y-123249296D02*
X144911588Y-123224912D01*
X126526362Y-115498944D02*
X126282522Y-115669632D01*
X126526362Y-115791552D02*
X126014298Y-115791552D01*
X126014298Y-115791552D02*
X126014298Y-115596480D01*
X126014298Y-115596480D02*
X126038682Y-115547712D01*
X126038682Y-115547712D02*
X126063066Y-115523328D01*
X126063066Y-115523328D02*
X126111834Y-115498944D01*
X126111834Y-115498944D02*
X126184986Y-115498944D01*
X126184986Y-115498944D02*
X126233754Y-115523328D01*
X126233754Y-115523328D02*
X126258138Y-115547712D01*
X126258138Y-115547712D02*
X126282522Y-115596480D01*
X126282522Y-115596480D02*
X126282522Y-115791552D01*
X126014298Y-115060032D02*
X126014298Y-115157568D01*
X126014298Y-115157568D02*
X126038682Y-115206336D01*
X126038682Y-115206336D02*
X126063066Y-115230720D01*
X126063066Y-115230720D02*
X126136218Y-115279488D01*
X126136218Y-115279488D02*
X126233754Y-115303872D01*
X126233754Y-115303872D02*
X126428826Y-115303872D01*
X126428826Y-115303872D02*
X126477594Y-115279488D01*
X126477594Y-115279488D02*
X126501978Y-115255104D01*
X126501978Y-115255104D02*
X126526362Y-115206336D01*
X126526362Y-115206336D02*
X126526362Y-115108800D01*
X126526362Y-115108800D02*
X126501978Y-115060032D01*
X126501978Y-115060032D02*
X126477594Y-115035648D01*
X126477594Y-115035648D02*
X126428826Y-115011264D01*
X126428826Y-115011264D02*
X126306906Y-115011264D01*
X126306906Y-115011264D02*
X126258138Y-115035648D01*
X126258138Y-115035648D02*
X126233754Y-115060032D01*
X126233754Y-115060032D02*
X126209370Y-115108800D01*
X126209370Y-115108800D02*
X126209370Y-115206336D01*
X126209370Y-115206336D02*
X126233754Y-115255104D01*
X126233754Y-115255104D02*
X126258138Y-115279488D01*
X126258138Y-115279488D02*
X126306906Y-115303872D01*
X137007332Y-127014744D02*
X136958564Y-126990360D01*
X136958564Y-126990360D02*
X136909796Y-126941592D01*
X136909796Y-126941592D02*
X136836644Y-126868440D01*
X136836644Y-126868440D02*
X136787876Y-126844056D01*
X136787876Y-126844056D02*
X136739108Y-126844056D01*
X136763492Y-126965976D02*
X136714724Y-126941592D01*
X136714724Y-126941592D02*
X136665956Y-126892824D01*
X136665956Y-126892824D02*
X136641572Y-126795288D01*
X136641572Y-126795288D02*
X136641572Y-126624600D01*
X136641572Y-126624600D02*
X136665956Y-126527064D01*
X136665956Y-126527064D02*
X136714724Y-126478296D01*
X136714724Y-126478296D02*
X136763492Y-126453912D01*
X136763492Y-126453912D02*
X136861028Y-126453912D01*
X136861028Y-126453912D02*
X136909796Y-126478296D01*
X136909796Y-126478296D02*
X136958564Y-126527064D01*
X136958564Y-126527064D02*
X136982948Y-126624600D01*
X136982948Y-126624600D02*
X136982948Y-126795288D01*
X136982948Y-126795288D02*
X136958564Y-126892824D01*
X136958564Y-126892824D02*
X136909796Y-126941592D01*
X136909796Y-126941592D02*
X136861028Y-126965976D01*
X136861028Y-126965976D02*
X136763492Y-126965976D01*
X137153636Y-126453912D02*
X137470628Y-126453912D01*
X137470628Y-126453912D02*
X137299940Y-126648984D01*
X137299940Y-126648984D02*
X137373092Y-126648984D01*
X137373092Y-126648984D02*
X137421860Y-126673368D01*
X137421860Y-126673368D02*
X137446244Y-126697752D01*
X137446244Y-126697752D02*
X137470628Y-126746520D01*
X137470628Y-126746520D02*
X137470628Y-126868440D01*
X137470628Y-126868440D02*
X137446244Y-126917208D01*
X137446244Y-126917208D02*
X137421860Y-126941592D01*
X137421860Y-126941592D02*
X137373092Y-126965976D01*
X137373092Y-126965976D02*
X137226788Y-126965976D01*
X137226788Y-126965976D02*
X137178020Y-126941592D01*
X137178020Y-126941592D02*
X137153636Y-126917208D01*
X139148492Y-84980798D02*
X139148492Y-85346558D01*
X139148492Y-85346558D02*
X139124108Y-85419710D01*
X139124108Y-85419710D02*
X139075340Y-85468478D01*
X139075340Y-85468478D02*
X139002188Y-85492862D01*
X139002188Y-85492862D02*
X138953420Y-85492862D01*
X139660556Y-85492862D02*
X139367948Y-85492862D01*
X139514252Y-85492862D02*
X139514252Y-84980798D01*
X139514252Y-84980798D02*
X139465484Y-85053950D01*
X139465484Y-85053950D02*
X139416716Y-85102718D01*
X139416716Y-85102718D02*
X139367948Y-85127102D01*
X139855628Y-85029566D02*
X139880012Y-85005182D01*
X139880012Y-85005182D02*
X139928780Y-84980798D01*
X139928780Y-84980798D02*
X140050700Y-84980798D01*
X140050700Y-84980798D02*
X140099468Y-85005182D01*
X140099468Y-85005182D02*
X140123852Y-85029566D01*
X140123852Y-85029566D02*
X140148236Y-85078334D01*
X140148236Y-85078334D02*
X140148236Y-85127102D01*
X140148236Y-85127102D02*
X140123852Y-85200254D01*
X140123852Y-85200254D02*
X139831244Y-85492862D01*
X139831244Y-85492862D02*
X140148236Y-85492862D01*
X129109476Y-99938944D02*
X128865636Y-100109632D01*
X129109476Y-100231552D02*
X128597412Y-100231552D01*
X128597412Y-100231552D02*
X128597412Y-100036480D01*
X128597412Y-100036480D02*
X128621796Y-99987712D01*
X128621796Y-99987712D02*
X128646180Y-99963328D01*
X128646180Y-99963328D02*
X128694948Y-99938944D01*
X128694948Y-99938944D02*
X128768100Y-99938944D01*
X128768100Y-99938944D02*
X128816868Y-99963328D01*
X128816868Y-99963328D02*
X128841252Y-99987712D01*
X128841252Y-99987712D02*
X128865636Y-100036480D01*
X128865636Y-100036480D02*
X128865636Y-100231552D01*
X128646180Y-99743872D02*
X128621796Y-99719488D01*
X128621796Y-99719488D02*
X128597412Y-99670720D01*
X128597412Y-99670720D02*
X128597412Y-99548800D01*
X128597412Y-99548800D02*
X128621796Y-99500032D01*
X128621796Y-99500032D02*
X128646180Y-99475648D01*
X128646180Y-99475648D02*
X128694948Y-99451264D01*
X128694948Y-99451264D02*
X128743716Y-99451264D01*
X128743716Y-99451264D02*
X128816868Y-99475648D01*
X128816868Y-99475648D02*
X129109476Y-99768256D01*
X129109476Y-99768256D02*
X129109476Y-99451264D01*
X142048492Y-84980798D02*
X142048492Y-85346558D01*
X142048492Y-85346558D02*
X142024108Y-85419710D01*
X142024108Y-85419710D02*
X141975340Y-85468478D01*
X141975340Y-85468478D02*
X141902188Y-85492862D01*
X141902188Y-85492862D02*
X141853420Y-85492862D01*
X142511788Y-84980798D02*
X142414252Y-84980798D01*
X142414252Y-84980798D02*
X142365484Y-85005182D01*
X142365484Y-85005182D02*
X142341100Y-85029566D01*
X142341100Y-85029566D02*
X142292332Y-85102718D01*
X142292332Y-85102718D02*
X142267948Y-85200254D01*
X142267948Y-85200254D02*
X142267948Y-85395326D01*
X142267948Y-85395326D02*
X142292332Y-85444094D01*
X142292332Y-85444094D02*
X142316716Y-85468478D01*
X142316716Y-85468478D02*
X142365484Y-85492862D01*
X142365484Y-85492862D02*
X142463020Y-85492862D01*
X142463020Y-85492862D02*
X142511788Y-85468478D01*
X142511788Y-85468478D02*
X142536172Y-85444094D01*
X142536172Y-85444094D02*
X142560556Y-85395326D01*
X142560556Y-85395326D02*
X142560556Y-85273406D01*
X142560556Y-85273406D02*
X142536172Y-85224638D01*
X142536172Y-85224638D02*
X142511788Y-85200254D01*
X142511788Y-85200254D02*
X142463020Y-85175870D01*
X142463020Y-85175870D02*
X142365484Y-85175870D01*
X142365484Y-85175870D02*
X142316716Y-85200254D01*
X142316716Y-85200254D02*
X142292332Y-85224638D01*
X142292332Y-85224638D02*
X142267948Y-85273406D01*
X142140756Y-123636976D02*
X141970068Y-123393136D01*
X141848148Y-123636976D02*
X141848148Y-123124912D01*
X141848148Y-123124912D02*
X142043220Y-123124912D01*
X142043220Y-123124912D02*
X142091988Y-123149296D01*
X142091988Y-123149296D02*
X142116372Y-123173680D01*
X142116372Y-123173680D02*
X142140756Y-123222448D01*
X142140756Y-123222448D02*
X142140756Y-123295600D01*
X142140756Y-123295600D02*
X142116372Y-123344368D01*
X142116372Y-123344368D02*
X142091988Y-123368752D01*
X142091988Y-123368752D02*
X142043220Y-123393136D01*
X142043220Y-123393136D02*
X141848148Y-123393136D01*
X142384596Y-123636976D02*
X142482132Y-123636976D01*
X142482132Y-123636976D02*
X142530900Y-123612592D01*
X142530900Y-123612592D02*
X142555284Y-123588208D01*
X142555284Y-123588208D02*
X142604052Y-123515056D01*
X142604052Y-123515056D02*
X142628436Y-123417520D01*
X142628436Y-123417520D02*
X142628436Y-123222448D01*
X142628436Y-123222448D02*
X142604052Y-123173680D01*
X142604052Y-123173680D02*
X142579668Y-123149296D01*
X142579668Y-123149296D02*
X142530900Y-123124912D01*
X142530900Y-123124912D02*
X142433364Y-123124912D01*
X142433364Y-123124912D02*
X142384596Y-123149296D01*
X142384596Y-123149296D02*
X142360212Y-123173680D01*
X142360212Y-123173680D02*
X142335828Y-123222448D01*
X142335828Y-123222448D02*
X142335828Y-123344368D01*
X142335828Y-123344368D02*
X142360212Y-123393136D01*
X142360212Y-123393136D02*
X142384596Y-123417520D01*
X142384596Y-123417520D02*
X142433364Y-123441904D01*
X142433364Y-123441904D02*
X142530900Y-123441904D01*
X142530900Y-123441904D02*
X142579668Y-123417520D01*
X142579668Y-123417520D02*
X142604052Y-123393136D01*
X142604052Y-123393136D02*
X142628436Y-123344368D01*
D17*
%TO.C,Q4*%
X131726100Y-124773600D02*
X131726100Y-125573600D01*
X132326100Y-124773600D02*
X131726100Y-124773600D01*
X133926100Y-124773600D02*
X134526100Y-124773600D01*
X134526100Y-124773600D02*
X134526100Y-125573600D01*
%TO.C,Q2*%
X149086100Y-91033600D02*
X149086100Y-90233600D01*
X149686100Y-91033600D02*
X149086100Y-91033600D01*
X151286100Y-91033600D02*
X151886100Y-91033600D01*
X151886100Y-91033600D02*
X151886100Y-90233600D01*
D18*
%TO.C,R12*%
X163056100Y-123873600D02*
X164456100Y-123873600D01*
X163056100Y-127073600D02*
X163056100Y-123873600D01*
X164456100Y-123873600D02*
X164456100Y-127073600D01*
X164456100Y-127073600D02*
X163056100Y-127073600D01*
%TO.C,C4*%
X139326100Y-124013600D02*
X140726100Y-124013600D01*
X139326100Y-127213600D02*
X139326100Y-124013600D01*
X140726100Y-124013600D02*
X140726100Y-127213600D01*
X140726100Y-127213600D02*
X139326100Y-127213600D01*
%TO.C,R1*%
X127016100Y-94463600D02*
X128416100Y-94463600D01*
X127016100Y-97663600D02*
X127016100Y-94463600D01*
X128416100Y-94463600D02*
X128416100Y-97663600D01*
X128416100Y-97663600D02*
X127016100Y-97663600D01*
D17*
%TO.C,J5*%
X147816100Y-124818600D02*
X147816100Y-126088600D01*
X147816100Y-126088600D02*
X148451100Y-126723600D01*
X148451100Y-124183600D02*
X147816100Y-124818600D01*
X148451100Y-124183600D02*
X149721100Y-124183600D01*
X149721100Y-124183600D02*
X150356100Y-124818600D01*
X149721100Y-126723600D02*
X148451100Y-126723600D01*
X150356100Y-124818600D02*
X150991100Y-124183600D01*
X150356100Y-126088600D02*
X149721100Y-126723600D01*
X150991100Y-124183600D02*
X152261100Y-124183600D01*
X150991100Y-126723600D02*
X150356100Y-126088600D01*
X152261100Y-124183600D02*
X152896100Y-124818600D01*
X152261100Y-126723600D02*
X150991100Y-126723600D01*
X152896100Y-124818600D02*
X153531100Y-124183600D01*
X152896100Y-126088600D02*
X152261100Y-126723600D01*
X153531100Y-124183600D02*
X154801100Y-124183600D01*
X153531100Y-126723600D02*
X152896100Y-126088600D01*
X154801100Y-124183600D02*
X155436100Y-124818600D01*
X154801100Y-126723600D02*
X153531100Y-126723600D01*
X155436100Y-126088600D02*
X154801100Y-126723600D01*
X155436100Y-126088600D02*
X156071100Y-126723600D01*
X156071100Y-124183600D02*
X155436100Y-124818600D01*
X156071100Y-124183600D02*
X157341100Y-124183600D01*
X157341100Y-124183600D02*
X157976100Y-124818600D01*
X157341100Y-126723600D02*
X156071100Y-126723600D01*
X157976100Y-124818600D02*
X158611100Y-124183600D01*
X157976100Y-126088600D02*
X157341100Y-126723600D01*
X158611100Y-124183600D02*
X159881100Y-124183600D01*
X158611100Y-126723600D02*
X157976100Y-126088600D01*
X159881100Y-124183600D02*
X160516100Y-124818600D01*
X159881100Y-126723600D02*
X158611100Y-126723600D01*
X160516100Y-124818600D02*
X160516100Y-126088600D01*
X160516100Y-126088600D02*
X159881100Y-126723600D01*
%TO.C,J2*%
X152866100Y-96458600D02*
X152866100Y-95188600D01*
X152866100Y-97728600D02*
X153501100Y-97093600D01*
X152866100Y-98998600D02*
X152866100Y-97728600D01*
X153501100Y-94553600D02*
X152866100Y-95188600D01*
X153501100Y-97093600D02*
X152866100Y-96458600D01*
X153501100Y-99633600D02*
X152866100Y-98998600D01*
X154771100Y-94553600D02*
X153501100Y-94553600D01*
X154771100Y-97093600D02*
X155406100Y-97728600D01*
X154771100Y-99633600D02*
X153501100Y-99633600D01*
X155406100Y-95188600D02*
X154771100Y-94553600D01*
X155406100Y-95188600D02*
X155406100Y-96458600D01*
X155406100Y-96458600D02*
X154771100Y-97093600D01*
X155406100Y-97728600D02*
X155406100Y-98998600D01*
X155406100Y-98998600D02*
X154771100Y-99633600D01*
D18*
%TO.C,C2*%
X160846100Y-123873600D02*
X162246100Y-123873600D01*
X160846100Y-127073600D02*
X160846100Y-123873600D01*
X162246100Y-123873600D02*
X162246100Y-127073600D01*
X162246100Y-127073600D02*
X160846100Y-127073600D01*
%TO.C,C6*%
X151046100Y-84713600D02*
X152446100Y-84713600D01*
X151046100Y-87913600D02*
X151046100Y-84713600D01*
X152446100Y-84713600D02*
X152446100Y-87913600D01*
X152446100Y-87913600D02*
X151046100Y-87913600D01*
%TO.C,R11*%
X166616100Y-92243600D02*
X168016100Y-92243600D01*
X166616100Y-95443600D02*
X166616100Y-92243600D01*
X168016100Y-92243600D02*
X168016100Y-95443600D01*
X168016100Y-95443600D02*
X166616100Y-95443600D01*
D19*
%TO.C,U1*%
X129456100Y-86973600D02*
X134536100Y-86973600D01*
X129456100Y-122533600D02*
X129456100Y-86973600D01*
D18*
X133266100Y-88878600D02*
X133266100Y-87608600D01*
D19*
X134536100Y-86338600D02*
X134536100Y-92053600D01*
D18*
X134536100Y-87608600D02*
X133266100Y-87608600D01*
X134536100Y-88878600D02*
X133266100Y-88878600D01*
D19*
X134536100Y-92053600D02*
X135171100Y-92053600D01*
D18*
X135171100Y-87608600D02*
X135171100Y-89196100D01*
X135171100Y-90783600D02*
X135171100Y-91248679D01*
D19*
X135171100Y-92053600D02*
X136123600Y-92053600D01*
D18*
X135171100Y-93323600D02*
X135171100Y-92053600D01*
X135312485Y-91512857D02*
X136123600Y-92053600D01*
X135488600Y-89513600D02*
X136123600Y-89513600D01*
D19*
X136123600Y-92053600D02*
X136441100Y-92053600D01*
D18*
X136441100Y-87608600D02*
X135171100Y-87608600D01*
X136441100Y-89196100D02*
X136441100Y-87608600D01*
X136441100Y-92053600D02*
X136441100Y-93323600D01*
D19*
X136441100Y-92053600D02*
X137076100Y-92053600D01*
D18*
X136441100Y-93323600D02*
X135171100Y-93323600D01*
X137076100Y-90783600D02*
X135171100Y-90783600D01*
X137076100Y-92053600D02*
X137076100Y-90783600D01*
X137076100Y-92053600D02*
X137076100Y-93323600D01*
D19*
X137076100Y-92053600D02*
X137711100Y-92053600D01*
D18*
X137711100Y-92053600D02*
X137711100Y-93323600D01*
D19*
X137711100Y-92053600D02*
X138346100Y-92053600D01*
D18*
X138346100Y-92053600D02*
X138346100Y-93323600D01*
D19*
X138346100Y-92053600D02*
X138981100Y-92053600D01*
D18*
X138981100Y-92053600D02*
X138981100Y-93323600D01*
D19*
X138981100Y-92053600D02*
X139616100Y-92053600D01*
D18*
X139616100Y-90783600D02*
X141521100Y-90783600D01*
X139616100Y-92053600D02*
X139616100Y-90783600D01*
X139616100Y-92053600D02*
X139616100Y-93323600D01*
D19*
X139616100Y-92053600D02*
X140251100Y-92053600D01*
D18*
X140251100Y-89196100D02*
X140251100Y-87608600D01*
X140251100Y-92053600D02*
X140251100Y-93323600D01*
D19*
X140251100Y-92053600D02*
X140568600Y-92053600D01*
D18*
X140251100Y-93323600D02*
X141521100Y-93323600D01*
D19*
X140568600Y-92053600D02*
X141521100Y-92053600D01*
D18*
X141203600Y-89513600D02*
X140568600Y-89513600D01*
X141379715Y-91512857D02*
X140568600Y-92053600D01*
X141521100Y-87608600D02*
X140251100Y-87608600D01*
X141521100Y-87608600D02*
X141521100Y-89196100D01*
X141521100Y-90783600D02*
X141521100Y-91248679D01*
D19*
X141521100Y-92053600D02*
X142156100Y-92053600D01*
D18*
X141521100Y-93323600D02*
X141521100Y-92053600D01*
D19*
X142156100Y-85703600D02*
X134536100Y-85703600D01*
X142156100Y-86338600D02*
X142156100Y-92053600D01*
D18*
X142156100Y-87608600D02*
X143426100Y-87608600D01*
X142156100Y-88878600D02*
X143426100Y-88878600D01*
X143426100Y-88878600D02*
X143426100Y-87608600D01*
D19*
X147236100Y-86973600D02*
X142156100Y-86973600D01*
X147236100Y-86973600D02*
X147236100Y-122533600D01*
X147236100Y-122533600D02*
X129456100Y-122533600D01*
D18*
X135312484Y-91512858D02*
G75*
G02*
X135171100Y-91248679I176114J264176D01*
G01*
X135488600Y-89513600D02*
G75*
G02*
X135171100Y-89196100I1J317501D01*
G01*
X136441100Y-89196100D02*
G75*
G02*
X136123600Y-89513600I-317501J1D01*
G01*
X140568600Y-89513600D02*
G75*
G02*
X140251100Y-89196100I1J317501D01*
G01*
X141521100Y-89196100D02*
G75*
G02*
X141203600Y-89513600I-317501J1D01*
G01*
X141521100Y-91248679D02*
G75*
G02*
X141379716Y-91512858I-317505J0D01*
G01*
D17*
%TO.C,J1*%
X126266100Y-103378600D02*
X126901100Y-102743600D01*
X126266100Y-104648600D02*
X126266100Y-103378600D01*
X126266100Y-104648600D02*
X126901100Y-105283600D01*
X126266100Y-105918600D02*
X126901100Y-105283600D01*
X126266100Y-107188600D02*
X126266100Y-105918600D01*
X126266100Y-108458600D02*
X126901100Y-107823600D01*
X126266100Y-109728600D02*
X126266100Y-108458600D01*
X126266100Y-110998600D02*
X126901100Y-110363600D01*
X126266100Y-112268600D02*
X126266100Y-110998600D01*
X126266100Y-112268600D02*
X126901100Y-112903600D01*
X126901100Y-102743600D02*
X128171100Y-102743600D01*
X126901100Y-107823600D02*
X126266100Y-107188600D01*
X126901100Y-110363600D02*
X126266100Y-109728600D01*
X126901100Y-112903600D02*
X128171100Y-112903600D01*
X128171100Y-102743600D02*
X128806100Y-103378600D01*
X128171100Y-105283600D02*
X128806100Y-104648600D01*
X128171100Y-105283600D02*
X128806100Y-105918600D01*
X128171100Y-107823600D02*
X128806100Y-108458600D01*
X128171100Y-110363600D02*
X128806100Y-110998600D01*
X128171100Y-112903600D02*
X128806100Y-112268600D01*
X128806100Y-103378600D02*
X128806100Y-104648600D01*
X128806100Y-105918600D02*
X128806100Y-107188600D01*
X128806100Y-107188600D02*
X128171100Y-107823600D01*
X128806100Y-108458600D02*
X128806100Y-109728600D01*
X128806100Y-109728600D02*
X128171100Y-110363600D01*
X128806100Y-110998600D02*
X128806100Y-112268600D01*
D18*
%TO.C,C1*%
X164326100Y-92243600D02*
X165726100Y-92243600D01*
X164326100Y-95443600D02*
X164326100Y-92243600D01*
X165726100Y-92243600D02*
X165726100Y-95443600D01*
X165726100Y-95443600D02*
X164326100Y-95443600D01*
D17*
%TO.C,Q1*%
X153006100Y-91033600D02*
X153006100Y-90233600D01*
X153606100Y-91033600D02*
X153006100Y-91033600D01*
X155206100Y-91033600D02*
X155806100Y-91033600D01*
X155806100Y-91033600D02*
X155806100Y-90233600D01*
D18*
%TO.C,C3*%
X145926100Y-123923600D02*
X147326100Y-123923600D01*
X145926100Y-127123600D02*
X145926100Y-123923600D01*
X147326100Y-123923600D02*
X147326100Y-127123600D01*
X147326100Y-127123600D02*
X145926100Y-127123600D01*
D17*
%TO.C,Q3*%
X135606100Y-124873600D02*
X135606100Y-125673600D01*
X136206100Y-124873600D02*
X135606100Y-124873600D01*
X137806100Y-124873600D02*
X138406100Y-124873600D01*
X138406100Y-124873600D02*
X138406100Y-125673600D01*
D18*
%TO.C,R2*%
X127016100Y-98253600D02*
X128416100Y-98253600D01*
X127016100Y-101453600D02*
X127016100Y-98253600D01*
X128416100Y-98253600D02*
X128416100Y-101453600D01*
X128416100Y-101453600D02*
X127016100Y-101453600D01*
%TO.C,C5*%
X157286100Y-85963600D02*
X160486100Y-85963600D01*
X157286100Y-87363600D02*
X157286100Y-85963600D01*
X160486100Y-85963600D02*
X160486100Y-87363600D01*
X160486100Y-87363600D02*
X157286100Y-87363600D01*
%TD*%
M02*
